<svg width="129" height="81" viewBox="0 0 129 81" fill="none" xmlns="http://www.w3.org/2000/svg">
<g clip-path="url(#clip0_16_1524)">
<path d="M95.22 74.0664C94.3555 73.1074 93.2964 72.3439 92.1133 71.8267C90.9316 71.3788 89.8657 70.671 88.9946 69.7555C88.5772 69.2723 88.3348 68.6625 88.3064 68.0246C88.278 67.3867 88.4653 66.7579 88.838 66.2394C90.5359 64.1201 93.8232 65.6012 95.3284 67.1907C96.9762 69.1144 97.9303 71.5357 98.0378 74.0664H95.22Z" fill="#9FFFB3"/>
<path d="M97.1828 75.692C97.1828 75.692 96.5928 70.6346 93.8955 68.8765" stroke="#80E598" stroke-width="0.986714" stroke-linecap="round" stroke-linejoin="round"/>
<path d="M100.723 79.8704L105.094 59.3275L113.246 79.8704H100.723Z" fill="#BDDEF4"/>
<path d="M105.672 59.8333H119.11L121.976 80.3882H108.526L105.672 59.8333Z" fill="white" stroke="#DCF6FF" stroke-width="0.986714" stroke-miterlimit="10"/>
<path d="M32.7244 80.8579C50.6538 80.8579 65.1884 66.3232 65.1884 48.3938C65.1884 30.4644 50.6538 15.9298 32.7244 15.9298C14.795 15.9298 0.260345 30.4644 0.260345 48.3938C0.260345 66.3232 14.795 80.8579 32.7244 80.8579Z" fill="#DCF6FF"/>
<mask id="mask0_16_1524" style="mask-type:luminance" maskUnits="userSpaceOnUse" x="0" y="15" width="66" height="66">
<path d="M32.7244 80.8579C50.6538 80.8579 65.1884 66.3232 65.1884 48.3938C65.1884 30.4644 50.6538 15.9298 32.7244 15.9298C14.795 15.9298 0.260345 30.4644 0.260345 48.3938C0.260345 66.3232 14.795 80.8579 32.7244 80.8579Z" fill="white"/>
</mask>
<g mask="url(#mask0_16_1524)">
<path d="M14.9029 28.0797H75.5441C75.7238 28.0781 75.9021 28.1122 76.0686 28.1798C76.235 28.2475 76.3865 28.3475 76.5141 28.474C76.6417 28.6005 76.743 28.751 76.8122 28.9169C76.8813 29.0828 76.9169 29.2607 76.9169 29.4404V59.0145C76.9169 59.1942 76.8813 59.3721 76.8122 59.538C76.743 59.7039 76.6417 59.8544 76.5141 59.9809C76.3865 60.1074 76.235 60.2074 76.0686 60.2751C75.9021 60.3427 75.7238 60.3768 75.5441 60.3752H14.9029C14.6536 60.3768 14.4065 60.329 14.1757 60.2347C13.9449 60.1404 13.7351 60.0014 13.5583 59.8257C13.3814 59.65 13.2411 59.4411 13.1454 59.2109C13.0496 58.9808 13.0003 58.7339 13.0003 58.4846V29.9702C13.0003 29.721 13.0496 29.4741 13.1454 29.244C13.2411 29.0138 13.3814 28.8049 13.5583 28.6292C13.7351 28.4535 13.9449 28.3145 14.1757 28.2202C14.4065 28.1259 14.6536 28.0781 14.9029 28.0797Z" fill="#BDDEF4"/>
<path d="M16.0227 28.0797H76.664C76.8437 28.0781 77.0219 28.1122 77.1884 28.1798C77.3549 28.2475 77.5063 28.3475 77.6339 28.474C77.7616 28.6005 77.8629 28.751 77.932 28.9169C78.0011 29.0828 78.0367 29.2607 78.0367 29.4404V59.0145C78.0367 59.1942 78.0011 59.3721 77.932 59.538C77.8629 59.7039 77.7616 59.8544 77.6339 59.9809C77.5063 60.1074 77.3549 60.2074 77.1884 60.2751C77.0219 60.3427 76.8437 60.3768 76.664 60.3752H16.0227C15.7734 60.3768 15.5263 60.329 15.2956 60.2347C15.0648 60.1404 14.855 60.0014 14.6781 59.8257C14.5013 59.65 14.361 59.4411 14.2652 59.2109C14.1695 58.9808 14.1202 58.7339 14.1202 58.4846V29.9702C14.1202 29.721 14.1695 29.4741 14.2652 29.244C14.361 29.0138 14.5013 28.8049 14.6781 28.6292C14.855 28.4535 15.0648 28.3145 15.2956 28.2202C15.5263 28.1259 15.7734 28.0781 16.0227 28.0797Z" fill="white"/>
<path d="M19.575 60.3752V83.1698" stroke="#BDDEF4" stroke-width="0.986203" stroke-miterlimit="10"/>
<mask id="mask1_16_1524" style="mask-type:luminance" maskUnits="userSpaceOnUse" x="14" y="28" width="65" height="33">
<path d="M16.0227 28.0797H76.664C76.8437 28.0781 77.0219 28.1122 77.1884 28.1798C77.3549 28.2475 77.5063 28.3475 77.6339 28.474C77.7616 28.6005 77.8629 28.751 77.932 28.9169C78.0011 29.0828 78.0367 29.2607 78.0367 29.4404V59.0145C78.0367 59.1942 78.0011 59.3721 77.932 59.538C77.8629 59.7039 77.7616 59.8544 77.6339 59.9809C77.5063 60.1074 77.3549 60.2074 77.1884 60.2751C77.0219 60.3427 76.8437 60.3768 76.664 60.3752H16.0227C15.7734 60.3768 15.5263 60.329 15.2956 60.2347C15.0648 60.1404 14.855 60.0014 14.6781 59.8257C14.5013 59.65 14.361 59.4411 14.2652 59.2109C14.1695 58.9808 14.1202 58.7339 14.1202 58.4846V29.9702C14.1202 29.721 14.1695 29.4741 14.2652 29.244C14.361 29.0138 14.5013 28.8049 14.6781 28.6292C14.855 28.4535 15.0648 28.3145 15.2956 28.2202C15.5263 28.1259 15.7734 28.0781 16.0227 28.0797Z" fill="white"/>
</mask>
<g mask="url(#mask1_16_1524)">
<path d="M38.709 36.4245L-7.19339 75.6077L8.38838 86.9388L37.9865 86.1441L55.1939 36.4245H38.709Z" fill="#BDDEF4"/>
</g>
</g>
<path d="M57.831 48.6949V80.8699H32.0862V50.3807L45.8136 37.7611L57.831 48.6949Z" fill="#DCF6FF"/>
<path d="M92.884 48.2493H57.831V80.8699H95.3043V50.8383L92.884 48.2493Z" fill="#F6FCFF"/>
<path d="M91.5353 58.8579H88.3564V80.8699H91.5353V58.8579Z" fill="#BDDEF4"/>
<path d="M88.3564 58.8579V76.1737L90.2108 66.0708C90.6276 66.2871 91.0739 66.4413 91.5353 66.5284V58.8579H88.3564Z" fill="#BDDEF4"/>
<path d="M88.3684 58.8579H83.2146V80.8699H88.3684V58.8579Z" fill="white"/>
<path d="M78.5304 58.8579H75.3515V71.8749H78.5304V58.8579Z" fill="#BDDEF4"/>
<path d="M75.3515 58.8579H61.4796V71.8749H75.3515V58.8579Z" fill="white"/>
<path d="M78.5304 58.8579H75.3515V71.8749H78.5304V58.8579Z" fill="#BDDEF4"/>
<path d="M99.832 74.0664C101.024 72.7501 102.486 71.7068 104.119 71.0079C105.733 70.4022 107.188 69.4341 108.369 68.1781C108.946 67.5178 109.28 66.68 109.315 65.8038C109.35 64.9276 109.085 64.0657 108.562 63.3615C106.226 60.4113 101.759 62.5065 99.6634 64.7101C97.4119 67.3373 96.1097 70.6456 95.9666 74.1025L99.832 74.0664Z" fill="#9FFFB3"/>
<path d="M81.011 36.569L44.2843 36.6774L61.1424 52.1749V57.4129C61.2028 58.5938 61.7145 59.7063 62.5716 60.5207C63.4288 61.3352 64.566 61.7893 65.7483 61.7893C66.9307 61.7893 68.0679 61.3352 68.9251 60.5207C69.7822 59.7063 70.2938 58.5938 70.3542 57.4129C70.3542 58.6329 70.8389 59.8029 71.7015 60.6655C72.5641 61.5282 73.7341 62.0128 74.9541 62.0128C76.1741 62.0128 77.3441 61.5282 78.2067 60.6655C79.0694 59.8029 79.554 58.6329 79.554 57.4129C79.6144 58.5938 80.126 59.7063 80.9831 60.5207C81.8403 61.3352 82.9775 61.7893 84.1599 61.7893C85.3423 61.7893 86.4795 61.3352 87.3366 60.5207C88.1938 59.7063 88.7054 58.5938 88.7658 57.4129C88.8262 58.5938 89.3378 59.7063 90.1949 60.5207C91.0521 61.3352 92.1893 61.7893 93.3717 61.7893C94.554 61.7893 95.6912 61.3352 96.5484 60.5207C97.4055 59.7063 97.9172 58.5938 97.9776 57.4129V52.1749L81.011 36.569Z" fill="#BDDEF4"/>
<path d="M61.4676 52.0304L44.4769 36.4245H53.6887L70.6553 52.0304H61.4676Z" fill="#011B33"/>
<path d="M70.6553 52.0304L53.6887 36.4245H62.9005L79.8671 52.0304H70.6553Z" fill="#F6FCFF"/>
<path d="M79.8671 52.0304L62.9005 36.4245H72.1003L89.0909 52.0304H79.8671Z" fill="#011B33"/>
<path d="M89.0909 52.0304L72.1003 36.4245H81.312L98.3027 52.0304H89.0909Z" fill="#F6FCFF"/>
<path d="M44.4769 36.4245L27.4983 52.0785V57.3046C27.4968 57.9086 27.6142 58.5071 27.8439 59.0658C28.0736 59.6245 28.4111 60.1324 28.8371 60.5607C29.2631 60.989 29.7693 61.3291 30.3268 61.5617C30.8843 61.7944 31.4821 61.9149 32.0862 61.9165V50.3807L46.0785 37.5323L44.4769 36.4245Z" fill="#011B33"/>
<path d="M81.6733 67.4436H68.2108V68.3467H81.6733V67.4436Z" fill="#DCF6FF"/>
<path d="M68.2229 67.4436H63.7916V68.3467H68.2229V67.4436Z" fill="#BDDEF4"/>
<path d="M61.4555 52.0304H70.6794V57.2564C70.6794 58.4764 70.1947 59.6464 69.3321 60.509C68.4694 61.3716 67.2994 61.8563 66.0795 61.8563C64.8595 61.8563 63.6895 61.3716 62.8269 60.509C61.9642 59.6464 61.4796 58.4764 61.4796 57.2564V52.0304H61.4555Z" fill="#00E1FF"/>
<path d="M70.6553 52.0304H79.8791V57.2564C79.8791 58.4764 79.3945 59.6464 78.5318 60.509C77.6692 61.3716 76.4992 61.8563 75.2792 61.8563C74.0593 61.8563 72.8893 61.3716 72.0266 60.509C71.164 59.6464 70.6793 58.4764 70.6793 57.2564V52.0304H70.6553Z" fill="#011B33"/>
<path d="M79.8791 52.0304H89.0909V57.2564C89.091 58.466 88.6146 59.627 87.765 60.4879C86.9153 61.3488 85.7607 61.8404 84.5512 61.8563C83.3313 61.8563 82.1613 61.3716 81.2986 60.509C80.436 59.6464 79.9514 58.4764 79.9514 57.2564V52.0304H79.8791Z" fill="#00E1FF"/>
<path d="M89.0909 52.0304H98.3027V57.2564C98.3027 58.4764 97.818 59.6464 96.9554 60.509C96.0928 61.3716 94.9228 61.8563 93.7028 61.8563C92.4828 61.8563 91.3128 61.3716 90.4502 60.509C89.5876 59.6464 89.1029 58.4764 89.1029 57.2564V52.0304H89.0909Z" fill="#011B33"/>
<path d="M43.6701 67.9011C47.248 67.9011 50.1485 65.0007 50.1485 61.4228C50.1485 57.8449 47.248 54.9444 43.6701 54.9444C40.0922 54.9444 37.1918 57.8449 37.1918 61.4228C37.1918 65.0007 40.0922 67.9011 43.6701 67.9011Z" stroke="#BDDEF4" stroke-width="0.986203" stroke-miterlimit="10"/>
<path d="M50.1365 61.4228H54.2065" stroke="#BDDEF4" stroke-width="0.986203" stroke-miterlimit="10"/>
<path d="M97.1828 75.6077C97.1828 75.6077 98.0016 70.5864 100.795 68.9488" stroke="#80E598" stroke-width="0.986714" stroke-linecap="round" stroke-linejoin="round"/>
<path d="M95.3043 80.8699H98.6398L100.157 75.7883H95.3043H100.157H101.036V74.0664H95.3043" fill="#BDDEF4"/>
<path d="M32.0862 80.3882H128.72" stroke="#DCF6FF" stroke-width="0.986714" stroke-miterlimit="10"/>
<path d="M45.8135 37.7611L42.4419 40.8799L57.831 54.4507V48.6949L45.8135 37.7611Z" fill="#BDDEF4"/>
</g>
<defs>
<clipPath id="clip0_16_1524">
<rect width="128.459" height="79.98" fill="white" transform="translate(0.260345 0.889893)"/>
</clipPath>
</defs>
</svg>
