<svg width="511" height="157" viewBox="0 0 511 157" fill="none" xmlns="http://www.w3.org/2000/svg">
<rect x="0.5" y="0.75" width="40" height="35" rx="6" fill="#F1FEF4"/>
<path d="M38.375 19.0469H40.3281C40.2656 19.7917 40.0573 20.4557 39.7031 21.0391C39.349 21.6172 38.8516 22.0729 38.2109 22.4062C37.5703 22.7396 36.7917 22.9062 35.875 22.9062C35.1719 22.9062 34.5391 22.7812 33.9766 22.5312C33.4141 22.276 32.9323 21.9167 32.5312 21.4531C32.1302 20.9844 31.8229 20.4193 31.6094 19.7578C31.401 19.0964 31.2969 18.3568 31.2969 17.5391V16.5938C31.2969 15.776 31.4036 15.0365 31.6172 14.375C31.8359 13.7135 32.1484 13.1484 32.5547 12.6797C32.9609 12.2057 33.4479 11.8438 34.0156 11.5938C34.5885 11.3438 35.2318 11.2188 35.9453 11.2188C36.8516 11.2188 37.6172 11.3854 38.2422 11.7188C38.8672 12.0521 39.3516 12.513 39.6953 13.1016C40.0443 13.6901 40.2578 14.3646 40.3359 15.125H38.3828C38.3307 14.6354 38.2161 14.2161 38.0391 13.8672C37.8672 13.5182 37.612 13.2526 37.2734 13.0703C36.9349 12.8828 36.4922 12.7891 35.9453 12.7891C35.4974 12.7891 35.1068 12.8724 34.7734 13.0391C34.4401 13.2057 34.1615 13.4505 33.9375 13.7734C33.7135 14.0964 33.5443 14.4948 33.4297 14.9688C33.3203 15.4375 33.2656 15.974 33.2656 16.5781V17.5391C33.2656 18.112 33.3151 18.6328 33.4141 19.1016C33.5182 19.5651 33.6745 19.9635 33.8828 20.2969C34.0964 20.6302 34.3672 20.888 34.6953 21.0703C35.0234 21.2526 35.4167 21.3438 35.875 21.3438C36.4323 21.3438 36.8828 21.2552 37.2266 21.0781C37.5755 20.901 37.8385 20.6432 38.0156 20.3047C38.1979 19.9609 38.3177 19.5417 38.375 19.0469ZM46.6875 21.0547V17.0234C46.6875 16.7214 46.6328 16.4609 46.5234 16.2422C46.4141 16.0234 46.2474 15.8542 46.0234 15.7344C45.8047 15.6146 45.5286 15.5547 45.1953 15.5547C44.888 15.5547 44.6224 15.6068 44.3984 15.7109C44.1745 15.8151 44 15.9557 43.875 16.1328C43.75 16.3099 43.6875 16.5104 43.6875 16.7344H41.8125C41.8125 16.401 41.8932 16.0781 42.0547 15.7656C42.2161 15.4531 42.4505 15.1745 42.7578 14.9297C43.0651 14.6849 43.4323 14.4922 43.8594 14.3516C44.2865 14.2109 44.7656 14.1406 45.2969 14.1406C45.9323 14.1406 46.4948 14.2474 46.9844 14.4609C47.4792 14.6745 47.8672 14.9974 48.1484 15.4297C48.4349 15.8568 48.5781 16.3932 48.5781 17.0391V20.7969C48.5781 21.1823 48.6042 21.5286 48.6562 21.8359C48.7135 22.138 48.7943 22.401 48.8984 22.625V22.75H46.9688C46.8802 22.5469 46.8099 22.2891 46.7578 21.9766C46.7109 21.6589 46.6875 21.3516 46.6875 21.0547ZM46.9609 17.6094L46.9766 18.7734H45.625C45.276 18.7734 44.9688 18.8073 44.7031 18.875C44.4375 18.9375 44.2161 19.0312 44.0391 19.1562C43.862 19.2812 43.7292 19.4323 43.6406 19.6094C43.5521 19.7865 43.5078 19.987 43.5078 20.2109C43.5078 20.4349 43.5599 20.6406 43.6641 20.8281C43.7682 21.0104 43.9193 21.1536 44.1172 21.2578C44.3203 21.362 44.5651 21.4141 44.8516 21.4141C45.237 21.4141 45.5729 21.3359 45.8594 21.1797C46.151 21.0182 46.3802 20.8229 46.5469 20.5938C46.7135 20.3594 46.8021 20.138 46.8125 19.9297L47.4219 20.7656C47.3594 20.9792 47.2526 21.2083 47.1016 21.4531C46.9505 21.6979 46.7526 21.9323 46.5078 22.1562C46.2682 22.375 45.9792 22.5547 45.6406 22.6953C45.3073 22.8359 44.9219 22.9062 44.4844 22.9062C43.9323 22.9062 43.4401 22.7969 43.0078 22.5781C42.5755 22.3542 42.237 22.0547 41.9922 21.6797C41.7474 21.2995 41.625 20.8698 41.625 20.3906C41.625 19.9427 41.7083 19.5469 41.875 19.2031C42.0469 18.8542 42.2969 18.5625 42.625 18.3281C42.9583 18.0938 43.3646 17.9167 43.8438 17.7969C44.3229 17.6719 44.8698 17.6094 45.4844 17.6094H46.9609ZM52.4375 15.9062V22.75H50.5547V14.2969H52.3516L52.4375 15.9062ZM55.0234 14.2422L55.0078 15.9922C54.8932 15.9714 54.7682 15.9557 54.6328 15.9453C54.5026 15.9349 54.3724 15.9297 54.2422 15.9297C53.9193 15.9297 53.6354 15.9766 53.3906 16.0703C53.1458 16.1589 52.9401 16.2891 52.7734 16.4609C52.612 16.6276 52.487 16.8307 52.3984 17.0703C52.3099 17.3099 52.2578 17.5781 52.2422 17.875L51.8125 17.9062C51.8125 17.375 51.8646 16.8828 51.9688 16.4297C52.0729 15.9766 52.2292 15.5781 52.4375 15.2344C52.651 14.8906 52.9167 14.6224 53.2344 14.4297C53.5573 14.237 53.9297 14.1406 54.3516 14.1406C54.4661 14.1406 54.5885 14.151 54.7188 14.1719C54.8542 14.1927 54.9557 14.2161 55.0234 14.2422ZM61.2031 21V10.75H63.0938V22.75H61.3828L61.2031 21ZM55.7031 18.6172V18.4531C55.7031 17.8125 55.7786 17.2292 55.9297 16.7031C56.0807 16.1719 56.2995 15.7161 56.5859 15.3359C56.8724 14.9505 57.2214 14.6562 57.6328 14.4531C58.0443 14.2448 58.5078 14.1406 59.0234 14.1406C59.5339 14.1406 59.9818 14.2396 60.3672 14.4375C60.7526 14.6354 61.0807 14.9193 61.3516 15.2891C61.6224 15.6536 61.8385 16.0911 62 16.6016C62.1615 17.1068 62.276 17.6693 62.3438 18.2891V18.8125C62.276 19.4167 62.1615 19.9688 62 20.4688C61.8385 20.9688 61.6224 21.401 61.3516 21.7656C61.0807 22.1302 60.75 22.4115 60.3594 22.6094C59.974 22.8073 59.5234 22.9062 59.0078 22.9062C58.4974 22.9062 58.0365 22.7995 57.625 22.5859C57.2188 22.3724 56.8724 22.0729 56.5859 21.6875C56.2995 21.3021 56.0807 20.849 55.9297 20.3281C55.7786 19.8021 55.7031 19.2318 55.7031 18.6172ZM57.5859 18.4531V18.6172C57.5859 19.0026 57.6198 19.362 57.6875 19.6953C57.7604 20.0286 57.8724 20.3229 58.0234 20.5781C58.1745 20.8281 58.3698 21.026 58.6094 21.1719C58.8542 21.3125 59.1458 21.3828 59.4844 21.3828C59.9115 21.3828 60.263 21.2891 60.5391 21.1016C60.8151 20.9141 61.0312 20.6615 61.1875 20.3438C61.349 20.0208 61.4583 19.6615 61.5156 19.2656V17.8516C61.4844 17.5443 61.4193 17.2578 61.3203 16.9922C61.2266 16.7266 61.099 16.4948 60.9375 16.2969C60.776 16.0938 60.5755 15.9375 60.3359 15.8281C60.1016 15.7135 59.8229 15.6562 59.5 15.6562C59.1562 15.6562 58.8646 15.7292 58.625 15.875C58.3854 16.0208 58.1875 16.2214 58.0312 16.4766C57.8802 16.7318 57.7682 17.0286 57.6953 17.3672C57.6224 17.7057 57.5859 18.0677 57.5859 18.4531Z" fill="#011B33"/>
<g clip-path="url(#clip0_16_1299)">
<path fill-rule="evenodd" clip-rule="evenodd" d="M24.5008 13.9862C24.5008 14.1797 24.4233 14.3733 24.284 14.5127L17.6255 21.1712C17.4861 21.3105 17.2926 21.3879 17.099 21.3879C16.9054 21.3879 16.7119 21.3105 16.5725 21.1712L12.7168 17.3154C12.5774 17.1761 12.5 16.9825 12.5 16.7889C12.5 16.5954 12.5774 16.4018 12.7168 16.2625L13.7698 15.2095C13.9091 15.0701 14.1027 14.9927 14.2962 14.9927C14.4898 14.9927 14.6834 15.0701 14.8227 15.2095L17.099 17.4935L22.178 12.4067C22.3174 12.2674 22.511 12.1899 22.7045 12.1899C22.8981 12.1899 23.0916 12.2674 23.231 12.4067L24.284 13.4597C24.4233 13.5991 24.5008 13.7926 24.5008 13.9862Z" fill="#3BB75E"/>
</g>
<rect x="0.5" y="39.75" width="40" height="35" rx="6" fill="#F1FEF4"/>
<path d="M35.9219 56.6094H33.0234L33.0078 55.1797H35.5391C35.9661 55.1797 36.3281 55.1172 36.625 54.9922C36.9271 54.862 37.1562 54.6771 37.3125 54.4375C37.4688 54.1927 37.5469 53.8984 37.5469 53.5547C37.5469 53.1745 37.474 52.8646 37.3281 52.625C37.1823 52.3854 36.9583 52.2109 36.6562 52.1016C36.3594 51.9922 35.9792 51.9375 35.5156 51.9375H33.6172V61.75H31.6562V50.375H35.5156C36.1406 50.375 36.6979 50.4349 37.1875 50.5547C37.6823 50.6745 38.1016 50.862 38.4453 51.1172C38.7943 51.3672 39.0573 51.6849 39.2344 52.0703C39.4167 52.4557 39.5078 52.9141 39.5078 53.4453C39.5078 53.9141 39.3958 54.3438 39.1719 54.7344C38.9479 55.1198 38.6172 55.4349 38.1797 55.6797C37.7422 55.9245 37.1979 56.0703 36.5469 56.1172L35.9219 56.6094ZM35.8359 61.75H32.4062L33.2891 60.1953H35.8359C36.2786 60.1953 36.6484 60.1224 36.9453 59.9766C37.2422 59.8255 37.4635 59.6198 37.6094 59.3594C37.7604 59.0938 37.8359 58.7839 37.8359 58.4297C37.8359 58.0599 37.7708 57.7396 37.6406 57.4688C37.5104 57.1927 37.3047 56.9818 37.0234 56.8359C36.7422 56.6849 36.375 56.6094 35.9219 56.6094H33.7188L33.7344 55.1797H36.6016L37.0469 55.7188C37.6719 55.7396 38.1849 55.8776 38.5859 56.1328C38.9922 56.388 39.2943 56.7188 39.4922 57.125C39.6901 57.5312 39.7891 57.9688 39.7891 58.4375C39.7891 59.1615 39.6302 59.7682 39.3125 60.2578C39 60.7474 38.5495 61.1198 37.9609 61.375C37.3724 61.625 36.6641 61.75 35.8359 61.75ZM46.3438 60.0547V56.0234C46.3438 55.7214 46.2891 55.4609 46.1797 55.2422C46.0703 55.0234 45.9036 54.8542 45.6797 54.7344C45.4609 54.6146 45.1849 54.5547 44.8516 54.5547C44.5443 54.5547 44.2786 54.6068 44.0547 54.7109C43.8307 54.8151 43.6562 54.9557 43.5312 55.1328C43.4062 55.3099 43.3438 55.5104 43.3438 55.7344H41.4688C41.4688 55.401 41.5495 55.0781 41.7109 54.7656C41.8724 54.4531 42.1068 54.1745 42.4141 53.9297C42.7214 53.6849 43.0885 53.4922 43.5156 53.3516C43.9427 53.2109 44.4219 53.1406 44.9531 53.1406C45.5885 53.1406 46.151 53.2474 46.6406 53.4609C47.1354 53.6745 47.5234 53.9974 47.8047 54.4297C48.0911 54.8568 48.2344 55.3932 48.2344 56.0391V59.7969C48.2344 60.1823 48.2604 60.5286 48.3125 60.8359C48.3698 61.138 48.4505 61.401 48.5547 61.625V61.75H46.625C46.5365 61.5469 46.4661 61.2891 46.4141 60.9766C46.3672 60.6589 46.3438 60.3516 46.3438 60.0547ZM46.6172 56.6094L46.6328 57.7734H45.2812C44.9323 57.7734 44.625 57.8073 44.3594 57.875C44.0938 57.9375 43.8724 58.0312 43.6953 58.1562C43.5182 58.2812 43.3854 58.4323 43.2969 58.6094C43.2083 58.7865 43.1641 58.987 43.1641 59.2109C43.1641 59.4349 43.2161 59.6406 43.3203 59.8281C43.4245 60.0104 43.5755 60.1536 43.7734 60.2578C43.9766 60.362 44.2214 60.4141 44.5078 60.4141C44.8932 60.4141 45.2292 60.3359 45.5156 60.1797C45.8073 60.0182 46.0365 59.8229 46.2031 59.5938C46.3698 59.3594 46.4583 59.138 46.4688 58.9297L47.0781 59.7656C47.0156 59.9792 46.9089 60.2083 46.7578 60.4531C46.6068 60.6979 46.4089 60.9323 46.1641 61.1562C45.9245 61.375 45.6354 61.5547 45.2969 61.6953C44.9635 61.8359 44.5781 61.9062 44.1406 61.9062C43.5885 61.9062 43.0964 61.7969 42.6641 61.5781C42.2318 61.3542 41.8932 61.0547 41.6484 60.6797C41.4036 60.2995 41.2812 59.8698 41.2812 59.3906C41.2812 58.9427 41.3646 58.5469 41.5312 58.2031C41.7031 57.8542 41.9531 57.5625 42.2812 57.3281C42.6146 57.0938 43.0208 56.9167 43.5 56.7969C43.9792 56.6719 44.526 56.6094 45.1406 56.6094H46.6172ZM52.0703 55.1016V61.75H50.1875V53.2969H51.9609L52.0703 55.1016ZM51.7344 57.2109L51.125 57.2031C51.1302 56.6042 51.2135 56.0547 51.375 55.5547C51.5417 55.0547 51.7708 54.625 52.0625 54.2656C52.3594 53.9062 52.7135 53.6302 53.125 53.4375C53.5365 53.2396 53.9948 53.1406 54.5 53.1406C54.9062 53.1406 55.2734 53.1979 55.6016 53.3125C55.9349 53.4219 56.2188 53.6016 56.4531 53.8516C56.6927 54.1016 56.875 54.4271 57 54.8281C57.125 55.224 57.1875 55.7109 57.1875 56.2891V61.75H55.2969V56.2812C55.2969 55.875 55.237 55.5547 55.1172 55.3203C55.0026 55.0807 54.8333 54.9115 54.6094 54.8125C54.3906 54.7083 54.1172 54.6562 53.7891 54.6562C53.4661 54.6562 53.1771 54.724 52.9219 54.8594C52.6667 54.9948 52.4505 55.1797 52.2734 55.4141C52.1016 55.6484 51.9688 55.9193 51.875 56.2266C51.7812 56.5339 51.7344 56.862 51.7344 57.2109ZM61.0078 49.75V61.75H59.1172V49.75H61.0078ZM66.2578 53.2969L62.5781 57.375L60.5625 59.4375L60.0703 57.8438L61.5938 55.9609L63.9844 53.2969H66.2578ZM64.3906 61.75L61.6484 57.7812L62.8359 56.4609L66.5703 61.75H64.3906ZM76.0547 51.8906L72.6562 61.75H70.6016L74.8828 50.375H76.1953L76.0547 51.8906ZM78.8984 61.75L75.4922 51.8906L75.3438 50.375H76.6641L80.9609 61.75H78.8984ZM78.7344 57.5312V59.0859H72.5469V57.5312H78.7344ZM85.5 60.4062C85.8073 60.4062 86.0833 60.3464 86.3281 60.2266C86.5781 60.1016 86.7786 59.9297 86.9297 59.7109C87.0859 59.4922 87.1719 59.2396 87.1875 58.9531H88.9609C88.9505 59.5 88.7891 59.9974 88.4766 60.4453C88.1641 60.8932 87.75 61.25 87.2344 61.5156C86.7188 61.776 86.1484 61.9062 85.5234 61.9062C84.8776 61.9062 84.3151 61.7969 83.8359 61.5781C83.3568 61.3542 82.9583 61.0469 82.6406 60.6562C82.3229 60.2656 82.0833 59.8151 81.9219 59.3047C81.7656 58.7943 81.6875 58.2474 81.6875 57.6641V57.3906C81.6875 56.8073 81.7656 56.2604 81.9219 55.75C82.0833 55.2344 82.3229 54.7812 82.6406 54.3906C82.9583 54 83.3568 53.6953 83.8359 53.4766C84.3151 53.2526 84.875 53.1406 85.5156 53.1406C86.1927 53.1406 86.7865 53.276 87.2969 53.5469C87.8073 53.8125 88.2083 54.1849 88.5 54.6641C88.7969 55.138 88.9505 55.6901 88.9609 56.3203H87.1875C87.1719 56.0078 87.0938 55.7266 86.9531 55.4766C86.8177 55.2214 86.625 55.0182 86.375 54.8672C86.1302 54.7161 85.8359 54.6406 85.4922 54.6406C85.112 54.6406 84.7969 54.7188 84.5469 54.875C84.2969 55.026 84.1016 55.2344 83.9609 55.5C83.8203 55.7604 83.7188 56.0547 83.6562 56.3828C83.599 56.7057 83.5703 57.0417 83.5703 57.3906V57.6641C83.5703 58.013 83.599 58.3516 83.6562 58.6797C83.7135 59.0078 83.8125 59.3021 83.9531 59.5625C84.099 59.8177 84.2969 60.0234 84.5469 60.1797C84.7969 60.3307 85.1146 60.4062 85.5 60.4062ZM93.8594 60.4062C94.1667 60.4062 94.4427 60.3464 94.6875 60.2266C94.9375 60.1016 95.138 59.9297 95.2891 59.7109C95.4453 59.4922 95.5312 59.2396 95.5469 58.9531H97.3203C97.3099 59.5 97.1484 59.9974 96.8359 60.4453C96.5234 60.8932 96.1094 61.25 95.5938 61.5156C95.0781 61.776 94.5078 61.9062 93.8828 61.9062C93.237 61.9062 92.6745 61.7969 92.1953 61.5781C91.7161 61.3542 91.3177 61.0469 91 60.6562C90.6823 60.2656 90.4427 59.8151 90.2812 59.3047C90.125 58.7943 90.0469 58.2474 90.0469 57.6641V57.3906C90.0469 56.8073 90.125 56.2604 90.2812 55.75C90.4427 55.2344 90.6823 54.7812 91 54.3906C91.3177 54 91.7161 53.6953 92.1953 53.4766C92.6745 53.2526 93.2344 53.1406 93.875 53.1406C94.5521 53.1406 95.1458 53.276 95.6562 53.5469C96.1667 53.8125 96.5677 54.1849 96.8594 54.6641C97.1562 55.138 97.3099 55.6901 97.3203 56.3203H95.5469C95.5312 56.0078 95.4531 55.7266 95.3125 55.4766C95.1771 55.2214 94.9844 55.0182 94.7344 54.8672C94.4896 54.7161 94.1953 54.6406 93.8516 54.6406C93.4714 54.6406 93.1562 54.7188 92.9062 54.875C92.6562 55.026 92.4609 55.2344 92.3203 55.5C92.1797 55.7604 92.0781 56.0547 92.0156 56.3828C91.9583 56.7057 91.9297 57.0417 91.9297 57.3906V57.6641C91.9297 58.013 91.9583 58.3516 92.0156 58.6797C92.0729 59.0078 92.1719 59.3021 92.3125 59.5625C92.4583 59.8177 92.6562 60.0234 92.9062 60.1797C93.1562 60.3307 93.474 60.4062 93.8594 60.4062ZM98.4062 57.6172V57.4375C98.4062 56.8281 98.4948 56.263 98.6719 55.7422C98.849 55.2161 99.1042 54.7604 99.4375 54.375C99.776 53.9844 100.188 53.6823 100.672 53.4688C101.161 53.25 101.714 53.1406 102.328 53.1406C102.948 53.1406 103.5 53.25 103.984 53.4688C104.474 53.6823 104.888 53.9844 105.227 54.375C105.565 54.7604 105.823 55.2161 106 55.7422C106.177 56.263 106.266 56.8281 106.266 57.4375V57.6172C106.266 58.2266 106.177 58.7917 106 59.3125C105.823 59.8333 105.565 60.2891 105.227 60.6797C104.888 61.0651 104.477 61.3672 103.992 61.5859C103.508 61.7995 102.958 61.9062 102.344 61.9062C101.724 61.9062 101.169 61.7995 100.68 61.5859C100.195 61.3672 99.7839 61.0651 99.4453 60.6797C99.1068 60.2891 98.849 59.8333 98.6719 59.3125C98.4948 58.7917 98.4062 58.2266 98.4062 57.6172ZM100.289 57.4375V57.6172C100.289 57.9974 100.328 58.3568 100.406 58.6953C100.484 59.0339 100.607 59.3307 100.773 59.5859C100.94 59.8411 101.154 60.0417 101.414 60.1875C101.674 60.3333 101.984 60.4062 102.344 60.4062C102.693 60.4062 102.995 60.3333 103.25 60.1875C103.51 60.0417 103.724 59.8411 103.891 59.5859C104.057 59.3307 104.18 59.0339 104.258 58.6953C104.341 58.3568 104.383 57.9974 104.383 57.6172V57.4375C104.383 57.0625 104.341 56.7083 104.258 56.375C104.18 56.0365 104.055 55.737 103.883 55.4766C103.716 55.2161 103.503 55.013 103.242 54.8672C102.987 54.7161 102.682 54.6406 102.328 54.6406C101.974 54.6406 101.667 54.7161 101.406 54.8672C101.151 55.013 100.94 55.2161 100.773 55.4766C100.607 55.737 100.484 56.0365 100.406 56.375C100.328 56.7083 100.289 57.0625 100.289 57.4375ZM112.93 59.7578V53.2969H114.82V61.75H113.039L112.93 59.7578ZM113.195 58L113.828 57.9844C113.828 58.5521 113.766 59.0755 113.641 59.5547C113.516 60.0286 113.323 60.4427 113.062 60.7969C112.802 61.1458 112.469 61.4193 112.062 61.6172C111.656 61.8099 111.169 61.9062 110.602 61.9062C110.19 61.9062 109.812 61.8464 109.469 61.7266C109.125 61.6068 108.828 61.4219 108.578 61.1719C108.333 60.9219 108.143 60.5964 108.008 60.1953C107.872 59.7943 107.805 59.3151 107.805 58.7578V53.2969H109.688V58.7734C109.688 59.0807 109.724 59.3385 109.797 59.5469C109.87 59.75 109.969 59.9141 110.094 60.0391C110.219 60.1641 110.365 60.2526 110.531 60.3047C110.698 60.3568 110.875 60.3828 111.062 60.3828C111.599 60.3828 112.021 60.2786 112.328 60.0703C112.641 59.8568 112.862 59.5703 112.992 59.2109C113.128 58.8516 113.195 58.4479 113.195 58ZM118.617 55.1016V61.75H116.734V53.2969H118.508L118.617 55.1016ZM118.281 57.2109L117.672 57.2031C117.677 56.6042 117.76 56.0547 117.922 55.5547C118.089 55.0547 118.318 54.625 118.609 54.2656C118.906 53.9062 119.26 53.6302 119.672 53.4375C120.083 53.2396 120.542 53.1406 121.047 53.1406C121.453 53.1406 121.82 53.1979 122.148 53.3125C122.482 53.4219 122.766 53.6016 123 53.8516C123.24 54.1016 123.422 54.4271 123.547 54.8281C123.672 55.224 123.734 55.7109 123.734 56.2891V61.75H121.844V56.2812C121.844 55.875 121.784 55.5547 121.664 55.3203C121.549 55.0807 121.38 54.9115 121.156 54.8125C120.938 54.7083 120.664 54.6562 120.336 54.6562C120.013 54.6562 119.724 54.724 119.469 54.8594C119.214 54.9948 118.997 55.1797 118.82 55.4141C118.648 55.6484 118.516 55.9193 118.422 56.2266C118.328 56.5339 118.281 56.862 118.281 57.2109ZM129.531 53.2969V54.6719H124.766V53.2969H129.531ZM126.141 51.2266H128.023V59.4141C128.023 59.6745 128.06 59.875 128.133 60.0156C128.211 60.151 128.318 60.2422 128.453 60.2891C128.589 60.3359 128.747 60.3594 128.93 60.3594C129.06 60.3594 129.185 60.3516 129.305 60.3359C129.424 60.3203 129.521 60.3047 129.594 60.2891L129.602 61.7266C129.445 61.7734 129.263 61.8151 129.055 61.8516C128.852 61.888 128.617 61.9062 128.352 61.9062C127.919 61.9062 127.536 61.8307 127.203 61.6797C126.87 61.5234 126.609 61.2708 126.422 60.9219C126.234 60.5729 126.141 60.1094 126.141 59.5312V51.2266Z" fill="#011B33"/>
<g clip-path="url(#clip1_16_1299)">
<path fill-rule="evenodd" clip-rule="evenodd" d="M24.5008 52.9862C24.5008 53.1797 24.4233 53.3733 24.284 53.5127L17.6255 60.1712C17.4861 60.3105 17.2926 60.3879 17.099 60.3879C16.9054 60.3879 16.7119 60.3105 16.5725 60.1712L12.7168 56.3154C12.5774 56.1761 12.5 55.9825 12.5 55.7889C12.5 55.5954 12.5774 55.4018 12.7168 55.2625L13.7698 54.2095C13.9091 54.0701 14.1027 53.9927 14.2962 53.9927C14.4898 53.9927 14.6834 54.0701 14.8227 54.2095L17.099 56.4935L22.178 51.4067C22.3174 51.2674 22.511 51.1899 22.7045 51.1899C22.8981 51.1899 23.0916 51.2674 23.231 51.4067L24.284 52.4597C24.4233 52.5991 24.5008 52.7926 24.5008 52.9862Z" fill="#3BB75E"/>
</g>
<rect x="0.5" y="78.75" width="40" height="35" rx="6" fill="#F1FEF4"/>
<path d="M35.9219 95.6094H33.0234L33.0078 94.1797H35.5391C35.9661 94.1797 36.3281 94.1172 36.625 93.9922C36.9271 93.862 37.1562 93.6771 37.3125 93.4375C37.4688 93.1927 37.5469 92.8984 37.5469 92.5547C37.5469 92.1745 37.474 91.8646 37.3281 91.625C37.1823 91.3854 36.9583 91.2109 36.6562 91.1016C36.3594 90.9922 35.9792 90.9375 35.5156 90.9375H33.6172V100.75H31.6562V89.375H35.5156C36.1406 89.375 36.6979 89.4349 37.1875 89.5547C37.6823 89.6745 38.1016 89.862 38.4453 90.1172C38.7943 90.3672 39.0573 90.6849 39.2344 91.0703C39.4167 91.4557 39.5078 91.9141 39.5078 92.4453C39.5078 92.9141 39.3958 93.3438 39.1719 93.7344C38.9479 94.1198 38.6172 94.4349 38.1797 94.6797C37.7422 94.9245 37.1979 95.0703 36.5469 95.1172L35.9219 95.6094ZM35.8359 100.75H32.4062L33.2891 99.1953H35.8359C36.2786 99.1953 36.6484 99.1224 36.9453 98.9766C37.2422 98.8255 37.4635 98.6198 37.6094 98.3594C37.7604 98.0938 37.8359 97.7839 37.8359 97.4297C37.8359 97.0599 37.7708 96.7396 37.6406 96.4688C37.5104 96.1927 37.3047 95.9818 37.0234 95.8359C36.7422 95.6849 36.375 95.6094 35.9219 95.6094H33.7188L33.7344 94.1797H36.6016L37.0469 94.7188C37.6719 94.7396 38.1849 94.8776 38.5859 95.1328C38.9922 95.388 39.2943 95.7188 39.4922 96.125C39.6901 96.5312 39.7891 96.9688 39.7891 97.4375C39.7891 98.1615 39.6302 98.7682 39.3125 99.2578C39 99.7474 38.5495 100.12 37.9609 100.375C37.3724 100.625 36.6641 100.75 35.8359 100.75ZM46.3438 99.0547V95.0234C46.3438 94.7214 46.2891 94.4609 46.1797 94.2422C46.0703 94.0234 45.9036 93.8542 45.6797 93.7344C45.4609 93.6146 45.1849 93.5547 44.8516 93.5547C44.5443 93.5547 44.2786 93.6068 44.0547 93.7109C43.8307 93.8151 43.6562 93.9557 43.5312 94.1328C43.4062 94.3099 43.3438 94.5104 43.3438 94.7344H41.4688C41.4688 94.401 41.5495 94.0781 41.7109 93.7656C41.8724 93.4531 42.1068 93.1745 42.4141 92.9297C42.7214 92.6849 43.0885 92.4922 43.5156 92.3516C43.9427 92.2109 44.4219 92.1406 44.9531 92.1406C45.5885 92.1406 46.151 92.2474 46.6406 92.4609C47.1354 92.6745 47.5234 92.9974 47.8047 93.4297C48.0911 93.8568 48.2344 94.3932 48.2344 95.0391V98.7969C48.2344 99.1823 48.2604 99.5286 48.3125 99.8359C48.3698 100.138 48.4505 100.401 48.5547 100.625V100.75H46.625C46.5365 100.547 46.4661 100.289 46.4141 99.9766C46.3672 99.6589 46.3438 99.3516 46.3438 99.0547ZM46.6172 95.6094L46.6328 96.7734H45.2812C44.9323 96.7734 44.625 96.8073 44.3594 96.875C44.0938 96.9375 43.8724 97.0312 43.6953 97.1562C43.5182 97.2812 43.3854 97.4323 43.2969 97.6094C43.2083 97.7865 43.1641 97.987 43.1641 98.2109C43.1641 98.4349 43.2161 98.6406 43.3203 98.8281C43.4245 99.0104 43.5755 99.1536 43.7734 99.2578C43.9766 99.362 44.2214 99.4141 44.5078 99.4141C44.8932 99.4141 45.2292 99.3359 45.5156 99.1797C45.8073 99.0182 46.0365 98.8229 46.2031 98.5938C46.3698 98.3594 46.4583 98.138 46.4688 97.9297L47.0781 98.7656C47.0156 98.9792 46.9089 99.2083 46.7578 99.4531C46.6068 99.6979 46.4089 99.9323 46.1641 100.156C45.9245 100.375 45.6354 100.555 45.2969 100.695C44.9635 100.836 44.5781 100.906 44.1406 100.906C43.5885 100.906 43.0964 100.797 42.6641 100.578C42.2318 100.354 41.8932 100.055 41.6484 99.6797C41.4036 99.2995 41.2812 98.8698 41.2812 98.3906C41.2812 97.9427 41.3646 97.5469 41.5312 97.2031C41.7031 96.8542 41.9531 96.5625 42.2812 96.3281C42.6146 96.0938 43.0208 95.9167 43.5 95.7969C43.9792 95.6719 44.526 95.6094 45.1406 95.6094H46.6172ZM52.0703 94.1016V100.75H50.1875V92.2969H51.9609L52.0703 94.1016ZM51.7344 96.2109L51.125 96.2031C51.1302 95.6042 51.2135 95.0547 51.375 94.5547C51.5417 94.0547 51.7708 93.625 52.0625 93.2656C52.3594 92.9062 52.7135 92.6302 53.125 92.4375C53.5365 92.2396 53.9948 92.1406 54.5 92.1406C54.9062 92.1406 55.2734 92.1979 55.6016 92.3125C55.9349 92.4219 56.2188 92.6016 56.4531 92.8516C56.6927 93.1016 56.875 93.4271 57 93.8281C57.125 94.224 57.1875 94.7109 57.1875 95.2891V100.75H55.2969V95.2812C55.2969 94.875 55.237 94.5547 55.1172 94.3203C55.0026 94.0807 54.8333 93.9115 54.6094 93.8125C54.3906 93.7083 54.1172 93.6562 53.7891 93.6562C53.4661 93.6562 53.1771 93.724 52.9219 93.8594C52.6667 93.9948 52.4505 94.1797 52.2734 94.4141C52.1016 94.6484 51.9688 94.9193 51.875 95.2266C51.7812 95.5339 51.7344 95.862 51.7344 96.2109ZM61.0078 88.75V100.75H59.1172V88.75H61.0078ZM66.2578 92.2969L62.5781 96.375L60.5625 98.4375L60.0703 96.8438L61.5938 94.9609L63.9844 92.2969H66.2578ZM64.3906 100.75L61.6484 96.7812L62.8359 95.4609L66.5703 100.75H64.3906ZM75.9297 89.375V100.75H73.9844V89.375H75.9297ZM79.5 89.375V90.9375H70.4453V89.375H79.5ZM82.1406 93.9062V100.75H80.2578V92.2969H82.0547L82.1406 93.9062ZM84.7266 92.2422L84.7109 93.9922C84.5964 93.9714 84.4714 93.9557 84.3359 93.9453C84.2057 93.9349 84.0755 93.9297 83.9453 93.9297C83.6224 93.9297 83.3385 93.9766 83.0938 94.0703C82.849 94.1589 82.6432 94.2891 82.4766 94.4609C82.3151 94.6276 82.1901 94.8307 82.1016 95.0703C82.013 95.3099 81.9609 95.5781 81.9453 95.875L81.5156 95.9062C81.5156 95.375 81.5677 94.8828 81.6719 94.4297C81.776 93.9766 81.9323 93.5781 82.1406 93.2344C82.3542 92.8906 82.6198 92.6224 82.9375 92.4297C83.2604 92.237 83.6328 92.1406 84.0547 92.1406C84.1693 92.1406 84.2917 92.151 84.4219 92.1719C84.5573 92.1927 84.6589 92.2161 84.7266 92.2422ZM90.3906 99.0547V95.0234C90.3906 94.7214 90.3359 94.4609 90.2266 94.2422C90.1172 94.0234 89.9505 93.8542 89.7266 93.7344C89.5078 93.6146 89.2318 93.5547 88.8984 93.5547C88.5911 93.5547 88.3255 93.6068 88.1016 93.7109C87.8776 93.8151 87.7031 93.9557 87.5781 94.1328C87.4531 94.3099 87.3906 94.5104 87.3906 94.7344H85.5156C85.5156 94.401 85.5964 94.0781 85.7578 93.7656C85.9193 93.4531 86.1536 93.1745 86.4609 92.9297C86.7682 92.6849 87.1354 92.4922 87.5625 92.3516C87.9896 92.2109 88.4688 92.1406 89 92.1406C89.6354 92.1406 90.1979 92.2474 90.6875 92.4609C91.1823 92.6745 91.5703 92.9974 91.8516 93.4297C92.138 93.8568 92.2812 94.3932 92.2812 95.0391V98.7969C92.2812 99.1823 92.3073 99.5286 92.3594 99.8359C92.4167 100.138 92.4974 100.401 92.6016 100.625V100.75H90.6719C90.5833 100.547 90.513 100.289 90.4609 99.9766C90.4141 99.6589 90.3906 99.3516 90.3906 99.0547ZM90.6641 95.6094L90.6797 96.7734H89.3281C88.9792 96.7734 88.6719 96.8073 88.4062 96.875C88.1406 96.9375 87.9193 97.0312 87.7422 97.1562C87.5651 97.2812 87.4323 97.4323 87.3438 97.6094C87.2552 97.7865 87.2109 97.987 87.2109 98.2109C87.2109 98.4349 87.263 98.6406 87.3672 98.8281C87.4714 99.0104 87.6224 99.1536 87.8203 99.2578C88.0234 99.362 88.2682 99.4141 88.5547 99.4141C88.9401 99.4141 89.276 99.3359 89.5625 99.1797C89.8542 99.0182 90.0833 98.8229 90.25 98.5938C90.4167 98.3594 90.5052 98.138 90.5156 97.9297L91.125 98.7656C91.0625 98.9792 90.9557 99.2083 90.8047 99.4531C90.6536 99.6979 90.4557 99.9323 90.2109 100.156C89.9714 100.375 89.6823 100.555 89.3438 100.695C89.0104 100.836 88.625 100.906 88.1875 100.906C87.6354 100.906 87.1432 100.797 86.7109 100.578C86.2786 100.354 85.9401 100.055 85.6953 99.6797C85.4505 99.2995 85.3281 98.8698 85.3281 98.3906C85.3281 97.9427 85.4115 97.5469 85.5781 97.2031C85.75 96.8542 86 96.5625 86.3281 96.3281C86.6615 96.0938 87.0677 95.9167 87.5469 95.7969C88.026 95.6719 88.5729 95.6094 89.1875 95.6094H90.6641ZM96.1172 94.1016V100.75H94.2344V92.2969H96.0078L96.1172 94.1016ZM95.7812 96.2109L95.1719 96.2031C95.1771 95.6042 95.2604 95.0547 95.4219 94.5547C95.5885 94.0547 95.8177 93.625 96.1094 93.2656C96.4062 92.9062 96.7604 92.6302 97.1719 92.4375C97.5833 92.2396 98.0417 92.1406 98.5469 92.1406C98.9531 92.1406 99.3203 92.1979 99.6484 92.3125C99.9818 92.4219 100.266 92.6016 100.5 92.8516C100.74 93.1016 100.922 93.4271 101.047 93.8281C101.172 94.224 101.234 94.7109 101.234 95.2891V100.75H99.3438V95.2812C99.3438 94.875 99.2839 94.5547 99.1641 94.3203C99.0495 94.0807 98.8802 93.9115 98.6562 93.8125C98.4375 93.7083 98.1641 93.6562 97.8359 93.6562C97.513 93.6562 97.224 93.724 96.9688 93.8594C96.7135 93.9948 96.4974 94.1797 96.3203 94.4141C96.1484 94.6484 96.0156 94.9193 95.9219 95.2266C95.8281 95.5339 95.7812 95.862 95.7812 96.2109ZM107.898 98.4609C107.898 98.2734 107.852 98.1042 107.758 97.9531C107.664 97.7969 107.484 97.6562 107.219 97.5312C106.958 97.4062 106.573 97.2917 106.062 97.1875C105.615 97.0885 105.203 96.9714 104.828 96.8359C104.458 96.6953 104.141 96.526 103.875 96.3281C103.609 96.1302 103.404 95.8958 103.258 95.625C103.112 95.3542 103.039 95.0417 103.039 94.6875C103.039 94.3438 103.115 94.0182 103.266 93.7109C103.417 93.4036 103.633 93.1328 103.914 92.8984C104.195 92.6641 104.536 92.4792 104.938 92.3438C105.344 92.2083 105.797 92.1406 106.297 92.1406C107.005 92.1406 107.612 92.2604 108.117 92.5C108.628 92.7344 109.018 93.0547 109.289 93.4609C109.56 93.862 109.695 94.3151 109.695 94.8203H107.812C107.812 94.5964 107.755 94.388 107.641 94.1953C107.531 93.9974 107.365 93.8385 107.141 93.7188C106.917 93.5938 106.635 93.5312 106.297 93.5312C105.974 93.5312 105.706 93.5833 105.492 93.6875C105.284 93.7865 105.128 93.9167 105.023 94.0781C104.924 94.2396 104.875 94.4167 104.875 94.6094C104.875 94.75 104.901 94.8776 104.953 94.9922C105.01 95.1016 105.104 95.2031 105.234 95.2969C105.365 95.3854 105.542 95.4688 105.766 95.5469C105.995 95.625 106.281 95.7005 106.625 95.7734C107.271 95.9089 107.826 96.0833 108.289 96.2969C108.758 96.5052 109.117 96.776 109.367 97.1094C109.617 97.4375 109.742 97.8542 109.742 98.3594C109.742 98.7344 109.661 99.0781 109.5 99.3906C109.344 99.6979 109.115 99.9661 108.812 100.195C108.51 100.419 108.148 100.594 107.727 100.719C107.31 100.844 106.841 100.906 106.32 100.906C105.555 100.906 104.906 100.771 104.375 100.5C103.844 100.224 103.44 99.8724 103.164 99.4453C102.893 99.013 102.758 98.5651 102.758 98.1016H104.578C104.599 98.4505 104.695 98.7292 104.867 98.9375C105.044 99.1406 105.263 99.2891 105.523 99.3828C105.789 99.4714 106.062 99.5156 106.344 99.5156C106.682 99.5156 106.966 99.4714 107.195 99.3828C107.424 99.2891 107.599 99.1641 107.719 99.0078C107.839 98.8464 107.898 98.6641 107.898 98.4609ZM113.938 100.75H112.055V91.4844C112.055 90.8542 112.172 90.3255 112.406 89.8984C112.646 89.4661 112.987 89.1406 113.43 88.9219C113.872 88.6979 114.396 88.5859 115 88.5859C115.188 88.5859 115.372 88.599 115.555 88.625C115.737 88.6458 115.914 88.6797 116.086 88.7266L116.039 90.1797C115.935 90.1536 115.82 90.1354 115.695 90.125C115.576 90.1146 115.445 90.1094 115.305 90.1094C115.018 90.1094 114.771 90.1641 114.562 90.2734C114.359 90.3776 114.203 90.5312 114.094 90.7344C113.99 90.9375 113.938 91.1875 113.938 91.4844V100.75ZM115.68 92.2969V93.6719H110.758V92.2969H115.68ZM120.586 100.906C119.961 100.906 119.396 100.805 118.891 100.602C118.391 100.393 117.964 100.104 117.609 99.7344C117.26 99.3646 116.992 98.9297 116.805 98.4297C116.617 97.9297 116.523 97.3906 116.523 96.8125V96.5C116.523 95.8385 116.62 95.2396 116.812 94.7031C117.005 94.1667 117.273 93.7083 117.617 93.3281C117.961 92.9427 118.367 92.6484 118.836 92.4453C119.305 92.2422 119.812 92.1406 120.359 92.1406C120.964 92.1406 121.492 92.2422 121.945 92.4453C122.398 92.6484 122.773 92.9349 123.07 93.3047C123.372 93.6693 123.596 94.1042 123.742 94.6094C123.893 95.1146 123.969 95.6719 123.969 96.2812V97.0859H117.438V95.7344H122.109V95.5859C122.099 95.2474 122.031 94.9297 121.906 94.6328C121.786 94.3359 121.602 94.0964 121.352 93.9141C121.102 93.7318 120.768 93.6406 120.352 93.6406C120.039 93.6406 119.76 93.7083 119.516 93.8438C119.276 93.974 119.076 94.1641 118.914 94.4141C118.753 94.6641 118.628 94.9661 118.539 95.3203C118.456 95.6693 118.414 96.0625 118.414 96.5V96.8125C118.414 97.1823 118.464 97.526 118.562 97.8438C118.667 98.1562 118.818 98.4297 119.016 98.6641C119.214 98.8984 119.453 99.0833 119.734 99.2188C120.016 99.349 120.336 99.4141 120.695 99.4141C121.148 99.4141 121.552 99.3229 121.906 99.1406C122.26 98.9583 122.568 98.7005 122.828 98.3672L123.82 99.3281C123.638 99.5938 123.401 99.849 123.109 100.094C122.818 100.333 122.461 100.529 122.039 100.68C121.622 100.831 121.138 100.906 120.586 100.906ZM127.328 93.9062V100.75H125.445V92.2969H127.242L127.328 93.9062ZM129.914 92.2422L129.898 93.9922C129.784 93.9714 129.659 93.9557 129.523 93.9453C129.393 93.9349 129.263 93.9297 129.133 93.9297C128.81 93.9297 128.526 93.9766 128.281 94.0703C128.036 94.1589 127.831 94.2891 127.664 94.4609C127.503 94.6276 127.378 94.8307 127.289 95.0703C127.201 95.3099 127.148 95.5781 127.133 95.875L126.703 95.9062C126.703 95.375 126.755 94.8828 126.859 94.4297C126.964 93.9766 127.12 93.5781 127.328 93.2344C127.542 92.8906 127.807 92.6224 128.125 92.4297C128.448 92.237 128.82 92.1406 129.242 92.1406C129.357 92.1406 129.479 92.151 129.609 92.1719C129.745 92.1927 129.846 92.2161 129.914 92.2422Z" fill="#011B33"/>
<g clip-path="url(#clip2_16_1299)">
<path fill-rule="evenodd" clip-rule="evenodd" d="M24.5008 91.9862C24.5008 92.1797 24.4233 92.3733 24.284 92.5127L17.6255 99.1712C17.4861 99.3105 17.2926 99.3879 17.099 99.3879C16.9054 99.3879 16.7119 99.3105 16.5725 99.1712L12.7168 95.3154C12.5774 95.1761 12.5 94.9825 12.5 94.7889C12.5 94.5954 12.5774 94.4018 12.7168 94.2625L13.7698 93.2095C13.9091 93.0701 14.1027 92.9927 14.2962 92.9927C14.4898 92.9927 14.6834 93.0701 14.8227 93.2095L17.099 95.4935L22.178 90.4067C22.3174 90.2674 22.511 90.1899 22.7045 90.1899C22.8981 90.1899 23.0916 90.2674 23.231 90.4067L24.284 91.4597C24.4233 91.5991 24.5008 91.7926 24.5008 91.9862Z" fill="#3BB75E"/>
</g>
<rect x="0.5" y="117.75" width="40" height="35" rx="6" fill="#F1FEF4"/>
<path d="M38.0391 128.375H39.9922V135.977C39.9922 136.841 39.8047 137.565 39.4297 138.148C39.0547 138.732 38.5443 139.172 37.8984 139.469C37.2578 139.76 36.5417 139.906 35.75 139.906C34.9323 139.906 34.2031 139.76 33.5625 139.469C32.9219 139.172 32.4167 138.732 32.0469 138.148C31.6823 137.565 31.5 136.841 31.5 135.977V128.375H33.4531V135.977C33.4531 136.523 33.5469 136.974 33.7344 137.328C33.9219 137.677 34.1875 137.935 34.5312 138.102C34.875 138.268 35.2812 138.352 35.75 138.352C36.2188 138.352 36.6224 138.268 36.9609 138.102C37.3047 137.935 37.5703 137.677 37.7578 137.328C37.9453 136.974 38.0391 136.523 38.0391 135.977V128.375ZM48.1094 136.82C48.1094 136.586 48.0729 136.378 48 136.195C47.9323 136.013 47.8099 135.846 47.6328 135.695C47.4557 135.544 47.2057 135.398 46.8828 135.258C46.5651 135.112 46.1589 134.964 45.6641 134.812C45.1224 134.646 44.6224 134.461 44.1641 134.258C43.7109 134.049 43.3151 133.81 42.9766 133.539C42.638 133.263 42.375 132.948 42.1875 132.594C42 132.234 41.9062 131.82 41.9062 131.352C41.9062 130.888 42.0026 130.466 42.1953 130.086C42.3932 129.706 42.6719 129.378 43.0312 129.102C43.3958 128.82 43.8255 128.604 44.3203 128.453C44.8151 128.297 45.362 128.219 45.9609 128.219C46.8047 128.219 47.5312 128.375 48.1406 128.688C48.7552 129 49.2266 129.419 49.5547 129.945C49.888 130.471 50.0547 131.052 50.0547 131.688H48.1094C48.1094 131.312 48.0286 130.982 47.8672 130.695C47.7109 130.404 47.4714 130.174 47.1484 130.008C46.8307 129.841 46.4271 129.758 45.9375 129.758C45.474 129.758 45.0885 129.828 44.7812 129.969C44.474 130.109 44.2448 130.299 44.0938 130.539C43.9427 130.779 43.8672 131.049 43.8672 131.352C43.8672 131.565 43.9167 131.76 44.0156 131.938C44.1146 132.109 44.2656 132.271 44.4688 132.422C44.6719 132.568 44.9271 132.706 45.2344 132.836C45.5417 132.966 45.9036 133.091 46.3203 133.211C46.9505 133.398 47.5 133.607 47.9688 133.836C48.4375 134.06 48.8281 134.315 49.1406 134.602C49.4531 134.888 49.6875 135.214 49.8438 135.578C50 135.938 50.0781 136.346 50.0781 136.805C50.0781 137.284 49.9818 137.716 49.7891 138.102C49.5964 138.482 49.3203 138.807 48.9609 139.078C48.6068 139.344 48.1797 139.549 47.6797 139.695C47.1849 139.836 46.6328 139.906 46.0234 139.906C45.4766 139.906 44.9375 139.833 44.4062 139.688C43.8802 139.542 43.401 139.32 42.9688 139.023C42.5365 138.721 42.1927 138.346 41.9375 137.898C41.6823 137.445 41.5547 136.917 41.5547 136.312H43.5156C43.5156 136.682 43.5781 136.997 43.7031 137.258C43.8333 137.518 44.013 137.732 44.2422 137.898C44.4714 138.06 44.737 138.18 45.0391 138.258C45.3464 138.336 45.6745 138.375 46.0234 138.375C46.4818 138.375 46.8646 138.31 47.1719 138.18C47.4844 138.049 47.7188 137.867 47.875 137.633C48.0312 137.398 48.1094 137.128 48.1094 136.82ZM57.7969 136.82C57.7969 136.586 57.7604 136.378 57.6875 136.195C57.6198 136.013 57.4974 135.846 57.3203 135.695C57.1432 135.544 56.8932 135.398 56.5703 135.258C56.2526 135.112 55.8464 134.964 55.3516 134.812C54.8099 134.646 54.3099 134.461 53.8516 134.258C53.3984 134.049 53.0026 133.81 52.6641 133.539C52.3255 133.263 52.0625 132.948 51.875 132.594C51.6875 132.234 51.5938 131.82 51.5938 131.352C51.5938 130.888 51.6901 130.466 51.8828 130.086C52.0807 129.706 52.3594 129.378 52.7188 129.102C53.0833 128.82 53.513 128.604 54.0078 128.453C54.5026 128.297 55.0495 128.219 55.6484 128.219C56.4922 128.219 57.2188 128.375 57.8281 128.688C58.4427 129 58.9141 129.419 59.2422 129.945C59.5755 130.471 59.7422 131.052 59.7422 131.688H57.7969C57.7969 131.312 57.7161 130.982 57.5547 130.695C57.3984 130.404 57.1589 130.174 56.8359 130.008C56.5182 129.841 56.1146 129.758 55.625 129.758C55.1615 129.758 54.776 129.828 54.4688 129.969C54.1615 130.109 53.9323 130.299 53.7812 130.539C53.6302 130.779 53.5547 131.049 53.5547 131.352C53.5547 131.565 53.6042 131.76 53.7031 131.938C53.8021 132.109 53.9531 132.271 54.1562 132.422C54.3594 132.568 54.6146 132.706 54.9219 132.836C55.2292 132.966 55.5911 133.091 56.0078 133.211C56.638 133.398 57.1875 133.607 57.6562 133.836C58.125 134.06 58.5156 134.315 58.8281 134.602C59.1406 134.888 59.375 135.214 59.5312 135.578C59.6875 135.938 59.7656 136.346 59.7656 136.805C59.7656 137.284 59.6693 137.716 59.4766 138.102C59.2839 138.482 59.0078 138.807 58.6484 139.078C58.2943 139.344 57.8672 139.549 57.3672 139.695C56.8724 139.836 56.3203 139.906 55.7109 139.906C55.1641 139.906 54.625 139.833 54.0938 139.688C53.5677 139.542 53.0885 139.32 52.6562 139.023C52.224 138.721 51.8802 138.346 51.625 137.898C51.3698 137.445 51.2422 136.917 51.2422 136.312H53.2031C53.2031 136.682 53.2656 136.997 53.3906 137.258C53.5208 137.518 53.7005 137.732 53.9297 137.898C54.1589 138.06 54.4245 138.18 54.7266 138.258C55.0339 138.336 55.362 138.375 55.7109 138.375C56.1693 138.375 56.5521 138.31 56.8594 138.18C57.1719 138.049 57.4062 137.867 57.5625 137.633C57.7188 137.398 57.7969 137.128 57.7969 136.82ZM64.8047 139.75H62.375L62.3906 138.195H64.8047C65.5078 138.195 66.0964 138.042 66.5703 137.734C67.0495 137.427 67.4089 136.987 67.6484 136.414C67.8932 135.841 68.0156 135.159 68.0156 134.367V133.75C68.0156 133.135 67.9453 132.591 67.8047 132.117C67.6693 131.643 67.4661 131.245 67.1953 130.922C66.9297 130.599 66.6016 130.354 66.2109 130.188C65.8255 130.021 65.3802 129.938 64.875 129.938H62.3281V128.375H64.875C65.6302 128.375 66.3203 128.503 66.9453 128.758C67.5703 129.008 68.1094 129.37 68.5625 129.844C69.0208 130.318 69.3724 130.885 69.6172 131.547C69.862 132.208 69.9844 132.948 69.9844 133.766V134.367C69.9844 135.185 69.862 135.924 69.6172 136.586C69.3724 137.247 69.0208 137.815 68.5625 138.289C68.1042 138.758 67.5573 139.12 66.9219 139.375C66.2917 139.625 65.5859 139.75 64.8047 139.75ZM63.4609 128.375V139.75H61.5V128.375H63.4609Z" fill="#011B33"/>
<g clip-path="url(#clip3_16_1299)">
<path fill-rule="evenodd" clip-rule="evenodd" d="M24.5008 130.986C24.5008 131.18 24.4233 131.373 24.284 131.513L17.6255 138.171C17.4861 138.311 17.2926 138.388 17.099 138.388C16.9054 138.388 16.7119 138.311 16.5725 138.171L12.7168 134.315C12.5774 134.176 12.5 133.983 12.5 133.789C12.5 133.595 12.5774 133.402 12.7168 133.262L13.7698 132.209C13.9091 132.07 14.1027 131.993 14.2962 131.993C14.4898 131.993 14.6834 132.07 14.8227 132.209L17.099 134.494L22.178 129.407C22.3174 129.267 22.511 129.19 22.7045 129.19C22.8981 129.19 23.0916 129.267 23.231 129.407L24.284 130.46C24.4233 130.599 24.5008 130.793 24.5008 130.986Z" fill="#3BB75E"/>
</g>
<rect x="260.5" y="0.75" width="40" height="35" rx="6" fill="#F1FEF4"/>
<path d="M296.086 12.8906L292.688 22.75H290.633L294.914 11.375H296.227L296.086 12.8906ZM298.93 22.75L295.523 12.8906L295.375 11.375H296.695L300.992 22.75H298.93ZM298.766 18.5312V20.0859H292.578V18.5312H298.766ZM303.828 15.9219V26H301.945V14.2969H303.68L303.828 15.9219ZM309.336 18.4453V18.6094C309.336 19.224 309.263 19.7943 309.117 20.3203C308.977 20.8411 308.766 21.2969 308.484 21.6875C308.208 22.0729 307.867 22.3724 307.461 22.5859C307.055 22.7995 306.586 22.9062 306.055 22.9062C305.529 22.9062 305.068 22.8099 304.672 22.6172C304.281 22.4193 303.951 22.1406 303.68 21.7812C303.409 21.4219 303.19 21 303.023 20.5156C302.862 20.026 302.747 19.4896 302.68 18.9062V18.2734C302.747 17.6536 302.862 17.0911 303.023 16.5859C303.19 16.0807 303.409 15.6458 303.68 15.2812C303.951 14.9167 304.281 14.6354 304.672 14.4375C305.062 14.2396 305.518 14.1406 306.039 14.1406C306.57 14.1406 307.042 14.2448 307.453 14.4531C307.865 14.6562 308.211 14.9479 308.492 15.3281C308.773 15.7031 308.984 16.1562 309.125 16.6875C309.266 17.2135 309.336 17.7995 309.336 18.4453ZM307.453 18.6094V18.4453C307.453 18.0547 307.417 17.6927 307.344 17.3594C307.271 17.0208 307.156 16.724 307 16.4688C306.844 16.2135 306.643 16.0156 306.398 15.875C306.159 15.7292 305.87 15.6562 305.531 15.6562C305.198 15.6562 304.911 15.7135 304.672 15.8281C304.432 15.9375 304.232 16.0911 304.07 16.2891C303.909 16.487 303.784 16.7188 303.695 16.9844C303.607 17.2448 303.544 17.5286 303.508 17.8359V19.3516C303.57 19.7266 303.677 20.0703 303.828 20.3828C303.979 20.6953 304.193 20.9453 304.469 21.1328C304.75 21.3151 305.109 21.4062 305.547 21.4062C305.885 21.4062 306.174 21.3333 306.414 21.1875C306.654 21.0417 306.849 20.8411 307 20.5859C307.156 20.3255 307.271 20.026 307.344 19.6875C307.417 19.349 307.453 18.9896 307.453 18.6094ZM312.828 15.9219V26H310.945V14.2969H312.68L312.828 15.9219ZM318.336 18.4453V18.6094C318.336 19.224 318.263 19.7943 318.117 20.3203C317.977 20.8411 317.766 21.2969 317.484 21.6875C317.208 22.0729 316.867 22.3724 316.461 22.5859C316.055 22.7995 315.586 22.9062 315.055 22.9062C314.529 22.9062 314.068 22.8099 313.672 22.6172C313.281 22.4193 312.951 22.1406 312.68 21.7812C312.409 21.4219 312.19 21 312.023 20.5156C311.862 20.026 311.747 19.4896 311.68 18.9062V18.2734C311.747 17.6536 311.862 17.0911 312.023 16.5859C312.19 16.0807 312.409 15.6458 312.68 15.2812C312.951 14.9167 313.281 14.6354 313.672 14.4375C314.062 14.2396 314.518 14.1406 315.039 14.1406C315.57 14.1406 316.042 14.2448 316.453 14.4531C316.865 14.6562 317.211 14.9479 317.492 15.3281C317.773 15.7031 317.984 16.1562 318.125 16.6875C318.266 17.2135 318.336 17.7995 318.336 18.4453ZM316.453 18.6094V18.4453C316.453 18.0547 316.417 17.6927 316.344 17.3594C316.271 17.0208 316.156 16.724 316 16.4688C315.844 16.2135 315.643 16.0156 315.398 15.875C315.159 15.7292 314.87 15.6562 314.531 15.6562C314.198 15.6562 313.911 15.7135 313.672 15.8281C313.432 15.9375 313.232 16.0911 313.07 16.2891C312.909 16.487 312.784 16.7188 312.695 16.9844C312.607 17.2448 312.544 17.5286 312.508 17.8359V19.3516C312.57 19.7266 312.677 20.0703 312.828 20.3828C312.979 20.6953 313.193 20.9453 313.469 21.1328C313.75 21.3151 314.109 21.4062 314.547 21.4062C314.885 21.4062 315.174 21.3333 315.414 21.1875C315.654 21.0417 315.849 20.8411 316 20.5859C316.156 20.3255 316.271 20.026 316.344 19.6875C316.417 19.349 316.453 18.9896 316.453 18.6094ZM321.953 10.75V22.75H320.062V10.75H321.953ZM327.742 22.9062C327.117 22.9062 326.552 22.8047 326.047 22.6016C325.547 22.3932 325.12 22.1042 324.766 21.7344C324.417 21.3646 324.148 20.9297 323.961 20.4297C323.773 19.9297 323.68 19.3906 323.68 18.8125V18.5C323.68 17.8385 323.776 17.2396 323.969 16.7031C324.161 16.1667 324.43 15.7083 324.773 15.3281C325.117 14.9427 325.523 14.6484 325.992 14.4453C326.461 14.2422 326.969 14.1406 327.516 14.1406C328.12 14.1406 328.648 14.2422 329.102 14.4453C329.555 14.6484 329.93 14.9349 330.227 15.3047C330.529 15.6693 330.753 16.1042 330.898 16.6094C331.049 17.1146 331.125 17.6719 331.125 18.2812V19.0859H324.594V17.7344H329.266V17.5859C329.255 17.2474 329.188 16.9297 329.062 16.6328C328.943 16.3359 328.758 16.0964 328.508 15.9141C328.258 15.7318 327.924 15.6406 327.508 15.6406C327.195 15.6406 326.917 15.7083 326.672 15.8438C326.432 15.974 326.232 16.1641 326.07 16.4141C325.909 16.6641 325.784 16.9661 325.695 17.3203C325.612 17.6693 325.57 18.0625 325.57 18.5V18.8125C325.57 19.1823 325.62 19.526 325.719 19.8438C325.823 20.1562 325.974 20.4297 326.172 20.6641C326.37 20.8984 326.609 21.0833 326.891 21.2188C327.172 21.349 327.492 21.4141 327.852 21.4141C328.305 21.4141 328.708 21.3229 329.062 21.1406C329.417 20.9583 329.724 20.7005 329.984 20.3672L330.977 21.3281C330.794 21.5938 330.557 21.849 330.266 22.0938C329.974 22.3333 329.617 22.5286 329.195 22.6797C328.779 22.8307 328.294 22.9062 327.742 22.9062ZM341.086 18.5078H338.125V16.9531H341.086C341.602 16.9531 342.018 16.8698 342.336 16.7031C342.654 16.5365 342.885 16.3073 343.031 16.0156C343.182 15.7188 343.258 15.3802 343.258 15C343.258 14.6406 343.182 14.3047 343.031 13.9922C342.885 13.6745 342.654 13.4193 342.336 13.2266C342.018 13.0339 341.602 12.9375 341.086 12.9375H338.727V22.75H336.766V11.375H341.086C341.966 11.375 342.714 11.5312 343.328 11.8438C343.948 12.151 344.419 12.5781 344.742 13.125C345.065 13.6667 345.227 14.2865 345.227 14.9844C345.227 15.7188 345.065 16.349 344.742 16.875C344.419 17.401 343.948 17.8047 343.328 18.0859C342.714 18.3672 341.966 18.5078 341.086 18.5078ZM351.469 21.0547V17.0234C351.469 16.7214 351.414 16.4609 351.305 16.2422C351.195 16.0234 351.029 15.8542 350.805 15.7344C350.586 15.6146 350.31 15.5547 349.977 15.5547C349.669 15.5547 349.404 15.6068 349.18 15.7109C348.956 15.8151 348.781 15.9557 348.656 16.1328C348.531 16.3099 348.469 16.5104 348.469 16.7344H346.594C346.594 16.401 346.674 16.0781 346.836 15.7656C346.997 15.4531 347.232 15.1745 347.539 14.9297C347.846 14.6849 348.214 14.4922 348.641 14.3516C349.068 14.2109 349.547 14.1406 350.078 14.1406C350.714 14.1406 351.276 14.2474 351.766 14.4609C352.26 14.6745 352.648 14.9974 352.93 15.4297C353.216 15.8568 353.359 16.3932 353.359 17.0391V20.7969C353.359 21.1823 353.385 21.5286 353.438 21.8359C353.495 22.138 353.576 22.401 353.68 22.625V22.75H351.75C351.661 22.5469 351.591 22.2891 351.539 21.9766C351.492 21.6589 351.469 21.3516 351.469 21.0547ZM351.742 17.6094L351.758 18.7734H350.406C350.057 18.7734 349.75 18.8073 349.484 18.875C349.219 18.9375 348.997 19.0312 348.82 19.1562C348.643 19.2812 348.51 19.4323 348.422 19.6094C348.333 19.7865 348.289 19.987 348.289 20.2109C348.289 20.4349 348.341 20.6406 348.445 20.8281C348.549 21.0104 348.701 21.1536 348.898 21.2578C349.102 21.362 349.346 21.4141 349.633 21.4141C350.018 21.4141 350.354 21.3359 350.641 21.1797C350.932 21.0182 351.161 20.8229 351.328 20.5938C351.495 20.3594 351.583 20.138 351.594 19.9297L352.203 20.7656C352.141 20.9792 352.034 21.2083 351.883 21.4531C351.732 21.6979 351.534 21.9323 351.289 22.1562C351.049 22.375 350.76 22.5547 350.422 22.6953C350.089 22.8359 349.703 22.9062 349.266 22.9062C348.714 22.9062 348.221 22.7969 347.789 22.5781C347.357 22.3542 347.018 22.0547 346.773 21.6797C346.529 21.2995 346.406 20.8698 346.406 20.3906C346.406 19.9427 346.49 19.5469 346.656 19.2031C346.828 18.8542 347.078 18.5625 347.406 18.3281C347.74 18.0938 348.146 17.9167 348.625 17.7969C349.104 17.6719 349.651 17.6094 350.266 17.6094H351.742ZM357.656 21.8281L359.953 14.2969H361.969L358.578 24.0391C358.5 24.2474 358.398 24.474 358.273 24.7188C358.148 24.9635 357.984 25.1953 357.781 25.4141C357.583 25.638 357.336 25.8177 357.039 25.9531C356.742 26.0938 356.383 26.1641 355.961 26.1641C355.794 26.1641 355.633 26.1484 355.477 26.1172C355.326 26.0911 355.182 26.0625 355.047 26.0312L355.039 24.5938C355.091 24.599 355.154 24.6042 355.227 24.6094C355.305 24.6146 355.367 24.6172 355.414 24.6172C355.727 24.6172 355.987 24.5781 356.195 24.5C356.404 24.4271 356.573 24.3073 356.703 24.1406C356.839 23.974 356.953 23.75 357.047 23.4688L357.656 21.8281ZM356.359 14.2969L358.367 20.625L358.703 22.6094L357.398 22.9453L354.328 14.2969H356.359Z" fill="#011B33"/>
<g clip-path="url(#clip4_16_1299)">
<path fill-rule="evenodd" clip-rule="evenodd" d="M284.501 13.9862C284.501 14.1797 284.423 14.3733 284.284 14.5127L277.625 21.1712C277.486 21.3105 277.293 21.3879 277.099 21.3879C276.905 21.3879 276.712 21.3105 276.573 21.1712L272.717 17.3154C272.577 17.1761 272.5 16.9825 272.5 16.7889C272.5 16.5954 272.577 16.4018 272.717 16.2625L273.77 15.2095C273.909 15.0701 274.103 14.9927 274.296 14.9927C274.49 14.9927 274.683 15.0701 274.823 15.2095L277.099 17.4935L282.178 12.4067C282.317 12.2674 282.511 12.1899 282.705 12.1899C282.898 12.1899 283.092 12.2674 283.231 12.4067L284.284 13.4597C284.423 13.5991 284.501 13.7926 284.501 13.9862Z" fill="#3BB75E"/>
</g>
<rect x="260.5" y="39.75" width="40" height="35" rx="6" fill="#F1FEF4"/>
<path d="M295.555 59.6719L298.547 50.375H300.711L296.633 61.75H295.172L295.555 59.6719ZM292.789 50.375L295.758 59.6719L296.164 61.75H294.695L290.633 50.375H292.789ZM303.812 53.2969V61.75H301.922V53.2969H303.812ZM301.797 51.0781C301.797 50.7917 301.891 50.5547 302.078 50.3672C302.271 50.1745 302.536 50.0781 302.875 50.0781C303.208 50.0781 303.471 50.1745 303.664 50.3672C303.857 50.5547 303.953 50.7917 303.953 51.0781C303.953 51.3594 303.857 51.5938 303.664 51.7812C303.471 51.9688 303.208 52.0625 302.875 52.0625C302.536 52.0625 302.271 51.9688 302.078 51.7812C301.891 51.5938 301.797 51.3594 301.797 51.0781ZM310.617 59.4609C310.617 59.2734 310.57 59.1042 310.477 58.9531C310.383 58.7969 310.203 58.6562 309.938 58.5312C309.677 58.4062 309.292 58.2917 308.781 58.1875C308.333 58.0885 307.922 57.9714 307.547 57.8359C307.177 57.6953 306.859 57.526 306.594 57.3281C306.328 57.1302 306.122 56.8958 305.977 56.625C305.831 56.3542 305.758 56.0417 305.758 55.6875C305.758 55.3438 305.833 55.0182 305.984 54.7109C306.135 54.4036 306.352 54.1328 306.633 53.8984C306.914 53.6641 307.255 53.4792 307.656 53.3438C308.062 53.2083 308.516 53.1406 309.016 53.1406C309.724 53.1406 310.331 53.2604 310.836 53.5C311.346 53.7344 311.737 54.0547 312.008 54.4609C312.279 54.862 312.414 55.3151 312.414 55.8203H310.531C310.531 55.5964 310.474 55.388 310.359 55.1953C310.25 54.9974 310.083 54.8385 309.859 54.7188C309.635 54.5938 309.354 54.5312 309.016 54.5312C308.693 54.5312 308.424 54.5833 308.211 54.6875C308.003 54.7865 307.846 54.9167 307.742 55.0781C307.643 55.2396 307.594 55.4167 307.594 55.6094C307.594 55.75 307.62 55.8776 307.672 55.9922C307.729 56.1016 307.823 56.2031 307.953 56.2969C308.083 56.3854 308.26 56.4688 308.484 56.5469C308.714 56.625 309 56.7005 309.344 56.7734C309.99 56.9089 310.544 57.0833 311.008 57.2969C311.477 57.5052 311.836 57.776 312.086 58.1094C312.336 58.4375 312.461 58.8542 312.461 59.3594C312.461 59.7344 312.38 60.0781 312.219 60.3906C312.062 60.6979 311.833 60.9661 311.531 61.1953C311.229 61.4193 310.867 61.5938 310.445 61.7188C310.029 61.8438 309.56 61.9062 309.039 61.9062C308.273 61.9062 307.625 61.7708 307.094 61.5C306.562 61.224 306.159 60.8724 305.883 60.4453C305.612 60.013 305.477 59.5651 305.477 59.1016H307.297C307.318 59.4505 307.414 59.7292 307.586 59.9375C307.763 60.1406 307.982 60.2891 308.242 60.3828C308.508 60.4714 308.781 60.5156 309.062 60.5156C309.401 60.5156 309.685 60.4714 309.914 60.3828C310.143 60.2891 310.318 60.1641 310.438 60.0078C310.557 59.8464 310.617 59.6641 310.617 59.4609ZM318.875 60.0547V56.0234C318.875 55.7214 318.82 55.4609 318.711 55.2422C318.602 55.0234 318.435 54.8542 318.211 54.7344C317.992 54.6146 317.716 54.5547 317.383 54.5547C317.076 54.5547 316.81 54.6068 316.586 54.7109C316.362 54.8151 316.188 54.9557 316.062 55.1328C315.938 55.3099 315.875 55.5104 315.875 55.7344H314C314 55.401 314.081 55.0781 314.242 54.7656C314.404 54.4531 314.638 54.1745 314.945 53.9297C315.253 53.6849 315.62 53.4922 316.047 53.3516C316.474 53.2109 316.953 53.1406 317.484 53.1406C318.12 53.1406 318.682 53.2474 319.172 53.4609C319.667 53.6745 320.055 53.9974 320.336 54.4297C320.622 54.8568 320.766 55.3932 320.766 56.0391V59.7969C320.766 60.1823 320.792 60.5286 320.844 60.8359C320.901 61.138 320.982 61.401 321.086 61.625V61.75H319.156C319.068 61.5469 318.997 61.2891 318.945 60.9766C318.898 60.6589 318.875 60.3516 318.875 60.0547ZM319.148 56.6094L319.164 57.7734H317.812C317.464 57.7734 317.156 57.8073 316.891 57.875C316.625 57.9375 316.404 58.0312 316.227 58.1562C316.049 58.2812 315.917 58.4323 315.828 58.6094C315.74 58.7865 315.695 58.987 315.695 59.2109C315.695 59.4349 315.747 59.6406 315.852 59.8281C315.956 60.0104 316.107 60.1536 316.305 60.2578C316.508 60.362 316.753 60.4141 317.039 60.4141C317.424 60.4141 317.76 60.3359 318.047 60.1797C318.339 60.0182 318.568 59.8229 318.734 59.5938C318.901 59.3594 318.99 59.138 319 58.9297L319.609 59.7656C319.547 59.9792 319.44 60.2083 319.289 60.4531C319.138 60.6979 318.94 60.9323 318.695 61.1562C318.456 61.375 318.167 61.5547 317.828 61.6953C317.495 61.8359 317.109 61.9062 316.672 61.9062C316.12 61.9062 315.628 61.7969 315.195 61.5781C314.763 61.3542 314.424 61.0547 314.18 60.6797C313.935 60.2995 313.812 59.8698 313.812 59.3906C313.812 58.9427 313.896 58.5469 314.062 58.2031C314.234 57.8542 314.484 57.5625 314.812 57.3281C315.146 57.0938 315.552 56.9167 316.031 56.7969C316.51 56.6719 317.057 56.6094 317.672 56.6094H319.148ZM332.93 60.2344L335.922 62.6094L334.648 63.7266L331.711 61.375L332.93 60.2344ZM335.945 55.75V56.375C335.945 57.2344 335.833 58.0052 335.609 58.6875C335.385 59.3698 335.065 59.9505 334.648 60.4297C334.232 60.9089 333.734 61.276 333.156 61.5312C332.578 61.7812 331.938 61.9062 331.234 61.9062C330.536 61.9062 329.898 61.7812 329.32 61.5312C328.747 61.276 328.25 60.9089 327.828 60.4297C327.406 59.9505 327.078 59.3698 326.844 58.6875C326.615 58.0052 326.5 57.2344 326.5 56.375V55.75C326.5 54.8906 326.615 54.1224 326.844 53.4453C327.073 52.763 327.396 52.1823 327.812 51.7031C328.234 51.2188 328.732 50.8516 329.305 50.6016C329.883 50.3464 330.521 50.2188 331.219 50.2188C331.922 50.2188 332.562 50.3464 333.141 50.6016C333.724 50.8516 334.224 51.2188 334.641 51.7031C335.057 52.1823 335.378 52.763 335.602 53.4453C335.831 54.1224 335.945 54.8906 335.945 55.75ZM333.977 56.375V55.7344C333.977 55.099 333.914 54.5391 333.789 54.0547C333.669 53.5651 333.49 53.1562 333.25 52.8281C333.016 52.4948 332.727 52.2448 332.383 52.0781C332.044 51.9062 331.656 51.8203 331.219 51.8203C330.792 51.8203 330.409 51.9062 330.07 52.0781C329.732 52.2448 329.443 52.4948 329.203 52.8281C328.964 53.1562 328.781 53.5651 328.656 54.0547C328.531 54.5391 328.469 55.099 328.469 55.7344V56.375C328.469 57.0104 328.531 57.5729 328.656 58.0625C328.781 58.5521 328.964 58.9661 329.203 59.3047C329.448 59.638 329.74 59.8906 330.078 60.0625C330.422 60.2292 330.807 60.3125 331.234 60.3125C331.672 60.3125 332.06 60.2292 332.398 60.0625C332.737 59.8906 333.023 59.638 333.258 59.3047C333.492 58.9661 333.669 58.5521 333.789 58.0625C333.914 57.5729 333.977 57.0104 333.977 56.375ZM337.938 50.375H341.961C342.826 50.375 343.562 50.5052 344.172 50.7656C344.781 51.026 345.247 51.4115 345.57 51.9219C345.898 52.4271 346.062 53.0521 346.062 53.7969C346.062 54.3646 345.958 54.8646 345.75 55.2969C345.542 55.7292 345.247 56.0938 344.867 56.3906C344.487 56.6823 344.034 56.9089 343.508 57.0703L342.914 57.3594H339.297L339.281 55.8047H341.992C342.461 55.8047 342.852 55.7214 343.164 55.5547C343.477 55.388 343.711 55.1615 343.867 54.875C344.029 54.5833 344.109 54.2552 344.109 53.8906C344.109 53.4948 344.031 53.151 343.875 52.8594C343.724 52.5625 343.49 52.3359 343.172 52.1797C342.854 52.0182 342.451 51.9375 341.961 51.9375H339.898V61.75H337.938V50.375ZM344.43 61.75L341.758 56.6406L343.812 56.6328L346.523 61.6484V61.75H344.43Z" fill="#011B33"/>
<g clip-path="url(#clip5_16_1299)">
<path fill-rule="evenodd" clip-rule="evenodd" d="M284.501 52.9862C284.501 53.1797 284.423 53.3733 284.284 53.5127L277.625 60.1712C277.486 60.3105 277.293 60.3879 277.099 60.3879C276.905 60.3879 276.712 60.3105 276.573 60.1712L272.717 56.3154C272.577 56.1761 272.5 55.9825 272.5 55.7889C272.5 55.5954 272.577 55.4018 272.717 55.2625L273.77 54.2095C273.909 54.0701 274.103 53.9927 274.296 53.9927C274.49 53.9927 274.683 54.0701 274.823 54.2095L277.099 56.4935L282.178 51.4067C282.317 51.2674 282.511 51.1899 282.705 51.1899C282.898 51.1899 283.092 51.2674 283.231 51.4067L284.284 52.4597C284.423 52.5991 284.501 52.7926 284.501 52.9862Z" fill="#3BB75E"/>
</g>
<rect x="260.5" y="78.75" width="40" height="35" rx="6" fill="#F1FEF4"/>
<path d="M292.453 89.375H294.203L297.492 98.1484L300.773 89.375H302.523L298.18 100.75H296.789L292.453 89.375ZM291.656 89.375H293.32L293.609 96.9688V100.75H291.656V89.375ZM301.656 89.375H303.328V100.75H301.367V96.9688L301.656 89.375ZM305.109 96.6172V96.4375C305.109 95.8281 305.198 95.263 305.375 94.7422C305.552 94.2161 305.807 93.7604 306.141 93.375C306.479 92.9844 306.891 92.6823 307.375 92.4688C307.865 92.25 308.417 92.1406 309.031 92.1406C309.651 92.1406 310.203 92.25 310.688 92.4688C311.177 92.6823 311.591 92.9844 311.93 93.375C312.268 93.7604 312.526 94.2161 312.703 94.7422C312.88 95.263 312.969 95.8281 312.969 96.4375V96.6172C312.969 97.2266 312.88 97.7917 312.703 98.3125C312.526 98.8333 312.268 99.2891 311.93 99.6797C311.591 100.065 311.18 100.367 310.695 100.586C310.211 100.799 309.661 100.906 309.047 100.906C308.427 100.906 307.872 100.799 307.383 100.586C306.898 100.367 306.487 100.065 306.148 99.6797C305.81 99.2891 305.552 98.8333 305.375 98.3125C305.198 97.7917 305.109 97.2266 305.109 96.6172ZM306.992 96.4375V96.6172C306.992 96.9974 307.031 97.3568 307.109 97.6953C307.188 98.0339 307.31 98.3307 307.477 98.5859C307.643 98.8411 307.857 99.0417 308.117 99.1875C308.378 99.3333 308.688 99.4062 309.047 99.4062C309.396 99.4062 309.698 99.3333 309.953 99.1875C310.214 99.0417 310.427 98.8411 310.594 98.5859C310.76 98.3307 310.883 98.0339 310.961 97.6953C311.044 97.3568 311.086 96.9974 311.086 96.6172V96.4375C311.086 96.0625 311.044 95.7083 310.961 95.375C310.883 95.0365 310.758 94.737 310.586 94.4766C310.419 94.2161 310.206 94.013 309.945 93.8672C309.69 93.7161 309.385 93.6406 309.031 93.6406C308.677 93.6406 308.37 93.7161 308.109 93.8672C307.854 94.013 307.643 94.2161 307.477 94.4766C307.31 94.737 307.188 95.0365 307.109 95.375C307.031 95.7083 306.992 96.0625 306.992 96.4375ZM314.555 88.75H316.438V98.9453L316.258 100.75H314.555V88.75ZM321.953 96.4453V96.6094C321.953 97.2344 321.883 97.8099 321.742 98.3359C321.607 98.8568 321.398 99.3099 321.117 99.6953C320.841 100.081 320.497 100.38 320.086 100.594C319.68 100.802 319.208 100.906 318.672 100.906C318.146 100.906 317.688 100.807 317.297 100.609C316.906 100.411 316.578 100.13 316.312 99.7656C316.052 99.401 315.841 98.9661 315.68 98.4609C315.518 97.9557 315.404 97.3984 315.336 96.7891V96.2656C315.404 95.651 315.518 95.0938 315.68 94.5938C315.841 94.0885 316.052 93.6536 316.312 93.2891C316.578 92.9193 316.904 92.6354 317.289 92.4375C317.68 92.2396 318.135 92.1406 318.656 92.1406C319.198 92.1406 319.674 92.2448 320.086 92.4531C320.503 92.6615 320.849 92.9583 321.125 93.3438C321.401 93.724 321.607 94.1771 321.742 94.7031C321.883 95.2292 321.953 95.8099 321.953 96.4453ZM320.07 96.6094V96.4453C320.07 96.0651 320.039 95.7083 319.977 95.375C319.914 95.0365 319.81 94.7396 319.664 94.4844C319.523 94.2292 319.331 94.0286 319.086 93.8828C318.846 93.7318 318.547 93.6562 318.188 93.6562C317.854 93.6562 317.568 93.7135 317.328 93.8281C317.089 93.9427 316.888 94.099 316.727 94.2969C316.565 94.4948 316.438 94.724 316.344 94.9844C316.255 95.2448 316.195 95.526 316.164 95.8281V97.2422C316.211 97.6328 316.31 97.9922 316.461 98.3203C316.617 98.6432 316.836 98.9036 317.117 99.1016C317.398 99.2943 317.76 99.3906 318.203 99.3906C318.552 99.3906 318.846 99.3203 319.086 99.1797C319.326 99.0391 319.516 98.8438 319.656 98.5938C319.802 98.3385 319.906 98.0417 319.969 97.7031C320.036 97.3646 320.07 97 320.07 96.6094ZM325.562 92.2969V100.75H323.672V92.2969H325.562ZM323.547 90.0781C323.547 89.7917 323.641 89.5547 323.828 89.3672C324.021 89.1745 324.286 89.0781 324.625 89.0781C324.958 89.0781 325.221 89.1745 325.414 89.3672C325.607 89.5547 325.703 89.7917 325.703 90.0781C325.703 90.3594 325.607 90.5938 325.414 90.7812C325.221 90.9688 324.958 91.0625 324.625 91.0625C324.286 91.0625 324.021 90.9688 323.828 90.7812C323.641 90.5938 323.547 90.3594 323.547 90.0781ZM329.641 88.75V100.75H327.75V88.75H329.641ZM335.43 100.906C334.805 100.906 334.24 100.805 333.734 100.602C333.234 100.393 332.807 100.104 332.453 99.7344C332.104 99.3646 331.836 98.9297 331.648 98.4297C331.461 97.9297 331.367 97.3906 331.367 96.8125V96.5C331.367 95.8385 331.464 95.2396 331.656 94.7031C331.849 94.1667 332.117 93.7083 332.461 93.3281C332.805 92.9427 333.211 92.6484 333.68 92.4453C334.148 92.2422 334.656 92.1406 335.203 92.1406C335.807 92.1406 336.336 92.2422 336.789 92.4453C337.242 92.6484 337.617 92.9349 337.914 93.3047C338.216 93.6693 338.44 94.1042 338.586 94.6094C338.737 95.1146 338.812 95.6719 338.812 96.2812V97.0859H332.281V95.7344H336.953V95.5859C336.943 95.2474 336.875 94.9297 336.75 94.6328C336.63 94.3359 336.445 94.0964 336.195 93.9141C335.945 93.7318 335.612 93.6406 335.195 93.6406C334.883 93.6406 334.604 93.7083 334.359 93.8438C334.12 93.974 333.919 94.1641 333.758 94.4141C333.596 94.6641 333.471 94.9661 333.383 95.3203C333.299 95.6693 333.258 96.0625 333.258 96.5V96.8125C333.258 97.1823 333.307 97.526 333.406 97.8438C333.51 98.1562 333.661 98.4297 333.859 98.6641C334.057 98.8984 334.297 99.0833 334.578 99.2188C334.859 99.349 335.18 99.4141 335.539 99.4141C335.992 99.4141 336.396 99.3229 336.75 99.1406C337.104 98.9583 337.411 98.7005 337.672 98.3672L338.664 99.3281C338.482 99.5938 338.245 99.849 337.953 100.094C337.661 100.333 337.305 100.529 336.883 100.68C336.466 100.831 335.982 100.906 335.43 100.906ZM345.25 89.375H347L350.289 98.1484L353.57 89.375H355.32L350.977 100.75H349.586L345.25 89.375ZM344.453 89.375H346.117L346.406 96.9688V100.75H344.453V89.375ZM354.453 89.375H356.125V100.75H354.164V96.9688L354.453 89.375ZM357.906 96.6172V96.4375C357.906 95.8281 357.995 95.263 358.172 94.7422C358.349 94.2161 358.604 93.7604 358.938 93.375C359.276 92.9844 359.688 92.6823 360.172 92.4688C360.661 92.25 361.214 92.1406 361.828 92.1406C362.448 92.1406 363 92.25 363.484 92.4688C363.974 92.6823 364.388 92.9844 364.727 93.375C365.065 93.7604 365.323 94.2161 365.5 94.7422C365.677 95.263 365.766 95.8281 365.766 96.4375V96.6172C365.766 97.2266 365.677 97.7917 365.5 98.3125C365.323 98.8333 365.065 99.2891 364.727 99.6797C364.388 100.065 363.977 100.367 363.492 100.586C363.008 100.799 362.458 100.906 361.844 100.906C361.224 100.906 360.669 100.799 360.18 100.586C359.695 100.367 359.284 100.065 358.945 99.6797C358.607 99.2891 358.349 98.8333 358.172 98.3125C357.995 97.7917 357.906 97.2266 357.906 96.6172ZM359.789 96.4375V96.6172C359.789 96.9974 359.828 97.3568 359.906 97.6953C359.984 98.0339 360.107 98.3307 360.273 98.5859C360.44 98.8411 360.654 99.0417 360.914 99.1875C361.174 99.3333 361.484 99.4062 361.844 99.4062C362.193 99.4062 362.495 99.3333 362.75 99.1875C363.01 99.0417 363.224 98.8411 363.391 98.5859C363.557 98.3307 363.68 98.0339 363.758 97.6953C363.841 97.3568 363.883 96.9974 363.883 96.6172V96.4375C363.883 96.0625 363.841 95.7083 363.758 95.375C363.68 95.0365 363.555 94.737 363.383 94.4766C363.216 94.2161 363.003 94.013 362.742 93.8672C362.487 93.7161 362.182 93.6406 361.828 93.6406C361.474 93.6406 361.167 93.7161 360.906 93.8672C360.651 94.013 360.44 94.2161 360.273 94.4766C360.107 94.737 359.984 95.0365 359.906 95.375C359.828 95.7083 359.789 96.0625 359.789 96.4375ZM369.211 94.1016V100.75H367.328V92.2969H369.102L369.211 94.1016ZM368.875 96.2109L368.266 96.2031C368.271 95.6042 368.354 95.0547 368.516 94.5547C368.682 94.0547 368.911 93.625 369.203 93.2656C369.5 92.9062 369.854 92.6302 370.266 92.4375C370.677 92.2396 371.135 92.1406 371.641 92.1406C372.047 92.1406 372.414 92.1979 372.742 92.3125C373.076 92.4219 373.359 92.6016 373.594 92.8516C373.833 93.1016 374.016 93.4271 374.141 93.8281C374.266 94.224 374.328 94.7109 374.328 95.2891V100.75H372.438V95.2812C372.438 94.875 372.378 94.5547 372.258 94.3203C372.143 94.0807 371.974 93.9115 371.75 93.8125C371.531 93.7083 371.258 93.6562 370.93 93.6562C370.607 93.6562 370.318 93.724 370.062 93.8594C369.807 93.9948 369.591 94.1797 369.414 94.4141C369.242 94.6484 369.109 94.9193 369.016 95.2266C368.922 95.5339 368.875 95.862 368.875 96.2109ZM379.977 100.906C379.352 100.906 378.786 100.805 378.281 100.602C377.781 100.393 377.354 100.104 377 99.7344C376.651 99.3646 376.383 98.9297 376.195 98.4297C376.008 97.9297 375.914 97.3906 375.914 96.8125V96.5C375.914 95.8385 376.01 95.2396 376.203 94.7031C376.396 94.1667 376.664 93.7083 377.008 93.3281C377.352 92.9427 377.758 92.6484 378.227 92.4453C378.695 92.2422 379.203 92.1406 379.75 92.1406C380.354 92.1406 380.883 92.2422 381.336 92.4453C381.789 92.6484 382.164 92.9349 382.461 93.3047C382.763 93.6693 382.987 94.1042 383.133 94.6094C383.284 95.1146 383.359 95.6719 383.359 96.2812V97.0859H376.828V95.7344H381.5V95.5859C381.49 95.2474 381.422 94.9297 381.297 94.6328C381.177 94.3359 380.992 94.0964 380.742 93.9141C380.492 93.7318 380.159 93.6406 379.742 93.6406C379.43 93.6406 379.151 93.7083 378.906 93.8438C378.667 93.974 378.466 94.1641 378.305 94.4141C378.143 94.6641 378.018 94.9661 377.93 95.3203C377.846 95.6693 377.805 96.0625 377.805 96.5V96.8125C377.805 97.1823 377.854 97.526 377.953 97.8438C378.057 98.1562 378.208 98.4297 378.406 98.6641C378.604 98.8984 378.844 99.0833 379.125 99.2188C379.406 99.349 379.727 99.4141 380.086 99.4141C380.539 99.4141 380.943 99.3229 381.297 99.1406C381.651 98.9583 381.958 98.7005 382.219 98.3672L383.211 99.3281C383.029 99.5938 382.792 99.849 382.5 100.094C382.208 100.333 381.852 100.529 381.43 100.68C381.013 100.831 380.529 100.906 379.977 100.906ZM387.172 99.8281L389.469 92.2969H391.484L388.094 102.039C388.016 102.247 387.914 102.474 387.789 102.719C387.664 102.964 387.5 103.195 387.297 103.414C387.099 103.638 386.852 103.818 386.555 103.953C386.258 104.094 385.898 104.164 385.477 104.164C385.31 104.164 385.148 104.148 384.992 104.117C384.841 104.091 384.698 104.062 384.562 104.031L384.555 102.594C384.607 102.599 384.669 102.604 384.742 102.609C384.82 102.615 384.883 102.617 384.93 102.617C385.242 102.617 385.503 102.578 385.711 102.5C385.919 102.427 386.089 102.307 386.219 102.141C386.354 101.974 386.469 101.75 386.562 101.469L387.172 99.8281ZM385.875 92.2969L387.883 98.625L388.219 100.609L386.914 100.945L383.844 92.2969H385.875Z" fill="#011B33"/>
<g clip-path="url(#clip6_16_1299)">
<path fill-rule="evenodd" clip-rule="evenodd" d="M284.501 91.9862C284.501 92.1797 284.423 92.3733 284.284 92.5127L277.625 99.1712C277.486 99.3105 277.293 99.3879 277.099 99.3879C276.905 99.3879 276.712 99.3105 276.573 99.1712L272.717 95.3154C272.577 95.1761 272.5 94.9825 272.5 94.7889C272.5 94.5954 272.577 94.4018 272.717 94.2625L273.77 93.2095C273.909 93.0701 274.103 92.9927 274.296 92.9927C274.49 92.9927 274.683 93.0701 274.823 93.2095L277.099 95.4935L282.178 90.4067C282.317 90.2674 282.511 90.1899 282.705 90.1899C282.898 90.1899 283.092 90.2674 283.231 90.4067L284.284 91.4597C284.423 91.5991 284.501 91.7926 284.501 91.9862Z" fill="#3BB75E"/>
</g>
<rect x="260.5" y="117.75" width="40" height="35" rx="6" fill="#F1FEF4"/>
<path d="M295.977 135.508H293.016V133.953H295.977C296.492 133.953 296.909 133.87 297.227 133.703C297.544 133.536 297.776 133.307 297.922 133.016C298.073 132.719 298.148 132.38 298.148 132C298.148 131.641 298.073 131.305 297.922 130.992C297.776 130.674 297.544 130.419 297.227 130.227C296.909 130.034 296.492 129.938 295.977 129.938H293.617V139.75H291.656V128.375H295.977C296.857 128.375 297.604 128.531 298.219 128.844C298.839 129.151 299.31 129.578 299.633 130.125C299.956 130.667 300.117 131.286 300.117 131.984C300.117 132.719 299.956 133.349 299.633 133.875C299.31 134.401 298.839 134.805 298.219 135.086C297.604 135.367 296.857 135.508 295.977 135.508ZM310.945 133.75V134.375C310.945 135.234 310.833 136.005 310.609 136.688C310.385 137.37 310.065 137.951 309.648 138.43C309.237 138.909 308.742 139.276 308.164 139.531C307.586 139.781 306.945 139.906 306.242 139.906C305.544 139.906 304.906 139.781 304.328 139.531C303.755 139.276 303.258 138.909 302.836 138.43C302.414 137.951 302.086 137.37 301.852 136.688C301.622 136.005 301.508 135.234 301.508 134.375V133.75C301.508 132.891 301.622 132.122 301.852 131.445C302.081 130.763 302.404 130.182 302.82 129.703C303.242 129.219 303.74 128.852 304.312 128.602C304.891 128.346 305.529 128.219 306.227 128.219C306.93 128.219 307.57 128.346 308.148 128.602C308.727 128.852 309.224 129.219 309.641 129.703C310.057 130.182 310.378 130.763 310.602 131.445C310.831 132.122 310.945 132.891 310.945 133.75ZM308.984 134.375V133.734C308.984 133.099 308.922 132.539 308.797 132.055C308.677 131.565 308.497 131.156 308.258 130.828C308.023 130.495 307.734 130.245 307.391 130.078C307.047 129.906 306.659 129.82 306.227 129.82C305.794 129.82 305.409 129.906 305.07 130.078C304.732 130.245 304.443 130.495 304.203 130.828C303.969 131.156 303.789 131.565 303.664 132.055C303.539 132.539 303.477 133.099 303.477 133.734V134.375C303.477 135.01 303.539 135.573 303.664 136.062C303.789 136.552 303.971 136.966 304.211 137.305C304.456 137.638 304.747 137.891 305.086 138.062C305.424 138.229 305.81 138.312 306.242 138.312C306.68 138.312 307.068 138.229 307.406 138.062C307.745 137.891 308.031 137.638 308.266 137.305C308.5 136.966 308.677 136.552 308.797 136.062C308.922 135.573 308.984 135.01 308.984 134.375ZM318.891 136.82C318.891 136.586 318.854 136.378 318.781 136.195C318.714 136.013 318.591 135.846 318.414 135.695C318.237 135.544 317.987 135.398 317.664 135.258C317.346 135.112 316.94 134.964 316.445 134.812C315.904 134.646 315.404 134.461 314.945 134.258C314.492 134.049 314.096 133.81 313.758 133.539C313.419 133.263 313.156 132.948 312.969 132.594C312.781 132.234 312.688 131.82 312.688 131.352C312.688 130.888 312.784 130.466 312.977 130.086C313.174 129.706 313.453 129.378 313.812 129.102C314.177 128.82 314.607 128.604 315.102 128.453C315.596 128.297 316.143 128.219 316.742 128.219C317.586 128.219 318.312 128.375 318.922 128.688C319.536 129 320.008 129.419 320.336 129.945C320.669 130.471 320.836 131.052 320.836 131.688H318.891C318.891 131.312 318.81 130.982 318.648 130.695C318.492 130.404 318.253 130.174 317.93 130.008C317.612 129.841 317.208 129.758 316.719 129.758C316.255 129.758 315.87 129.828 315.562 129.969C315.255 130.109 315.026 130.299 314.875 130.539C314.724 130.779 314.648 131.049 314.648 131.352C314.648 131.565 314.698 131.76 314.797 131.938C314.896 132.109 315.047 132.271 315.25 132.422C315.453 132.568 315.708 132.706 316.016 132.836C316.323 132.966 316.685 133.091 317.102 133.211C317.732 133.398 318.281 133.607 318.75 133.836C319.219 134.06 319.609 134.315 319.922 134.602C320.234 134.888 320.469 135.214 320.625 135.578C320.781 135.938 320.859 136.346 320.859 136.805C320.859 137.284 320.763 137.716 320.57 138.102C320.378 138.482 320.102 138.807 319.742 139.078C319.388 139.344 318.961 139.549 318.461 139.695C317.966 139.836 317.414 139.906 316.805 139.906C316.258 139.906 315.719 139.833 315.188 139.688C314.661 139.542 314.182 139.32 313.75 139.023C313.318 138.721 312.974 138.346 312.719 137.898C312.464 137.445 312.336 136.917 312.336 136.312H314.297C314.297 136.682 314.359 136.997 314.484 137.258C314.615 137.518 314.794 137.732 315.023 137.898C315.253 138.06 315.518 138.18 315.82 138.258C316.128 138.336 316.456 138.375 316.805 138.375C317.263 138.375 317.646 138.31 317.953 138.18C318.266 138.049 318.5 137.867 318.656 137.633C318.812 137.398 318.891 137.128 318.891 136.82Z" fill="#011B33"/>
<g clip-path="url(#clip7_16_1299)">
<path fill-rule="evenodd" clip-rule="evenodd" d="M284.501 130.986C284.501 131.18 284.423 131.373 284.284 131.513L277.625 138.171C277.486 138.311 277.293 138.388 277.099 138.388C276.905 138.388 276.712 138.311 276.573 138.171L272.717 134.315C272.577 134.176 272.5 133.983 272.5 133.789C272.5 133.595 272.577 133.402 272.717 133.262L273.77 132.209C273.909 132.07 274.103 131.993 274.296 131.993C274.49 131.993 274.683 132.07 274.823 132.209L277.099 134.494L282.178 129.407C282.317 129.267 282.511 129.19 282.705 129.19C282.898 129.19 283.092 129.267 283.231 129.407L284.284 130.46C284.423 130.599 284.501 130.793 284.501 130.986Z" fill="#3BB75E"/>
</g>
<defs>
<clipPath id="clip0_16_1299">
<rect width="12" height="12" fill="white" transform="translate(12.5 10.75)"/>
</clipPath>
<clipPath id="clip1_16_1299">
<rect width="12" height="12" fill="white" transform="translate(12.5 49.75)"/>
</clipPath>
<clipPath id="clip2_16_1299">
<rect width="12" height="12" fill="white" transform="translate(12.5 88.75)"/>
</clipPath>
<clipPath id="clip3_16_1299">
<rect width="12" height="12" fill="white" transform="translate(12.5 127.75)"/>
</clipPath>
<clipPath id="clip4_16_1299">
<rect width="12" height="12" fill="white" transform="translate(272.5 10.75)"/>
</clipPath>
<clipPath id="clip5_16_1299">
<rect width="12" height="12" fill="white" transform="translate(272.5 49.75)"/>
</clipPath>
<clipPath id="clip6_16_1299">
<rect width="12" height="12" fill="white" transform="translate(272.5 88.75)"/>
</clipPath>
<clipPath id="clip7_16_1299">
<rect width="12" height="12" fill="white" transform="translate(272.5 127.75)"/>
</clipPath>
</defs>
</svg>
