<svg width="20" height="21" viewBox="0 0 20 21" fill="none" xmlns="http://www.w3.org/2000/svg">
<g opacity="0.87" clip-path="url(#clip0_16_2162)">
<path d="M20 0.309814H0V20.3098H20V0.309814Z" fill="white"/>
<path d="M18.1908 0.309814H1.80916C0.81 0.309814 0 1.11981 0 2.11897V18.5006C0 19.4998 0.81 20.3098 1.80916 20.3098H18.1908C19.19 20.3098 20 19.4998 20 18.5006V2.11897C20 1.11981 19.19 0.309814 18.1908 0.309814ZM6.18885 17.5791C6.18885 17.8699 5.95314 18.1056 5.66236 18.1056H3.4212C3.13042 18.1056 2.89471 17.8699 2.89471 17.5791V8.18431C2.89471 7.89353 3.13042 7.65782 3.4212 7.65782H5.66236C5.95314 7.65782 6.18885 7.89353 6.18885 8.18431V17.5791ZM4.54178 6.77222C3.36592 6.77222 2.41267 5.81897 2.41267 4.64311C2.41267 3.46724 3.36592 2.514 4.54178 2.514C5.71764 2.514 6.67089 3.46724 6.67089 4.64311C6.67089 5.81897 5.7177 6.77222 4.54178 6.77222ZM17.901 17.6215C17.901 17.8889 17.6843 18.1056 17.417 18.1056H15.012C14.7447 18.1056 14.528 17.8889 14.528 17.6215V13.2148C14.528 12.5574 14.7208 10.3341 12.81 10.3341C11.3279 10.3341 11.0272 11.8559 10.9669 12.5389V17.6215C10.9669 17.8889 10.7502 18.1056 10.4828 18.1056H8.15681C7.88948 18.1056 7.67272 17.8889 7.67272 17.6215V8.1419C7.67272 7.87457 7.88948 7.65782 8.15681 7.65782H10.4828C10.7501 7.65782 10.9669 7.87457 10.9669 8.1419V8.96154C11.5164 8.13677 12.3332 7.50018 14.0722 7.50018C17.9231 7.50018 17.901 11.0979 17.901 13.0746V17.6215Z" fill="#3D5E69"/>
</g>
<defs>
<clipPath id="clip0_16_2162">
<rect width="20" height="20" fill="white" transform="translate(0 0.309814)"/>
</clipPath>
</defs>
</svg>
