<svg width="20" height="21" viewBox="0 0 20 21" fill="none" xmlns="http://www.w3.org/2000/svg">
<path d="M17.5353 0.753174H1.02603C0.466657 0.753174 -7.44121e-06 1.22455 -7.44121e-06 1.79178V3.65372C-7.44121e-06 4.23509 0.466657 4.6939 1.02681 4.6939H17.5345C18.108 4.6939 18.5613 4.22095 18.5747 3.65451V1.80513C18.5747 1.22534 18.108 0.753174 17.5353 0.753174ZM17.5353 11.1172H1.02603C0.890876 11.1175 0.757121 11.1445 0.632511 11.1969C0.507901 11.2492 0.394916 11.3257 0.300103 11.422C0.10708 11.6178 -0.00102899 11.8817 -0.000793072 12.1566V14.0185C-0.000793072 14.5999 0.465871 15.0579 1.02603 15.0579H17.5337C18.1072 15.0579 18.5605 14.5991 18.5739 14.0193V12.1566C18.5739 11.576 18.108 11.1172 17.5353 11.1172ZM10.3208 16.2867H1.02681C0.754198 16.2867 0.492583 16.3959 0.300889 16.5907C0.107866 16.7864 -0.000243357 17.0504 -7.44121e-06 17.3253V19.1872C-7.44121e-06 19.7686 0.466657 20.2266 1.02681 20.2266H10.3075C10.881 20.2266 11.3343 19.7552 11.3343 19.188V17.3253C11.3377 17.19 11.3141 17.0554 11.2647 16.9295C11.2153 16.8035 11.1412 16.6887 11.0468 16.5918C10.9523 16.4949 10.8394 16.418 10.7147 16.3654C10.5901 16.3129 10.4561 16.2866 10.3208 16.2867ZM18.5747 5.93441H1.02681C0.754198 5.93441 0.492583 6.0444 0.300889 6.23845C0.107674 6.43438 -0.000450231 6.69862 -7.44121e-06 6.9738V8.83574C-7.44121e-06 9.41632 0.466657 9.87513 1.02681 9.87513H18.5621C19.1356 9.87513 19.5881 9.40297 19.5881 8.83574V6.9738C19.5904 6.83885 19.5659 6.70478 19.5161 6.57934C19.4663 6.4539 19.3922 6.33956 19.298 6.24292C19.2037 6.14629 19.0913 6.06928 18.9672 6.01632C18.843 5.96337 18.7096 5.93553 18.5747 5.93441Z" fill="#00C3F7"/>
</svg>
