<svg width="1565" height="712" viewBox="0 0 1565 712" fill="none" xmlns="http://www.w3.org/2000/svg">
<path d="M368.218 709.242C362.218 706.997 360.54 704.798 361.965 701.05C362.625 699.313 363.894 697.893 364.783 697.893C365.673 697.893 369.568 699.939 373.438 702.441C377.309 704.943 382.042 707.558 383.956 708.253L387.436 709.517L383.155 709.61C380.8 709.661 377.345 709.925 375.478 710.195C373.61 710.466 370.343 710.037 368.218 709.242ZM354.601 697.717C353.471 697.085 351.588 696.872 350.415 697.244C348.939 697.712 347.799 697.015 346.707 694.973C345.839 693.353 344.285 691.736 343.252 691.381C340.882 690.566 335.915 682.518 333.151 675.015C331.754 671.225 329.877 668.606 327.647 667.338C323.692 665.088 323.408 664.067 326.47 663.096C329.973 661.984 330.625 655.809 327.676 651.668C326.269 649.692 325.528 647.372 325.952 646.267C326.453 644.963 325.072 642.675 321.728 639.268C317.508 634.968 316.728 633.405 316.539 628.874C316.417 625.941 315.702 622.801 314.952 621.896C314.006 620.757 313.813 616.667 314.324 608.581C314.877 599.818 314.555 594.41 313.03 586.872C310.766 575.677 309.609 554.819 310.197 535.79C310.323 531.73 309.797 526.156 309.028 523.403C307.156 516.7 298.544 508.238 287.9 502.645C280.287 498.644 279.216 497.619 276.24 491.474C274.438 487.753 270.993 482.191 268.586 479.115C266.178 476.039 263.561 471.521 262.769 469.076C260.256 461.315 255.826 453.517 252.807 451.538C251.2 450.485 249.367 447.747 248.734 445.454C247.709 441.743 247.979 440.707 251.186 436.045C254.664 430.991 254.705 430.785 252.355 430.17C246.58 428.66 249.009 420.942 259.374 407.861C266.264 399.168 268.282 392.545 266.373 384.894C265.646 381.978 264.995 378.928 264.926 378.116C264.858 377.304 264.34 376.64 263.776 376.64C263.211 376.64 263.32 375.575 264.017 374.273C265.09 372.267 264.819 371.694 262.239 370.518C258.479 368.805 252.801 370.499 252.779 373.341C252.752 376.748 251.254 376.999 246.313 374.424C243.666 373.044 240.917 371.916 240.204 371.916C239.491 371.916 236.717 370.029 234.04 367.723C231.363 365.417 228.508 363.004 227.696 362.361C226.884 361.719 226.22 359.968 226.22 358.47C226.22 356.972 225.177 354.803 223.902 353.649C222.627 352.496 220.975 349.707 220.231 347.452C219.253 344.489 218.521 343.71 217.589 344.642C215.643 346.588 212.762 346.219 205.77 343.126C202.114 341.51 198.306 338.749 196.785 336.613C195.333 334.573 192.558 332.085 190.62 331.082C187.42 329.427 186.62 329.44 181.96 331.22L176.825 333.181L161.071 325.547C151.38 320.851 143.859 316.372 141.529 313.908C137.917 310.088 137.8 309.674 139.002 304.939C140.103 300.601 139.916 299.259 137.522 294.312C136.014 291.198 132.721 286.415 130.203 283.683C127.685 280.951 125.91 278.253 126.26 277.688C126.61 277.122 124.836 273.31 122.318 269.216C119.458 264.566 117.44 259.584 116.939 255.938C116.296 251.265 115.547 249.835 113.176 248.755C110.663 247.61 109.96 247.756 108.521 249.722C106.494 252.49 107.07 255.413 111.552 265.097C113.373 269.033 115.255 274.867 115.734 278.062C116.213 281.256 117.628 285.876 118.879 288.327C121.841 294.133 119.928 294.031 115.257 288.133C112.502 284.655 111.758 282.747 112.306 280.566C112.89 278.237 112.315 277.115 109.452 274.998C105.109 271.787 104.19 269.716 105.785 266.736C106.715 264.998 106.289 263.091 103.926 258.43C101.527 253.695 101.026 251.402 101.62 247.886C102.59 242.139 100.012 236.938 95.2053 234.946C92.4301 233.797 91.4734 232.511 90.9079 229.17C90.5078 226.806 89.7416 223.149 89.2052 221.043C88.6472 218.852 88.6878 216.931 89.3001 216.553C89.8887 216.189 89.5035 214.568 88.4442 212.952C86.8841 210.571 86.7772 209.444 87.8818 207.019C88.6318 205.373 88.9149 203.492 88.5109 202.838C88.1069 202.184 89.1137 200.231 90.7482 198.498C92.3827 196.764 94.5588 193.307 95.5839 190.814C96.6091 188.321 99.7682 183.701 102.604 180.547C105.44 177.393 109.036 171.867 110.594 168.268C112.757 163.272 114.025 161.72 115.954 161.704C117.343 161.694 118.406 162.348 118.316 163.16C117.94 166.544 120.615 165.502 123.62 161.094C125.392 158.495 126.348 156.192 125.744 155.976C125.141 155.759 124.648 154.782 124.648 153.803C124.648 152.825 122.203 149.648 119.214 146.744C114.258 141.927 113.939 141.288 115.587 139.467C116.923 137.992 117.08 136.909 116.189 135.318C114.624 132.521 117.094 126.259 119.771 126.234C120.877 126.223 121.193 125.847 120.514 125.348C118.99 124.229 118.3 121.687 118.514 117.984C118.856 112.07 117.562 109.597 113.165 107.76C110.794 106.769 107.175 104.678 105.123 103.113C103.072 101.548 100.469 100.268 99.3398 100.268C98.2102 100.268 93.0754 99.1936 87.9292 97.8796C79.6554 95.7671 78.1972 95.6836 75.3311 97.1588C69.3916 100.215 63.0989 101.461 60.5334 100.088C58.6092 99.0588 56.5092 99.6948 49.1866 103.525C44.2445 106.11 38.3408 108.626 36.0672 109.116C33.7937 109.607 29.4426 111.263 26.3982 112.797C17.7627 117.148 5.39247 121.535 1.97077 121.459C-0.237525 121.409 1.25547 120.441 7.13096 118.111C17.1164 114.151 27.3768 108.994 28.3259 107.459C29.4948 105.567 26.9575 104.889 23.9095 106.278C21.6654 107.3 20.2824 107.204 17.6929 105.848L14.3624 104.103L17.9852 102.229C22.0806 100.111 23.3689 97.7156 22.428 93.9664C21.5167 90.3355 26.5413 87.6676 37.3657 86.0351C43.1817 85.158 47.6032 83.6979 50.58 81.6715C55.8292 78.0981 54.9274 75.3974 49.2677 77.7417C46.5885 78.8515 44.6369 78.8636 40.6691 77.7952C35.8471 76.4968 35.6753 76.3114 37.8321 74.7343C41.4411 72.0954 48.9051 70.5081 53.8092 71.3367C56.9124 71.8609 59.4543 71.4939 62.0631 70.1449L65.8328 68.1955L63.3513 65.554C61.9864 64.1012 60.8697 62.6002 60.8697 62.2184C60.8697 61.1226 67.9798 58.931 71.535 58.931C73.3095 58.931 78.1741 57.6463 82.3452 56.0763C86.5163 54.5063 96.1397 52.3629 103.73 51.3132C116.042 49.6106 118.649 49.5898 127.881 51.1206C133.573 52.0644 141.419 53.19 145.316 53.622C149.214 54.054 156.112 55.4252 160.647 56.6692C171.177 59.5584 178.036 59.5231 189.8 56.5194C194.995 55.193 200.245 54.4252 201.468 54.8132C202.69 55.2011 204.768 54.9415 206.086 54.2362C207.902 53.2644 209.31 53.382 211.901 54.7217C214.242 55.9321 217.131 56.2776 221.065 55.8174C225.215 55.3319 228.849 55.8347 234.155 57.6287C238.194 58.9946 242.68 60.1121 244.124 60.1121C246.682 60.1121 246.69 60.1555 244.457 61.7993C242.266 63.4113 242.26 63.5238 244.317 64.3208C245.501 64.7796 249.611 64.8266 253.45 64.4253C260.384 63.7006 260.444 63.721 262.378 67.4599L264.324 71.2241L266.851 68.0553C268.303 66.2343 271.754 64.1714 274.963 63.2054C279.815 61.7454 281.287 61.7503 286.159 63.2424C289.599 64.2957 293.715 64.6794 296.798 64.2341C300.724 63.6671 302.547 64.0203 305.108 65.8441C308.342 68.1467 308.431 68.1479 311.299 65.9251C312.9 64.6847 316.194 63.117 318.618 62.4413C324.424 60.8239 326.393 57.3772 322.906 54.9353C320.441 53.2085 320.549 53.0767 327.029 49.8984C331.863 47.5279 334.039 46.9896 334.981 47.9317C335.923 48.8737 335.914 49.91 334.946 51.7177C333.297 54.7988 335.35 59.4561 337.922 58.4692C338.846 58.1144 340.38 58.1222 341.33 58.4868C342.822 59.0594 342.798 59.5449 341.154 62.0537C336.613 68.9842 346.794 67.0205 353.686 59.6365C356.488 56.6343 360.83 55.7241 364.899 57.2857C367.527 58.2941 367.281 59.1198 362.929 63.8918C357.742 69.5786 355.088 70.7417 347.299 70.7417C343.534 70.7417 339.089 71.5573 337.018 72.6283C334.151 74.1108 332.753 74.2341 330.492 73.2038C326.277 71.2832 324.809 72.8818 327.833 76.1006L330.414 78.8481L325.265 80.3096C322.432 81.1135 317.723 81.8489 314.8 81.9439C310.561 82.0816 309.484 82.5418 309.477 84.2175C309.471 85.6514 307.409 87.1605 302.981 88.9705C288.634 94.8353 276.463 105.41 280.869 108.182C281.695 108.701 283.005 110.573 283.782 112.342C284.676 114.378 286.399 115.798 288.481 116.215C290.29 116.577 294.958 118.444 298.856 120.363C302.753 122.283 307.537 124.2 309.485 124.625C314.85 125.794 314.897 125.918 312.399 132.257C310.261 137.68 310.218 138.454 311.874 141.658C312.867 143.578 314.33 145.13 315.126 145.107C318.996 144.995 322.624 141.424 324.879 135.507C327.028 129.869 328.007 128.817 334.176 125.522C343.279 120.66 347.064 115.871 346.056 110.494C345.399 106.991 345.74 106.169 348.738 104.035C350.627 102.689 353.128 99.4699 354.296 96.8799C356.907 91.0905 361.102 89.0836 368.176 90.2401C374.449 91.2657 381.868 95.2486 382.764 98.0721C383.132 99.2311 382.827 101.312 382.085 102.697C380.963 104.795 381.175 105.681 383.355 108.002L385.973 110.788L390.248 108.573C392.599 107.354 396.367 104.977 398.622 103.29L402.721 100.222L403.684 102.826C404.213 104.257 404.364 106.166 404.018 107.068C403.672 107.969 403.941 109.738 404.616 110.999C405.375 112.417 405.434 114.022 404.771 115.207C404.023 116.543 404.523 118.573 406.423 121.919C409.147 126.714 409.147 126.717 406.755 128.392C403.609 130.597 405.628 132.934 409.081 131.086C412.512 129.25 416.438 129.489 418.86 131.68C422.439 134.92 419.463 138.795 409.961 143.265C399.626 148.128 395.02 149.091 381.531 149.21C371.57 149.298 370.251 149.616 360.567 154.258C354.883 156.983 350.232 159.68 350.232 160.251C350.232 162.688 352.023 162.476 358.895 159.226C362.943 157.31 368.162 155.78 370.647 155.78C374.893 155.779 375.048 155.91 373.722 158.387C372.954 159.822 371.298 161.828 370.041 162.846C368.066 164.445 367.95 165.12 369.187 167.834C371.041 171.904 375.884 173.863 381.677 172.885L386.255 172.113L382.735 174.541C380.799 175.877 377.61 177.316 375.648 177.74C373.687 178.164 369.656 179.733 366.69 181.227C363.68 182.743 360.656 183.546 359.843 183.044C357.974 181.888 359.947 180.155 366.02 177.618C371.421 175.361 370.557 172.964 364.737 174.056C362.47 174.481 355.118 177.25 348.4 180.21C337.913 184.829 336.084 186.048 335.473 188.828C334.723 192.245 332.163 193.861 323.162 196.6C320.291 197.473 316.57 199.584 314.894 201.291C313.219 202.998 310.01 205.553 307.764 206.97C305.518 208.386 303.367 210.868 302.985 212.484C302.355 215.149 302.209 215.212 301.42 213.159C299.942 209.314 297.715 213.073 297.587 219.631C297.456 226.35 294.05 230.933 286.581 234.442C278.923 238.04 268.026 246.543 265.818 250.642C263.869 254.262 263.787 255.672 264.988 264.975C266.109 273.654 266.042 275.832 264.567 278.683C263.466 280.813 262.182 281.83 261.113 281.42C258.579 280.448 255.479 270.019 256.348 265.389C256.951 262.172 256.551 260.953 254.154 258.701C252.222 256.887 250.439 256.197 248.924 256.678C247.658 257.079 244.081 256.318 240.97 254.984C236.204 252.941 234.683 252.77 231.28 253.893C228.973 254.654 226.68 256.46 225.93 258.107C224.813 260.558 224.073 260.873 220.989 260.21C218.994 259.781 215.927 258.696 214.172 257.8C209.852 255.593 207.433 255.747 202.58 258.537C200.316 259.839 195.698 262.33 192.316 264.073C188.429 266.076 185.76 268.355 185.06 270.269C184.451 271.934 182.273 278.425 180.22 284.692L176.488 296.089L178.394 303.445C181.897 316.96 186.769 321.006 196.922 318.829C204.575 317.187 209.172 313.861 210.861 308.742C211.934 305.491 213.092 304.416 216.557 303.454C221.771 302.005 223.949 301.952 225.951 303.223C227.604 304.272 227.023 305.998 219.623 322.019C214.546 333.012 214.911 333.995 223.61 332.74C231.536 331.597 238.78 332.475 239.626 334.68C239.956 335.54 239.42 341.341 238.434 347.571C236.67 358.717 236.683 358.967 239.222 363.074C240.641 365.37 243.301 368.024 245.134 368.972C248.06 370.485 248.978 370.481 252.659 368.943C258.509 366.499 261.685 366.758 265.748 370.008C268.997 372.608 269.456 372.681 272.009 371.008C273.525 370.015 275.592 367.555 276.603 365.54C278.884 360.997 282.726 357.804 285.953 357.769C287.302 357.755 289.653 356.414 291.179 354.79C294.277 351.492 299.733 350.418 297.066 353.631C294.828 356.327 293.549 365 294.991 367.695C296.192 369.939 296.289 369.926 298.474 367.227C300.03 365.305 300.344 364.073 299.493 363.223C297.465 361.194 298.075 359.508 301.85 356.718C305.769 353.82 308.801 354.118 312.183 357.731C314.662 360.381 327.902 363.962 331.696 363.01C337.474 361.56 353.087 371.053 358.953 379.583C361.746 383.645 370.67 387.732 374.593 386.747C382.665 384.722 393.731 392.808 396.318 402.624C397.089 405.547 398.251 408.27 398.9 408.674C400.624 409.748 398.042 413.989 392.4 419.357C388.795 422.786 387.934 424.263 388.948 425.277C389.962 426.291 391.629 425.402 395.632 421.712C401.455 416.346 403.397 415.801 406.314 418.718C408.088 420.492 408.034 420.853 405.602 423.442C404.154 424.984 402.131 426.279 401.108 426.32C400.029 426.363 400.465 426.881 402.145 427.552C404.452 428.473 405.656 428.214 408.05 426.279C414.286 421.241 415.752 420.999 421.291 424.094C424.893 426.105 426.335 427.637 426.153 429.257C425.648 433.761 426.71 434.758 429.833 432.712C432.315 431.086 434.017 431.009 442.321 432.146C451.153 433.355 452.31 433.837 456.547 438.075C459.693 441.221 463.232 443.29 467.677 444.582C473.646 446.317 474.294 446.846 475.377 450.866C476.946 456.695 475.108 463.163 470.134 469.307C468.01 471.931 465.406 475.784 464.347 477.869C463.289 479.953 461.039 483.043 459.347 484.736C456.482 487.6 456.323 488.317 457.037 495.118C458.432 508.406 451.932 533.197 445.663 538.498C443.622 540.224 441.875 540.63 438.639 540.129C435.978 539.716 434.009 539.982 433.489 540.824C433.026 541.573 430.447 543.153 427.758 544.335C425.068 545.518 421.065 548.026 418.861 549.908C415.046 553.167 414.918 553.528 416.202 557.418C417.682 561.903 416.685 567.214 413.513 571.743C412.487 573.208 411.648 575.698 411.648 577.278C411.648 578.859 410.416 581.798 408.91 583.808C407.404 585.818 404.498 590.419 402.453 594.033C397.423 602.923 394.398 604.464 387.103 601.849C380.773 599.58 377.397 599.309 377.397 601.07C377.397 601.734 378.659 602.851 380.201 603.554C381.743 604.257 384.147 607.118 385.542 609.911C387.62 614.072 387.84 615.516 386.757 617.893C385.079 621.575 378.665 624.666 372.702 624.666C367.421 624.666 366.111 625.958 367.935 629.366C369.061 631.47 368.304 634.855 366.126 637.45C365.95 637.66 364.101 636.95 362.017 635.873C357.043 633.301 355.282 634.939 357.796 639.801C358.818 641.778 360.763 643.747 362.116 644.177C364.443 644.915 364.468 645.079 362.577 647.169C361.475 648.387 360.903 650.235 361.305 651.281C361.736 652.405 360.774 654.833 358.948 657.227C355.98 661.119 355.937 661.388 357.84 664.292C358.928 665.953 360.625 667.621 361.612 668C365.169 669.365 365.758 674.028 363.046 679.344C360.329 684.67 359.912 690.01 362.015 692.544C363.927 694.848 357.494 699.336 354.601 697.717ZM267.557 186.181C270.713 179.587 276.585 174.676 281.314 174.676C284.718 174.676 284.758 175.228 281.642 179.19L279.191 182.306L281.705 184.342C283.731 185.982 284.776 186.124 287.086 185.072C288.662 184.354 290.278 182.739 290.677 181.483C291.219 179.775 292.101 179.375 294.18 179.897C296.105 180.381 297.31 179.967 298.102 178.552C300.502 174.263 294.395 168.779 289.899 171.185C286.683 172.907 282.48 169.482 283.377 165.869C283.709 164.531 283.025 162.2 281.841 160.637C279.4 157.415 275.686 157.076 267.557 159.332C264.634 160.144 261.301 160.771 260.15 160.727C258.999 160.682 258.366 161.145 258.743 161.756C259.121 162.366 258.999 162.877 258.474 162.891C257.948 162.906 256.196 163.934 254.579 165.176L251.64 167.434L254.941 168.689C257.521 169.67 259.042 169.53 261.908 168.048C265.276 166.306 265.9 166.307 269.576 168.06C271.79 169.116 274.813 169.658 276.344 169.274C277.865 168.892 279.436 169.107 279.835 169.751C280.242 170.41 278.578 171.258 276.035 171.688C269.123 172.855 265.532 175.734 260.518 184.124C256.331 191.133 256.09 191.978 257.76 193.831C259.397 195.65 259.85 195.678 262.096 194.107C263.476 193.142 265.933 189.575 267.557 186.181ZM289.015 193.473C293.22 191.327 293.624 190.788 292.142 189.306C290.661 187.825 289.725 187.921 284.904 190.053C279.245 192.557 277.449 195.936 281.777 195.936C283.102 195.936 286.359 194.828 289.015 193.473ZM309.957 184.547C312.417 182.824 312.508 182.486 310.773 181.515C308.219 180.086 300.627 182.549 300.627 184.807C300.627 187.133 306.498 186.97 309.957 184.547ZM398.656 694.586C398.656 694.066 399.294 693.003 400.073 692.223C400.853 691.444 401.044 690.806 400.499 690.806C399.953 690.806 398.87 691.678 398.091 692.743C396.973 694.272 396.2 694.404 394.417 693.369C393.143 692.63 392.834 692.043 393.706 692.023C394.557 692.003 394.924 691.456 394.522 690.806C393.751 689.559 395.778 689.219 401.609 689.617C406.813 689.972 407.336 690.732 404.12 693.262C401.123 695.619 398.656 696.217 398.656 694.586ZM1385.01 664.944C1381.63 662.803 1388.66 658.076 1406.11 650.767C1410.98 648.725 1418.41 644.457 1422.61 641.28C1429.75 635.879 1430.34 635.645 1431.76 637.667C1433.91 640.736 1432.64 642.957 1427.39 645.324C1424.89 646.455 1421.73 648.648 1420.38 650.196C1419.04 651.745 1416.87 653.012 1415.57 653.012C1414.27 653.012 1411.21 654.802 1408.77 656.99C1400.43 664.478 1389.86 668.016 1385.01 664.944ZM1302.35 649.601C1301.12 648.823 1301.05 648.023 1302.05 646.153C1302.77 644.814 1303.36 642.053 1303.36 640.018C1303.36 636.691 1303.63 636.412 1306.01 637.252C1307.48 637.767 1310.53 638.257 1312.81 638.342C1315.08 638.427 1317.35 638.573 1317.85 638.668C1319.81 639.035 1314.58 644.99 1309.88 647.745C1304.28 651.027 1304.51 650.97 1302.35 649.601ZM1438.83 639.273C1438.42 638.862 1439.39 637.496 1440.99 636.237C1443.4 634.341 1443.68 633.54 1442.63 631.571C1441.1 628.722 1443.37 625.665 1448.61 623.492C1452.67 621.809 1453.7 618.394 1452.61 610.151C1451.86 604.48 1451.95 604.126 1453.78 605.637C1455.21 606.824 1455.57 608.319 1455.05 611.046C1454.49 614.034 1455 615.587 1457.49 618.549C1460.18 621.749 1460.98 622.097 1463.08 620.975C1465.16 619.858 1465.41 619.96 1464.75 621.673C1464.33 622.776 1463.98 623.887 1463.98 624.142C1463.98 624.397 1462.26 625.49 1460.14 626.571C1458.03 627.652 1453.91 630.511 1450.99 632.924C1446.24 636.849 1441.35 640.02 1440.05 640.02C1439.79 640.02 1439.24 639.684 1438.83 639.273ZM1313.93 624.019C1311.45 621.371 1310.99 621.269 1308.6 622.835C1305.55 624.83 1299.83 623.664 1295.24 620.114C1292.8 618.22 1292.63 617.61 1293.89 615.253C1294.97 613.241 1295 611.831 1294.03 609.698C1293.31 608.125 1292.73 605.801 1292.73 604.532C1292.73 601.671 1290.87 601.534 1289.33 604.283C1288.7 605.414 1287.84 606.001 1287.43 605.588C1287.01 605.174 1288.38 602.893 1290.47 600.518C1295.6 594.672 1293.6 593.086 1286.82 597.626C1283.9 599.582 1281.32 601.719 1281.09 602.375C1280.86 603.031 1279.45 601.007 1277.97 597.877C1276.36 594.483 1273.58 591.073 1271.08 589.427C1267.33 586.955 1266.05 586.751 1258.84 587.469C1248.27 588.521 1238.07 591.128 1231.4 594.484C1228.36 596.01 1222.44 597.572 1217.87 598.051C1213.4 598.52 1206.3 600.202 1202.08 601.79C1195.63 604.217 1193.79 604.472 1190.53 603.394C1186.14 601.947 1184.32 598.965 1187.16 597.877C1188.18 597.483 1190.05 594.773 1191.3 591.854C1193.3 587.182 1193.41 585.728 1192.22 579.691C1191.24 574.697 1191.21 569.969 1192.12 562.279C1192.81 556.474 1193.07 550.581 1192.71 549.184C1192.34 547.787 1192.91 544.367 1193.98 541.584C1195.85 536.677 1196.3 536.356 1208.97 530.989C1216.16 527.946 1223.52 525.455 1225.32 525.455C1230.2 525.455 1236.25 520.81 1239.58 514.499C1241.64 510.598 1243.07 509.114 1244.3 509.592C1247.75 510.925 1248.43 510.663 1248.17 508.105C1248 506.46 1248.7 505.264 1250.11 504.818C1251.33 504.432 1253.57 502.281 1255.1 500.038C1256.67 497.743 1259.89 495.156 1262.48 494.118C1266.79 492.387 1267.22 492.413 1269.56 494.545C1273.89 498.478 1276.96 499.626 1278.42 497.862C1279.13 497.004 1279.38 495.964 1278.96 495.551C1277.61 494.199 1283.8 486.437 1286.82 485.692C1288.45 485.291 1291.78 483.959 1294.23 482.731C1298.05 480.816 1299.4 480.689 1303.68 481.839C1312.91 484.318 1313.22 484.723 1309.79 489.913C1305.37 496.587 1306.54 499.197 1317.37 506.823C1322.38 510.344 1327.1 513.014 1327.87 512.758C1328.64 512.501 1331.07 509.806 1333.27 506.767C1336.28 502.627 1337.44 499.616 1337.92 494.747C1338.61 487.831 1341.91 478.212 1343.61 478.212C1344.17 478.212 1345.46 481.057 1346.47 484.533C1347.48 488.01 1349.59 492.067 1351.17 493.549C1354.86 497.013 1357 506.7 1355.35 512.423C1354.25 516.215 1354.46 516.824 1358.22 520.691C1360.45 522.986 1363.98 528.585 1366.07 533.132C1368.15 537.679 1371.9 544.113 1374.41 547.429L1378.97 553.459L1377.67 562.775C1376.73 569.534 1375.28 574.04 1372.37 579.187C1367.92 587.071 1361.27 594.594 1357.76 595.708C1356.5 596.108 1353.57 599.067 1351.26 602.283C1348.95 605.5 1346.54 608.131 1345.91 608.131C1345.27 608.131 1342.57 610.891 1339.9 614.265C1335.45 619.891 1334.64 620.406 1330 620.493C1326.45 620.56 1323.72 621.525 1320.8 623.752L1316.65 626.915L1313.93 624.019ZM738.02 599.186C735.519 596.685 735.101 595.406 735.66 591.961C736.186 588.719 735.685 586.813 733.438 583.506C731.843 581.158 730.537 578.659 730.537 577.953C730.537 577.247 728.449 573.869 725.896 570.447C721.951 565.159 721.14 563.047 720.49 556.356C719.342 544.551 715.572 531.774 710.506 522.513C708.015 517.96 705.623 512.049 705.189 509.376C704.266 503.69 706.575 495.227 711.847 484.974L715.354 478.153L713.383 472.22C712.281 468.902 711.742 464.975 712.161 463.307C712.651 461.355 712.124 459.03 710.636 456.573C709.386 454.508 707.529 449.896 706.51 446.323C705.149 441.551 703.252 438.448 699.361 434.63C691.875 427.286 690.902 424.395 693.225 416.404C697.954 400.136 692.845 390.648 680.364 392.519C675.505 393.248 675.319 393.157 674.632 389.724C674.105 387.09 672.678 385.541 669.093 383.712C664.434 381.335 662.441 381.326 656.72 383.656C655.421 384.185 650.106 386.019 644.91 387.731C637.096 390.306 634.749 390.638 631.348 389.651C628.126 388.717 625.412 388.958 618.818 390.767C612.004 392.637 609.534 392.837 605.853 391.821C598.171 389.7 584.973 377.804 583.096 371.309C581.643 366.283 572.608 354.569 569.533 353.725C567.579 353.189 567.339 352.774 568.535 352.002C569.738 351.225 569.529 350.832 567.649 350.34C564.664 349.56 564.367 347.121 567.254 347.095C569.021 347.08 569.063 346.911 567.549 345.932C566.434 345.211 566.31 344.781 567.214 344.769C568.152 344.758 567.795 343.301 566.186 340.573C563.92 336.734 563.873 336.226 565.604 334.314C570.888 328.475 572.046 315.904 568.029 307.983C566.111 304.202 567.344 298.979 571.436 293.549C572.977 291.504 575.985 286.529 578.121 282.494C581.857 275.434 590.185 265.619 592.439 265.619C594.934 265.619 602.982 256.967 602.982 254.286C602.982 248.231 606.601 242.195 612.503 238.408C615.674 236.373 619.39 232.894 620.76 230.676C623.564 226.14 623.961 225.992 627.226 228.268C628.507 229.161 631.691 230.249 634.301 230.687C638.282 231.355 640.185 230.874 646.112 227.705C656.31 222.251 662.612 220.889 674.281 221.617C681.977 222.097 685.441 221.79 689.172 220.297C694.665 218.099 699.415 219.4 698.129 222.751C697.743 223.757 697.979 225.247 698.653 226.06C699.503 227.083 699.496 228.549 698.632 230.821C697.546 233.676 697.787 234.526 700.476 237.333C702.178 239.108 705.223 240.892 707.245 241.296C716.737 243.194 719.436 244.424 721.396 247.742C722.832 250.173 724.715 251.421 727.827 252.005C730.247 252.459 733.761 253.623 735.637 254.593C738.821 256.24 739.233 256.18 741.889 253.685C743.674 252.008 744.484 250.232 744.065 248.913C743.698 247.757 743.978 245.728 744.686 244.405C746.514 240.99 751.702 241.325 759.802 245.381C768.628 249.799 785.365 252.952 791.298 251.314C794.152 250.526 796.896 250.515 799.394 251.283C807.555 253.791 811.734 251.828 812.849 244.963C813.219 242.682 813.85 240.817 814.253 240.817C815.016 240.817 815.416 237.388 815.526 229.892C815.562 227.456 816.138 225.463 816.806 225.463C817.601 225.463 817.562 224.607 816.692 222.982C815.24 220.268 812.294 220.33 805.245 223.223C801.901 224.595 800.971 224.537 797.976 222.767C794.092 220.473 790.107 220.129 788.958 221.989C788.103 223.372 782.064 222.402 778.789 220.357C776.436 218.887 774.237 214.513 774.237 211.301C774.237 210.07 773.041 208.22 771.58 207.19C769.317 205.597 769.186 205.146 770.694 204.159C771.668 203.521 773.672 203.283 775.148 203.63C777.029 204.073 778.759 203.332 780.944 201.147C783 199.092 785.5 197.957 788.301 197.808C790.634 197.684 794.014 196.614 795.812 195.429C799.715 192.856 808.576 193.571 815.451 197.013C824.721 201.653 832.954 201.38 836.268 196.323C837.992 193.692 838.002 193.139 836.365 190.642C835.369 189.12 830.58 185.615 825.725 182.852L816.896 177.829L818.55 174.631C819.46 172.871 819.907 171.134 819.543 170.77C819.179 170.407 819.318 169.409 819.852 168.554C820.386 167.699 820.927 166.313 821.054 165.474C821.325 163.685 819.42 164.179 810.028 168.333C804.575 170.744 803.765 171.483 804.975 172.94C805.767 173.895 807.546 174.699 808.928 174.728C810.866 174.768 810.407 175.325 806.92 177.166C802.685 179.4 802.212 179.429 799.459 177.625C797.104 176.082 796.797 175.365 797.912 174.02C799.02 172.686 798.854 172.172 797.106 171.515C795.896 171.06 794.336 169.929 793.639 169C790.256 164.491 779.523 176.353 776.402 188.051C774.936 193.541 774.985 193.828 777.743 195.909L780.606 198.068L775.354 199.151C772.466 199.746 768.574 199.816 766.704 199.305C763.255 198.363 758.883 199.783 758.883 201.846C758.883 202.452 758.079 202.64 757.096 202.263C756.114 201.886 754.554 202.205 753.63 202.972C752.196 204.161 752.359 205.136 754.734 209.603C757.307 214.442 757.386 215.103 755.781 218.32C753.77 222.351 751.9 222.052 749.06 217.243C747.079 213.89 747.093 213.813 749.713 213.441C753.019 212.972 753.232 210.867 750.025 210.354C742.707 209.184 738.805 205.328 738.805 199.268C738.805 194.539 734.421 189.325 729.105 187.732C726.342 186.904 723.339 185.166 722.431 183.87C721.523 182.573 718.865 180.713 716.525 179.735C714.184 178.757 711.565 176.951 710.704 175.722C709.468 173.957 708.655 173.745 706.846 174.713C705.585 175.388 704.554 176.7 704.554 177.629C704.554 180.696 719.608 194.57 726.966 198.284C734.768 202.223 735.987 203.629 730.566 202.438C725.733 201.377 724.417 202.439 726.07 206.068C727.231 208.616 727.041 209.391 724.705 211.635L721.992 214.243L722.609 210.724C723.589 205.14 716.226 197.117 710.119 197.117C707.881 197.117 699.281 188.774 697.028 184.417C694.621 179.762 691.942 178.863 688.148 181.436C682.431 185.312 678.145 186.622 673.661 185.865C667.705 184.859 663.957 186.936 664.907 190.717C665.402 192.692 665.126 193.574 664.013 193.574C663.127 193.574 660.858 194.902 658.971 196.525C657.083 198.148 655.133 199.477 654.636 199.478C653.175 199.48 649.053 206.942 649.048 209.593C649.043 212.128 644.424 217.124 639.968 219.413C638.549 220.142 635.246 220.739 632.628 220.739C629.025 220.739 627.549 221.332 626.561 223.179C625.267 225.597 625.228 225.591 622.201 222.564C619.361 219.724 617.726 219.014 611.996 218.127C608.985 217.661 608.476 210.846 610.728 201.135C611.691 196.984 612.163 192.331 611.778 190.797C610.659 186.338 614.163 183.708 620.023 184.609C633.556 186.687 641.472 186.802 643.328 184.947C645.877 182.397 647.027 173.989 645.471 169.274C644.457 166.199 643.061 164.942 638.896 163.352C632.771 161.013 632.642 158.75 638.63 158.69C640.912 158.667 644.203 157.715 645.944 156.574C647.685 155.433 649.611 154.809 650.223 155.187C651.893 156.219 658.215 152.575 660.315 149.371C661.329 147.822 663.327 146.257 664.755 145.893C666.182 145.53 670.007 142.756 673.255 139.731C677.86 135.442 680.276 134.097 684.224 133.626C689.116 133.042 694.035 129.019 691.726 127.491C690.29 126.542 689.091 120.823 689.891 118.74C690.269 117.753 691.941 116.053 693.606 114.962L696.633 112.978L695.856 117.838C695.182 122.056 695.354 122.652 697.159 122.35C698.303 122.159 700.443 121.341 701.914 120.533C704.154 119.302 704.703 119.362 705.294 120.901C706.306 123.539 703.492 126.64 701.549 125.028C700.476 124.138 699.796 124.17 699.196 125.14C698.578 126.14 698.094 126.086 697.384 124.936C696.851 124.073 696.143 123.639 695.812 123.97C695.481 124.301 696.425 126.097 697.91 127.96C700.414 131.1 700.891 131.249 704.46 130.005C707.516 128.939 708.984 129.012 711.586 130.358C714.523 131.877 715.515 131.804 721.161 129.659C726.108 127.779 728.057 127.538 730.247 128.536C732.261 129.454 733.753 129.435 735.624 128.468C740.937 125.723 742.408 123.653 741.749 119.853C740.771 114.222 742.562 112.377 747.277 114.157C750.486 115.368 751.424 115.32 752.874 113.87C754.41 112.334 754.277 111.767 751.761 109.089C749.34 106.511 749.17 105.871 750.646 104.875C751.604 104.229 755.192 103.998 758.619 104.361C764.892 105.025 772.709 102.575 771.347 100.371C770.155 98.4409 762.954 97.8832 756.854 99.2483C751.445 100.459 750.025 100.361 745.878 98.4914C739.439 95.5873 738.68 92.1898 743.097 86.0337C748.782 78.1098 749.822 75.5847 748.203 73.6333C745.804 70.7438 743.449 71.6858 737.97 77.7248C735.075 80.9159 731.131 84.1797 729.204 84.9776C727.278 85.7756 724.895 87.9886 723.909 89.8953C722.303 93.0006 722.305 93.6514 723.933 96.1354C724.932 97.6606 726.827 99.2503 728.144 99.6682C731.767 100.818 731.05 102.976 725.868 106.522C724.274 107.612 722.148 110.698 721.143 113.378C719.885 116.737 717.971 119.029 714.986 120.752C710.778 123.181 710.587 123.191 708.262 121.086C706.946 119.895 705.549 117.466 705.158 115.687C704.768 113.909 702.994 110.712 701.217 108.583L697.985 104.712L693.888 107.21C691.634 108.584 688.727 109.698 687.428 109.686C683.68 109.652 679.341 105.603 679.051 101.87C678.907 100.015 678.424 97.5872 677.98 96.475C676.921 93.8295 682.21 88.8683 687.706 87.3507C693.222 85.8277 704.41 77.9868 706.317 74.3078C707.165 72.6713 710.038 69.3782 712.702 66.9897C715.366 64.6013 717.545 62.1207 717.545 61.4773C717.545 60.834 720.07 59.4079 723.156 58.3084C726.241 57.2088 731.423 55.2138 734.671 53.875C738.659 52.2313 743.645 51.3623 750.025 51.1991C761.173 50.9139 768.463 52.3916 774.479 56.1554C777.497 58.044 779.879 58.6884 782.159 58.2324C786.236 57.4169 807.974 64.1545 808.879 66.5148C809.79 68.887 803.555 71.1263 798.191 70.3538C795.735 69.9999 790.654 69.0537 786.901 68.2511C781.848 67.1706 779.732 67.1365 778.749 68.1197C777.766 69.1029 778.257 69.8286 780.642 70.9152C782.413 71.7224 784.631 73.8685 785.57 75.6844C787.961 80.3082 795.619 84.0774 799.57 82.5752C803.366 81.1319 803.34 80.6767 799.335 78.5038C795.63 76.494 797.34 76.0595 801.992 77.8284C805.707 79.2408 809.916 77.4837 808.936 74.9296C808.477 73.7334 809.768 72.8697 813.409 71.9367C821.201 69.94 821.771 69.6546 821.125 68.0744C818.68 62.0976 818.646 62.2693 822.203 62.6754C824.101 62.8922 825.488 63.7039 825.33 64.5059C825.174 65.2985 826.163 66.5446 827.528 67.275C829.578 68.3723 831.195 67.9814 836.833 65.0265C845.099 60.6935 851.534 59.2808 853.934 61.2725C855.272 62.383 857.491 62.3908 863.913 61.3076C868.455 60.5414 872.688 60.2335 873.318 60.6232C873.949 61.0129 874.813 60.7683 875.239 60.0797C876.169 58.5737 873.595 55.1566 872.186 56.0274C870.485 57.0787 864.899 55.1954 866.114 53.9803C867.338 52.7568 900.207 60.4159 902.174 62.383C903.5 63.709 907.698 61.94 907.698 60.0553C907.698 59.4201 905.354 57.7615 902.489 56.3695C893.606 52.0538 893.035 45.1418 901.389 43.0451C906.238 41.8282 908.335 43.2319 915.041 52.1847C923.747 63.8082 923.525 63.2168 920.681 67.2115C918.574 70.1696 918.447 70.8619 919.909 71.4227C922.678 72.4852 928.604 68.7671 929.438 65.444C930.415 61.5502 928.591 58.2317 924.233 55.9783C920.807 54.2068 918.328 50.9607 918.328 48.2476C918.328 47.3227 919.613 47.0921 922.166 47.5585C925.995 48.2578 929.162 46.8693 937.832 40.69C939.815 39.2768 943.167 38.3456 946.547 38.269C953.403 38.1135 955.622 36.9625 953.649 34.5853C952.875 33.6531 952.488 32.6444 952.789 32.3439C954.297 30.8355 973.741 28.1175 978.219 28.789C982.528 29.4352 983.862 29.0856 987.407 26.3817C989.688 24.6419 991.554 22.7501 991.554 22.1776C991.554 20.7339 981.233 20.8629 980.334 22.3178C979.097 24.3197 977.493 23.6231 977.944 21.2798C978.325 19.3012 977.326 18.9792 968.723 18.3094C945.232 16.4804 943.322 16.0512 946.141 13.2331C948.618 10.7554 954.695 10.8034 959.782 13.3409C961.866 14.3806 965.318 15.2313 967.454 15.2313C969.589 15.2313 971.665 15.7627 972.066 16.4123C972.468 17.0619 974.537 17.5934 976.663 17.5934C982.554 17.5934 993.943 20.1379 993.228 21.2942C992.88 21.8572 993.982 22.3178 995.677 22.3178C997.371 22.3178 1000.46 23.2331 1002.54 24.3517C1005.33 25.8561 1009.24 26.3973 1017.54 26.4306C1026.46 26.4663 1029.42 26.9245 1032.01 28.6662C1033.79 29.8711 1035.25 31.1944 1035.24 31.6069C1035.23 32.0194 1032.5 33.8564 1029.18 35.6892C1021.16 40.1156 1022.85 42.0446 1032.56 39.53C1038.84 37.9012 1040.29 37.8908 1045.49 39.4363C1049.76 40.7043 1052.43 40.8671 1055.32 40.0366C1058.21 39.2075 1061.18 39.3856 1066.22 40.6901C1071.47 42.0513 1074.19 42.1898 1077.52 41.2651C1085.12 39.1549 1094.47 39.7509 1099.89 42.6913C1102.58 44.1529 1107.56 46.8572 1110.94 48.701C1116.93 51.9692 1117.19 52.0053 1121.34 50.1423C1124.82 48.5828 1126.76 48.4524 1131.89 49.4332C1136.99 50.4081 1138.85 50.2893 1141.72 48.8042C1144.53 47.3513 1144.98 46.6371 1143.91 45.345C1141.84 42.8463 1149.19 41.9174 1158.23 43.5366C1162.37 44.2782 1167.62 45.0185 1169.9 45.1817C1172.17 45.3449 1176.61 46.6405 1179.77 48.0609C1184.58 50.227 1188.21 50.7177 1202.29 51.1044C1215.65 51.4714 1219.91 52.006 1223.13 53.7238C1226.4 55.4673 1230.13 55.9108 1242.53 56.0317C1253.94 56.143 1259.06 56.6841 1262.44 58.139C1267.9 60.4874 1270.09 59.6261 1267.12 56.2966C1264.98 53.9017 1264.99 53.8984 1273.24 54.718C1287.06 56.0914 1303.65 59.1167 1309.26 61.2894C1312.19 62.4207 1317.76 63.7353 1321.64 64.2107C1325.53 64.6861 1331.2 66.3374 1334.24 67.8802C1338.87 70.2219 1340.37 70.4806 1343.33 69.4462C1347.39 68.0316 1350.02 69.0502 1356.22 74.4328L1360.07 77.7773L1357.17 78.5056C1354.26 79.2365 1346.53 77.3221 1343.86 75.2106C1343.08 74.5897 1341.98 74.3645 1341.42 74.7102C1340.86 75.0558 1338.1 74.5446 1335.28 73.5741C1328.68 71.301 1325.75 72.1548 1328.76 75.475C1330.81 77.7426 1330.77 77.7902 1326.85 77.5173C1319.53 77.0064 1321.54 79.1692 1332.29 83.363C1338.14 85.6432 1343.17 87.7514 1343.48 88.0477C1344.59 89.1207 1340.93 90.4508 1338.27 89.9425C1335.35 89.3843 1328.16 92.5179 1328.16 94.3476C1328.16 94.9552 1327.02 96.5116 1325.63 97.8061C1323.31 99.9685 1322.83 100.017 1319.73 98.4123C1316.82 96.9099 1315.89 96.8942 1313.1 98.3011C1311.31 99.201 1308.26 100.32 1306.32 100.788C1304.37 101.256 1302.12 102.189 1301.31 102.86C1298.93 104.832 1303.12 110.574 1309.03 113.432C1312.24 114.988 1314.57 117.073 1315.26 119.017C1315.87 120.723 1317.16 123.524 1318.12 125.242C1319.7 128.043 1319.68 128.441 1317.99 129.091C1316.75 129.567 1316.39 130.521 1316.93 131.872C1317.38 133.003 1317.89 135.258 1318.06 136.882C1318.23 138.506 1318.75 140.716 1319.22 141.795C1319.82 143.198 1319.32 143.989 1317.46 144.58C1315.39 145.238 1313.99 144.445 1310.59 140.678C1308.23 138.078 1304.31 134.499 1301.87 132.723C1299.43 130.948 1295.05 126.333 1292.14 122.466C1287.02 115.646 1286.91 115.335 1288.61 112.045C1289.58 110.179 1290.38 107.431 1290.41 105.937C1290.43 104.443 1291.18 101.901 1292.07 100.288C1293.78 97.2068 1293.12 94.7464 1289.47 90.5628C1287.08 87.8159 1282.82 89.8751 1283.89 93.26C1284.88 96.3785 1281.85 97.389 1278.35 95.1034C1276.84 94.1124 1273.35 92.943 1270.61 92.5047C1265.89 91.7522 1265.54 91.8969 1264.32 95.1025C1263.61 96.9696 1263.31 99.9211 1263.66 101.661C1264.2 104.373 1263.82 104.928 1261.03 105.54C1259.14 105.957 1255.88 105.464 1253.24 104.357C1250.33 103.141 1247.58 102.774 1245.61 103.335C1243.92 103.816 1238.19 104.253 1232.88 104.306C1224.48 104.39 1222.86 104.757 1220.3 107.157C1218.69 108.672 1216.75 112.392 1216 115.424C1215.24 118.456 1213.86 122.12 1212.92 123.566C1211.3 126.065 1211.46 126.318 1216.09 128.679C1221.11 131.242 1226.59 131.917 1230.74 130.486C1233.94 129.381 1243.71 136.999 1246.76 142.979C1248.01 145.428 1250.08 147.991 1251.35 148.673C1256.18 151.255 1257.16 168.195 1253.12 179.269C1250.33 186.937 1247.2 189.444 1242.61 187.699C1240.86 187.032 1239.25 186.487 1239.03 186.487C1238.81 186.487 1237.5 188.667 1236.11 191.332C1234.29 194.832 1233.93 196.595 1234.83 197.679C1236.55 199.753 1235.28 202.451 1231.84 204.018C1230.25 204.742 1228.95 205.849 1228.95 206.478C1228.95 207.107 1232.64 210.164 1237.16 213.272C1242.91 217.227 1245.98 220.264 1247.38 223.386C1248.49 225.841 1249.18 228.044 1248.92 228.283C1248.65 228.521 1246.24 229.824 1243.55 231.178L1238.67 233.641L1235.73 226.895C1232.44 219.344 1229.62 216.308 1224.65 214.97C1222.14 214.296 1221.27 213.341 1221.27 211.273C1221.27 209.377 1220.05 207.766 1217.44 206.241C1213.65 204.02 1213.58 204.022 1209.54 206.516C1205.5 209.012 1205.46 209.014 1204.22 206.697C1203.53 205.411 1202.97 203.546 1202.97 202.551C1202.97 201.557 1201.97 200.212 1200.76 199.563C1198.96 198.597 1197.82 199.181 1194.5 202.769C1192.27 205.182 1189.41 207.744 1188.15 208.461C1186.19 209.574 1186.09 210.045 1187.44 211.671C1188.31 212.72 1191.31 214.858 1194.11 216.423C1198.57 218.913 1199.42 219.055 1200.92 217.552C1202.35 216.125 1203.51 216.072 1207.82 217.242L1213.01 218.649L1210.12 220.58C1204.76 224.161 1203.07 226.04 1202.31 229.272C1201.68 231.924 1202.05 232.722 1204.43 233.807C1206.02 234.531 1208.44 237.419 1209.8 240.226C1211.16 243.032 1213.89 246.278 1215.85 247.439C1220.18 249.993 1221.43 252.706 1218.93 254.103C1216.61 255.405 1217.72 257.352 1220.79 257.352C1224.47 257.352 1224.49 259.546 1220.93 272.21C1216.63 287.548 1212.74 292.665 1202.57 296.385C1198.57 297.85 1193.69 299.137 1191.75 299.245C1187.22 299.496 1183.7 301.414 1180.64 305.31L1178.21 308.403L1177.07 305.419C1175.59 301.526 1172.2 300.547 1167.33 302.608C1162.86 304.497 1159.92 307.509 1158.73 311.404C1157.67 314.889 1161.43 321.02 1167.66 325.952C1172.77 330.002 1178.51 340.164 1179.85 347.558C1181.03 353.989 1178.95 358.211 1173.38 360.722C1170.84 361.866 1168.47 363.742 1168.1 364.891C1167.23 367.651 1161.98 371.086 1161.02 369.53C1160.62 368.882 1160.61 367.368 1160.99 366.166C1161.37 364.965 1161.35 363.119 1160.95 362.065C1160.36 360.548 1159.72 360.412 1157.85 361.41C1155.91 362.449 1155.16 362.186 1153.59 359.912C1149.74 354.323 1138.57 345.342 1135.47 345.342C1134.38 345.342 1133.96 346.654 1134.15 349.476C1134.3 351.749 1133.83 356.182 1133.12 359.326C1131.95 364.449 1132.07 365.387 1134.27 368.361C1135.62 370.186 1137.06 373.015 1137.47 374.648C1137.88 376.306 1141.3 380.093 1145.2 383.226C1151.72 388.447 1152.4 389.478 1155.14 398.152C1156.76 403.277 1158.09 407.974 1158.09 408.59C1158.09 410.593 1155.62 409.782 1150.47 406.084C1145.15 402.261 1141.75 396.214 1138.91 385.524C1137.68 380.883 1136.33 378.893 1132.5 376.076C1127.8 372.62 1127.66 372.318 1128.04 366.601C1128.25 363.353 1128.79 358.749 1129.22 356.371C1129.84 353.022 1129.33 350.622 1126.98 345.741C1125.31 342.274 1123.33 336.948 1122.58 333.907C1120.92 327.112 1118.57 325.974 1114.42 329.951C1112.71 331.595 1110.97 332.941 1110.57 332.941C1108.69 332.941 1106.1 328.939 1106.72 326.987C1107.85 323.442 1100.93 311.084 1096.88 309.407C1094.67 308.489 1092.64 306.263 1091.28 303.257C1088.93 298.034 1086.29 296.036 1083.65 297.481C1082.69 298.005 1078.86 299.059 1075.13 299.824C1068.29 301.225 1065.84 303.295 1066.78 306.872C1067.12 308.189 1065.93 309.461 1063.06 310.829C1060.73 311.937 1058.23 314.167 1057.49 315.783C1056.76 317.4 1055.14 319.046 1053.89 319.441C1052.64 319.836 1050.72 321.644 1049.62 323.458C1048.52 325.272 1045.23 328.587 1042.32 330.825C1038.33 333.888 1037.09 335.601 1037.29 337.756C1038.45 350.35 1036.67 360.888 1032.33 367.146C1028.1 373.25 1027.81 373.42 1024.23 371.789C1022.26 370.892 1021.04 369.139 1020.54 366.462C1020.13 364.269 1017.75 358.087 1015.26 352.727C1000.15 320.291 997.921 314.102 999.208 308.244C1000.08 304.286 997.991 298.314 995.976 298.99C995.168 299.262 994.493 300.235 994.476 301.153C994.375 306.544 988.318 307.372 983.588 302.641L980.453 299.507L983.15 298.509C986.184 297.386 985.906 294.359 982.819 294.914C981.722 295.111 979.212 293.916 977.241 292.257C975.27 290.598 973.202 289.241 972.646 289.241C972.09 289.241 971.296 288.172 970.881 286.866C969.793 283.436 963.527 280.452 960.387 281.868C957.562 283.142 931.925 282.876 927.634 281.528C926.088 281.042 923.229 278.82 921.28 276.59C917.759 272.56 917.705 272.544 912.422 273.967C907.417 275.317 906.69 275.189 899.948 271.786C894.122 268.845 892.377 267.259 890.579 263.271C888.284 258.183 883.188 254.498 880.09 255.687C879.114 256.062 877.974 257.922 877.557 259.822C876.958 262.549 877.569 264.322 880.465 268.26C882.481 271.002 884.678 275.277 885.347 277.76C886.783 283.095 889.62 284.682 891.971 281.466C893.39 279.526 893.773 279.458 894.734 280.979C895.347 281.95 895.678 283.277 895.469 283.926C894.812 285.968 901.628 289.327 904.808 288.529C906.415 288.126 909.849 285.389 912.438 282.447C916.519 277.811 917.943 277.498 917.246 281.391C916.776 284.011 918.838 287.082 922.25 288.846C927.52 291.57 934.863 297.64 934.863 299.272C934.863 300.024 933.482 301.928 931.795 303.503C930.108 305.078 927.68 308.41 926.399 310.908C923.287 316.977 914.268 325.854 911.214 325.854C907.684 325.854 902.433 328.835 900.343 332.025C899.352 333.536 896.749 335.668 894.557 336.763C883.331 342.367 869.816 348.048 866.012 348.762C861.945 349.525 861.616 349.34 859.461 345.091C858.214 342.631 856.798 337.694 856.316 334.122C855.688 329.475 854.472 326.521 852.042 323.746C850.173 321.612 848.644 319.354 848.644 318.728C848.644 318.102 846.513 315.393 843.908 312.709C840.664 309.366 838.567 305.738 837.253 301.192C836.198 297.542 834.051 292.961 832.482 291.013C821.642 277.552 818.433 272.806 816.817 267.849C814.675 261.28 812.864 260.22 812.029 265.045L811.435 268.47L807.44 263.425C801.283 255.652 800.507 259.185 806.287 268.675C809.022 273.166 813.382 281.092 815.976 286.288C818.569 291.485 821.932 297.381 823.448 299.392C825.009 301.461 826.204 304.696 826.204 306.851C826.204 311.301 827.532 314.079 832.748 320.539C834.845 323.138 836.918 326.931 837.353 328.97C837.911 331.584 840.191 334.317 845.092 338.248C852.54 344.222 857.367 350.458 858.565 355.655C859.015 357.607 860.719 359.611 862.881 360.729C866.174 362.432 867.334 362.385 877.743 360.13C883.952 358.785 890.53 356.91 892.36 355.963L895.687 354.243L896.477 358.918C897.195 363.166 896.422 365.212 888.014 381.338C878.974 398.677 878.551 399.25 869.562 406.347C864.502 410.341 859.207 415.232 857.796 417.214C856.384 419.197 851.867 424.552 847.758 429.114C835.768 442.427 834.138 454.136 842.09 469.83C844.11 473.816 844.899 476.834 844.421 478.742C844.022 480.328 844.278 484.335 844.988 487.646C846.106 492.86 845.979 494.254 844.044 498.046C841.252 503.517 839.03 505.484 831.224 509.396C827.813 511.105 825.023 513.008 825.023 513.625C825.023 514.242 822.631 517.44 819.708 520.731C816.785 524.022 814.393 527.25 814.393 527.904C814.393 528.558 815.489 531.24 816.828 533.866C820.843 541.736 818.145 547.439 808.521 551.425C804.464 553.106 803.132 556.537 804.136 562.721C804.661 565.962 804.327 567.04 802.491 568.023C801.223 568.701 798.931 571.227 797.398 573.635C792.557 581.238 778.64 594.693 772.317 597.882C767.041 600.543 765.692 600.778 761.816 599.708C758.398 598.764 755.64 598.913 749.91 600.353C740.63 602.684 741.614 602.781 738.02 599.186ZM893.584 222.48C896.633 220.903 897.068 220.035 897.068 215.538C897.068 212.314 896.379 209.826 895.219 208.863C894.202 208.019 892.554 205.751 891.556 203.822C889.907 200.632 889.914 200.382 891.634 201.042C893.906 201.913 897.068 200.865 897.068 199.24C897.068 198.598 895.97 196.529 894.627 194.643C892.604 191.801 891.793 191.423 889.902 192.435C888.373 193.254 887.62 193.261 887.62 192.458C887.62 191.799 885.512 190.183 882.935 188.869C877.233 185.96 875.204 182.737 876.983 179.414C878.329 176.899 883.137 175.137 885.19 176.406C887.959 178.117 888.775 175.595 886.491 172.387C880.951 164.607 873.238 165.119 863.673 173.902C857.5 179.569 856.964 181.075 860.455 182.943C861.754 183.639 862.817 184.998 862.817 185.964C862.817 186.93 864.918 189.999 867.486 192.786C873.399 199.202 874.484 202.133 873.752 209.726L873.163 215.839L881.277 220.002C885.74 222.292 889.551 224.192 889.745 224.224C889.94 224.256 891.667 223.471 893.584 222.48ZM861.046 552.39C857.711 550.498 857.237 549.5 856.366 542.529C855.67 536.958 855.961 535.747 859.293 530.331C862.68 524.826 862.924 523.766 862.177 517.787C861.098 509.154 862.934 504.617 867.952 503.516C872.679 502.479 882.908 493.449 885.359 488.148L887.232 484.098L888.534 486.955C891.809 494.144 891.476 497.302 885.777 513.069C882.728 521.505 879.457 531.597 878.508 535.494C875.471 547.968 873.746 550.975 868.771 552.466C863.475 554.053 863.987 554.058 861.046 552.39ZM1442.84 531.856C1439.07 527.733 1436.82 524.195 1436.82 522.407C1436.82 518.444 1437.45 518.79 1440.86 524.606C1442.49 527.387 1445.44 531.207 1447.41 533.094C1449.38 534.982 1450.99 536.959 1450.99 537.487C1450.99 539.759 1448.48 538.021 1442.84 531.856ZM915.966 530.179C915.966 529.53 916.497 528.998 917.147 528.998C917.796 528.998 918.328 529.53 918.328 530.179C918.328 530.829 917.796 531.36 917.147 531.36C916.497 531.36 915.966 530.829 915.966 530.179ZM1537.93 528.025C1537.51 527.351 1537.75 526.444 1538.45 526.009C1540.2 524.924 1540.83 525.787 1539.65 527.682C1539.03 528.698 1538.42 528.819 1537.93 528.025ZM924.233 526.115C924.233 525.829 924.765 525.266 925.414 524.865C926.064 524.463 926.595 524.697 926.595 525.385C926.595 526.073 926.064 526.636 925.414 526.636C924.765 526.636 924.233 526.402 924.233 526.115ZM1507.21 514.128C1506.06 511.131 1507.52 510.08 1510.78 511.563C1513.59 512.843 1513.65 513.039 1511.69 514.471C1508.95 516.474 1508.09 516.408 1507.21 514.128ZM1514.7 508.876C1512.39 507.45 1513.99 506.31 1517.66 506.764C1520.54 507.12 1520.6 507.25 1518.55 508.516C1517.24 509.326 1515.66 509.473 1514.7 508.876ZM1459.55 504.542C1457.13 499.319 1457.98 497.313 1460.49 502.34C1463.1 507.571 1463.14 507.743 1461.92 507.73C1461.43 507.725 1460.37 506.29 1459.55 504.542ZM1464.08 503.704C1464.02 502.459 1464.3 501.761 1464.7 502.154C1465.09 502.546 1465.13 503.565 1464.79 504.417C1464.41 505.359 1464.13 505.08 1464.08 503.704ZM1560.23 492.364C1559.15 490.615 1560.17 489.722 1562.69 490.214C1564.54 490.574 1564.56 490.765 1562.89 492.147C1561.56 493.248 1560.81 493.309 1560.23 492.364ZM862.227 486.48C861.825 485.83 862.06 485.299 862.748 485.299C863.436 485.299 863.998 485.83 863.998 486.48C863.998 487.129 863.764 487.661 863.478 487.661C863.191 487.661 862.628 487.129 862.227 486.48ZM1380.72 475.383C1373.24 473.027 1369.85 470.837 1366.91 466.465C1363.55 461.471 1357.4 457.69 1354.26 458.687C1352.99 459.09 1350.85 461.281 1349.51 463.556C1347.23 467.429 1346.79 467.642 1342.64 466.904C1340.2 466.47 1336.79 464.799 1335.06 463.191C1332.87 461.147 1331.19 460.501 1329.48 461.044C1328.13 461.471 1326.18 461.346 1325.14 460.765C1323.51 459.856 1323.67 459.43 1326.27 457.729C1329.28 455.758 1329.28 455.732 1327.27 451.5C1325.64 448.101 1323.41 446.329 1316.1 442.653C1311.07 440.124 1305.38 438.056 1303.46 438.056C1299.07 438.056 1297.26 434.007 1300.57 431.588C1302.53 430.149 1302.25 429.791 1297.11 427.297C1291.66 424.648 1291.58 424.536 1294.19 423.09C1295.66 422.273 1298.03 421.586 1299.45 421.563C1302.22 421.518 1305.72 425.51 1305.72 428.711C1305.72 429.778 1306.87 432.111 1308.27 433.895C1310.79 437.093 1310.85 437.106 1312.7 434.797C1313.73 433.509 1317.03 431.051 1320.02 429.334L1325.47 426.214L1333.01 429.619C1337.16 431.492 1343.06 433.923 1346.11 435.023C1349.16 436.122 1355.26 439.391 1359.67 442.286C1368.09 447.814 1371.74 452.475 1369.65 455.002C1367.94 457.062 1374.65 466.445 1381.6 471.71C1389.24 477.496 1389.11 478.031 1380.72 475.383ZM1432.12 475.288C1431.19 474.166 1431.1 473.488 1431.88 473.488C1433.31 473.488 1434.97 475.729 1434.15 476.548C1433.85 476.845 1432.94 476.278 1432.12 475.288ZM1233.67 470.48C1231.96 469.534 1231.47 468.837 1232.49 468.824C1234.6 468.795 1237.98 470.761 1237.18 471.556C1236.87 471.862 1235.3 471.379 1233.67 470.48ZM1253.64 468.92C1256.99 464.216 1262.23 462.203 1267.08 463.759C1270.61 464.893 1270.66 464.988 1267.86 465.1C1266.2 465.166 1262.33 466.815 1259.26 468.764C1252.24 473.211 1250.55 473.258 1253.64 468.92ZM1425.01 470.535C1423.41 468.612 1423.79 468.372 1426.68 469.481C1427.71 469.875 1428.55 470.672 1428.55 471.252C1428.55 472.886 1426.64 472.499 1425.01 470.535ZM1430.54 469.493C1430.1 468.336 1429.77 466.503 1429.81 465.419C1429.86 464.114 1430.27 464.412 1431.02 466.3C1431.65 467.869 1431.98 469.702 1431.75 470.374C1431.53 471.047 1430.98 470.65 1430.54 469.493ZM1521.86 470.605C1521.86 470.319 1522.39 469.756 1523.04 469.354C1523.69 468.953 1524.22 469.187 1524.22 469.875C1524.22 470.563 1523.69 471.126 1523.04 471.126C1522.39 471.126 1521.86 470.891 1521.86 470.605ZM1219.79 465.644C1218.97 465.3 1218.61 464.533 1218.97 463.939C1219.87 462.479 1227.44 462.56 1228.36 464.039C1228.76 464.689 1228.39 465.228 1227.54 465.237C1226.69 465.246 1224.93 465.482 1223.63 465.761C1222.34 466.041 1220.6 465.989 1219.79 465.644ZM1237.32 464.758C1235.18 462.172 1237.65 461.385 1243.21 462.883C1248.82 464.392 1248.8 464.628 1242.99 465.677C1239.97 466.222 1238.31 465.953 1237.32 464.758ZM1414.65 464.039C1413.83 462.731 1413.69 461.677 1414.33 461.677C1414.96 461.677 1416.04 462.74 1416.74 464.039C1417.44 465.339 1417.58 466.402 1417.07 466.402C1416.55 466.402 1415.46 465.339 1414.65 464.039ZM1422.05 462.851C1418.89 459.362 1420.58 458.813 1423.83 462.272C1425.35 463.894 1426.06 465.22 1425.4 465.22C1424.73 465.22 1423.23 464.154 1422.05 462.851ZM1200.6 462.646C1196.38 462.061 1190.43 460.762 1187.37 459.76C1184.32 458.758 1180.72 458.287 1179.38 458.714C1176.67 459.572 1165.17 456.191 1165.17 454.537C1165.17 450.762 1175.76 450.475 1181.39 454.098C1183.49 455.451 1185.14 455.541 1189.58 454.546C1194.5 453.443 1195.53 453.579 1198.42 455.716C1200.22 457.046 1202.22 458.134 1202.88 458.134C1205.21 458.134 1212.3 462.085 1211.7 463.053C1211.37 463.595 1210.46 463.965 1209.69 463.875C1208.91 463.784 1204.83 463.232 1200.6 462.646ZM1412.61 456.953C1411.43 455.654 1411 454.591 1411.65 454.591C1412.3 454.591 1413.79 455.654 1414.97 456.953C1416.14 458.252 1416.57 459.315 1415.92 459.315C1415.28 459.315 1413.78 458.252 1412.61 456.953ZM1405.16 455.457C1404.49 454.649 1403.6 452.396 1403.18 450.45C1402.5 447.317 1402.58 447.183 1403.84 449.276C1404.62 450.575 1406.02 452.516 1406.94 453.588C1407.92 454.724 1408.16 455.827 1407.5 456.232C1406.88 456.614 1405.83 456.265 1405.16 455.457ZM1380.15 451.702L1377.21 450.077L1381.76 449.224C1384.26 448.755 1388.11 446.792 1390.3 444.863C1392.7 442.756 1394.29 441.993 1394.28 442.953C1394.25 445.355 1392.8 447.205 1388.39 450.462C1383.78 453.865 1383.99 453.832 1380.15 451.702ZM1158.59 447.103C1154.25 444.631 1146.43 435.067 1143.88 429.122C1142.51 425.916 1139.36 420.635 1136.88 417.387C1134.41 414.139 1131.56 409.887 1130.57 407.939C1129.57 405.99 1126.54 402.269 1123.83 399.671C1118.13 394.193 1114.62 388.436 1117.01 388.477C1120.11 388.53 1128.09 392.966 1131.51 396.538C1140.95 406.392 1142.88 408.146 1147.34 410.891C1151.64 413.541 1153.68 416.298 1153.88 419.749C1153.92 420.399 1155.14 422.259 1156.6 423.883C1158.06 425.507 1160.8 428.561 1162.71 430.67C1164.61 432.779 1166.51 436.07 1166.93 437.983C1168.3 444.244 1163.26 449.762 1158.59 447.103ZM920.69 446.323C920.69 445.674 921.221 445.142 921.871 445.142C922.521 445.142 923.052 445.674 923.052 446.323C923.052 446.973 922.521 447.504 921.871 447.504C921.221 447.504 920.69 446.973 920.69 446.323ZM1233.08 446.313C1232.67 445.657 1232.67 444.087 1233.06 442.823C1233.47 441.558 1232.98 439.281 1231.98 437.755C1230.33 435.245 1230.35 434.719 1232.15 432.155C1233.24 430.599 1234.52 426.42 1235 422.868C1235.6 418.486 1236.77 415.519 1238.66 413.634C1241.23 411.056 1241.88 410.942 1247.68 412.041C1252.65 412.984 1254.61 412.868 1257.32 411.467C1261.85 409.122 1262.18 409.227 1260.68 412.532C1258.76 416.734 1254.94 418.077 1250.9 415.964C1243.7 412.19 1234.15 417.798 1239.19 422.84C1241.04 424.693 1242.07 424.862 1245.5 423.877C1251.38 422.19 1253.7 422.5 1250.05 424.485C1245.91 426.732 1245.13 429.226 1247.26 433.348C1248.23 435.223 1249.02 438.131 1249.02 439.81C1249.02 442.498 1248.74 442.712 1246.66 441.598C1245.36 440.902 1243.48 438.389 1242.49 436.014C1240.7 431.728 1240.67 431.713 1238.38 434.005C1236.37 436.015 1236.23 436.908 1237.33 440.892C1238.33 444.492 1238.26 445.682 1237.02 446.469C1234.93 447.791 1233.96 447.753 1233.07 446.313H1233.08ZM1395.12 440.013C1394.01 438.314 1391.46 436.076 1389.45 435.041C1387.45 434.005 1386.08 432.892 1386.4 432.567C1388.24 430.73 1398.49 439.072 1397.61 441.692C1397.35 442.497 1396.28 441.776 1395.12 440.013ZM1209.65 436.082C1207.87 435.149 1205.47 434.684 1204.31 435.05C1201.38 435.982 1189.7 433.607 1188.55 431.841C1187.63 430.436 1184.92 421.783 1183.48 415.615C1183.08 413.92 1183.48 411.719 1184.4 410.446C1185.76 408.599 1186.46 408.459 1188.6 409.605C1190.86 410.814 1191.34 410.607 1192.57 407.888C1193.35 406.188 1195.93 403.804 1198.31 402.591C1200.82 401.307 1203.24 398.902 1204.1 396.832C1205.09 394.445 1206.89 392.841 1209.6 391.949C1211.81 391.219 1215.01 388.804 1216.7 386.583C1218.4 384.362 1220.41 382.545 1221.18 382.545C1221.95 382.545 1224.28 384.3 1226.36 386.444L1230.14 390.343L1227.11 394.417C1223.67 399.044 1223.85 403.024 1227.75 408.5L1230.11 411.815L1227.17 413.743C1225.55 414.803 1224.23 416.322 1224.23 417.119C1224.24 419.824 1216.67 435.417 1214.78 436.601C1213.45 437.426 1211.92 437.271 1209.65 436.082ZM1278.26 436.061C1275.82 435.422 1275.48 433.332 1277.82 433.332C1278.71 433.332 1281.21 433.685 1283.37 434.118C1286.7 434.783 1286.95 435.042 1285 435.806C1282.43 436.81 1281.29 436.853 1278.26 436.061ZM1466.34 421C1466.34 420.714 1466.88 420.151 1467.53 419.749C1468.18 419.348 1468.71 419.582 1468.71 420.27C1468.71 420.958 1468.18 421.521 1467.53 421.521C1466.88 421.521 1466.34 421.286 1466.34 421ZM1274.12 417.797C1273.18 416.853 1273.12 415.758 1273.94 414.229C1274.59 413.016 1274.81 411.514 1274.42 410.891C1273.36 409.168 1276.02 404.986 1278.19 404.986C1279.92 404.986 1279.92 405.189 1278.11 407.183C1276.55 408.907 1276.38 410.048 1277.31 412.487C1279.18 417.418 1277.14 420.817 1274.12 417.797ZM680.932 413.914C680.932 413.627 681.464 413.064 682.113 412.663C682.763 412.261 683.294 412.496 683.294 413.184C683.294 413.872 682.763 414.434 682.113 414.434C681.464 414.434 680.932 414.2 680.932 413.914ZM1500.01 410.891C1499.6 410.242 1499.84 409.71 1500.53 409.71C1501.21 409.71 1501.78 410.242 1501.78 410.891C1501.78 411.541 1501.54 412.072 1501.26 412.072C1500.97 412.072 1500.41 411.541 1500.01 410.891ZM688.019 399.741C688.019 399.454 688.55 398.891 689.2 398.49C689.849 398.088 690.381 398.323 690.381 399.011C690.381 399.699 689.849 400.261 689.2 400.261C688.55 400.261 688.019 400.027 688.019 399.741ZM1256.13 381.983C1253.87 376.728 1253.57 376.492 1250.11 377.253C1246.65 378.012 1246.53 377.919 1247.82 375.5C1248.9 373.496 1249.89 373.099 1252.43 373.657C1254.88 374.195 1256.45 373.651 1258.85 371.427C1260.59 369.809 1262.03 367.53 1262.05 366.362C1262.08 363.381 1266.47 373.378 1267.47 378.723C1268.23 382.782 1268.13 383.002 1266.29 381.473C1263.55 379.204 1260.91 381.558 1263.16 384.267C1264.06 385.348 1264.17 386.089 1263.44 386.089C1262.77 386.089 1261.38 386.409 1260.35 386.802C1258.98 387.328 1257.88 386.065 1256.13 381.983ZM1040.78 384.07C1039.46 381.925 1038.71 372.301 1039.67 369.747C1040.68 367.038 1040.75 367.071 1043.76 371.518C1047.37 376.848 1048.52 380.266 1047.33 382.091C1046.19 383.838 1041.51 385.253 1040.78 384.07ZM1304.54 377.961C1304.54 377.311 1305.07 376.451 1305.72 376.05C1306.37 375.648 1306.9 375.851 1306.9 376.501C1306.9 377.15 1306.37 378.01 1305.72 378.412C1305.07 378.813 1304.54 378.61 1304.54 377.961ZM1489.97 377.821C1489.97 377.172 1490.2 376.64 1490.49 376.64C1490.77 376.64 1491.34 377.172 1491.74 377.821C1492.14 378.471 1491.9 379.002 1491.22 379.002C1490.53 379.002 1489.97 378.471 1489.97 377.821ZM1221.86 370.998C1221.86 370.493 1224.23 367.437 1227.12 364.207C1231.37 359.473 1232.4 358.804 1232.44 360.76C1232.47 362.095 1230.69 365.151 1228.49 367.551C1224.77 371.622 1221.86 373.131 1221.86 370.998ZM1247.44 367.846C1247.01 366.725 1247.1 365.022 1247.64 364.063C1248.47 362.576 1248.82 362.561 1249.98 363.966C1251.03 365.224 1250.98 366.119 1249.79 367.749C1248.32 369.751 1248.18 369.757 1247.44 367.846ZM342.991 363.244C343.714 362.373 343.957 361.31 343.529 360.882C343.102 360.455 343.854 360.105 345.201 360.105C347.067 360.105 347.502 360.666 347.031 362.467C346.673 363.839 345.42 364.829 344.044 364.829C342.197 364.829 341.965 364.481 342.991 363.244ZM1255.37 362.932C1254.93 361.702 1254.35 360.297 1254.09 359.81C1253.83 359.323 1254.11 358.924 1254.73 358.924C1255.9 358.924 1257.56 363.774 1256.69 364.652C1256.4 364.935 1255.81 364.161 1255.37 362.932ZM1243.4 359.85C1241.74 357.851 1243.36 355.006 1245.84 355.56C1247.39 355.907 1247.45 356.398 1246.2 358.709C1245 360.938 1244.48 361.15 1243.4 359.85ZM1257.36 355.791C1256.01 354.068 1255.1 352.461 1255.34 352.22C1256.3 351.26 1259.62 353.375 1261.39 356.071C1264.1 360.216 1260.66 359.976 1257.36 355.791ZM1237.95 351.219C1236.9 350.167 1236.04 348.695 1236.04 347.948C1236.04 347.2 1237.2 347.755 1238.63 349.18C1240.05 350.606 1240.91 352.078 1240.54 352.452C1240.17 352.825 1239 352.271 1237.95 351.219ZM310.863 351.05C310.43 350.617 310.076 349.714 310.076 349.042C310.076 348.302 310.626 348.372 311.473 349.22C312.242 349.988 312.596 350.892 312.261 351.227C311.925 351.563 311.296 351.483 310.863 351.05ZM304.17 349.475C304.17 348.826 304.405 348.294 304.691 348.294C304.978 348.294 305.541 348.826 305.942 349.475C306.344 350.125 306.109 350.657 305.421 350.657C304.733 350.657 304.17 350.125 304.17 349.475ZM359.681 347.113C359.681 346.464 359.915 345.932 360.202 345.932C360.488 345.932 361.051 346.464 361.452 347.113C361.854 347.763 361.62 348.294 360.932 348.294C360.244 348.294 359.681 347.763 359.681 347.113ZM1249.83 346.933C1248.64 346.266 1246.4 346.039 1244.84 346.431C1242.55 347.005 1240.98 346.085 1236.7 341.68C1230.65 335.458 1229.47 332.834 1231.25 329.519C1231.93 328.238 1232.49 325.592 1232.49 323.639C1232.49 317.228 1236.79 317.487 1239.93 324.088C1241.68 327.745 1241.69 328.53 1240.05 332.453C1238.29 336.676 1238.32 336.864 1241.47 340.149C1243.74 342.522 1245.45 343.328 1247.24 342.877C1248.76 342.496 1250.4 342.968 1251.29 344.045C1253.42 346.608 1252.49 348.436 1249.83 346.933ZM352.594 339.506C352.594 339.22 353.126 338.657 353.775 338.255C354.425 337.854 354.957 338.088 354.957 338.776C354.957 339.464 354.425 340.027 353.775 340.027C353.126 340.027 352.594 339.793 352.594 339.506ZM538.023 335.303C538.023 334.653 538.554 334.122 539.204 334.122C539.853 334.122 540.385 334.653 540.385 335.303C540.385 335.952 539.853 336.484 539.204 336.484C538.554 336.484 538.023 335.952 538.023 335.303ZM349.051 330.718C349.051 330.068 349.583 329.208 350.232 328.807C350.882 328.405 351.413 328.608 351.413 329.258C351.413 329.907 350.882 330.767 350.232 331.169C349.583 331.57 349.051 331.367 349.051 330.718ZM339.02 325.868C338.607 325.198 339.081 325 340.132 325.403C342.178 326.189 342.552 327.035 340.853 327.035C340.242 327.035 339.417 326.51 339.02 325.868ZM526.802 325.854C526.401 325.204 526.635 324.673 527.323 324.673C528.011 324.673 528.574 325.204 528.574 325.854C528.574 326.504 528.34 327.035 528.053 327.035C527.767 327.035 527.204 326.504 526.802 325.854ZM343.736 323.492C343.335 322.842 343.569 322.311 344.257 322.311C344.945 322.311 345.508 322.842 345.508 323.492C345.508 324.141 345.274 324.673 344.987 324.673C344.701 324.673 344.138 324.141 343.736 323.492ZM349.051 323.492C349.051 322.842 349.286 322.311 349.572 322.311C349.858 322.311 350.421 322.842 350.823 323.492C351.224 324.141 350.99 324.673 350.302 324.673C349.614 324.673 349.051 324.141 349.051 323.492ZM267.852 320.347C267.04 320.02 266.376 319.265 266.376 318.669C266.376 316.966 271.59 317.405 274.123 319.321C276.301 320.968 276.238 321.052 272.872 320.999C270.923 320.968 268.664 320.675 267.852 320.347ZM297.739 319.678C296.679 319.085 294.339 318.923 292.538 319.319C290.737 319.714 287.967 319.519 286.383 318.886C283.835 317.866 284.06 317.746 288.333 317.846C294.612 317.993 296.288 316.97 294.684 313.972C293.544 311.843 293.887 311.681 299.521 311.681C304.972 311.681 312.835 314.181 314.167 316.337C315.053 317.771 299.854 320.861 297.739 319.678ZM320.394 320.424C318.994 319.025 320.734 317.587 323.826 317.587C325.683 317.587 326.624 318.143 326.321 319.063C325.777 320.716 321.637 321.667 320.394 320.424ZM1174.87 318.546C1171.74 315.419 1174.84 311.681 1180.56 311.681C1183.09 311.681 1183.09 311.702 1180.92 315.425C1178.38 319.765 1176.87 320.546 1174.87 318.546ZM330.154 318.303C330.154 318.048 330.951 317.533 331.926 317.159C332.9 316.785 333.697 316.994 333.697 317.624C333.697 318.253 332.9 318.768 331.926 318.768C330.951 318.768 330.154 318.559 330.154 318.303ZM279.099 309.837C278.734 309.473 276.241 309.144 273.558 309.107C269.857 309.056 268.969 308.692 269.877 307.598C270.755 306.541 269.495 305.133 265.153 302.32C256.639 296.803 251.886 295.725 246.166 298.014C240.803 300.16 240.393 300.22 240.393 298.869C240.393 296.397 249.792 293.678 256.561 294.193C263.034 294.685 266.658 296.062 279.368 302.862C289.815 308.451 289.826 308.461 286.454 309.423C282.625 310.515 279.928 310.666 279.099 309.837ZM287.635 299.87C289.925 298.391 291.179 298.391 291.179 299.87C291.179 300.52 289.983 301.043 288.521 301.033C286.372 301.019 286.203 300.796 287.635 299.87ZM1228.24 297.776C1227.53 297.304 1226.3 295.695 1225.51 294.2C1224.32 291.947 1224.45 290.853 1226.23 287.799C1228.98 283.082 1230.84 282.494 1231.74 286.056C1232.68 289.804 1229.96 298.912 1228.24 297.776ZM295.39 296.202C296.178 294.926 300.628 294.782 300.626 296.032C300.626 296.519 299.301 296.994 297.682 297.088C296.062 297.181 295.031 296.782 295.39 296.202ZM272.035 284.819C270.146 282.651 270.421 279.792 272.518 279.792C273.189 279.792 273.467 280.83 273.135 282.098C272.804 283.366 273.14 284.622 273.883 284.889C274.626 285.156 274.921 285.716 274.538 286.134C274.155 286.551 273.029 285.96 272.035 284.819ZM278.896 275.54C278.475 274.445 278.397 273.283 278.722 272.958C279.047 272.633 279.656 273.264 280.077 274.359C280.497 275.455 280.575 276.617 280.25 276.941C279.925 277.266 279.316 276.636 278.896 275.54ZM271.494 274.477C271.494 273.503 272.506 272.706 273.744 272.706C275.743 272.706 275.797 272.903 274.222 274.477C273.247 275.452 272.235 276.249 271.972 276.249C271.709 276.249 271.494 275.452 271.494 274.477ZM1262.02 248.584C1262.02 247.66 1260.73 245.37 1259.15 243.496C1255.41 239.047 1256.74 236.078 1261.17 238.983C1264.35 241.071 1266.02 245.337 1264.84 248.4C1263.95 250.723 1262.02 250.849 1262.02 248.584ZM345.508 241.477C345.508 241.191 346.039 240.628 346.689 240.226C347.339 239.825 347.87 240.059 347.87 240.747C347.87 241.435 347.339 241.998 346.689 241.998C346.039 241.998 345.508 241.764 345.508 241.477ZM1268.6 240.025C1267.84 238.03 1269.64 236.144 1272.35 236.111C1274.23 236.088 1274.27 238.728 1272.41 240.581C1270.49 242.506 1269.5 242.362 1268.6 240.025ZM1279.39 235.714C1277.1 232.215 1273.86 231.734 1266.44 233.794C1263.43 234.631 1261.35 234.64 1259.95 233.823C1258.81 233.162 1258.51 232.605 1259.27 232.585C1260.03 232.566 1262.26 231.202 1264.22 229.555C1266.74 227.431 1268.59 226.766 1270.59 227.267C1272.7 227.797 1274.98 226.782 1279.78 223.176C1289.12 216.155 1289.97 213.941 1286.17 206.439C1282.52 199.239 1283.54 196.921 1288.94 200.115C1292.88 202.439 1296.58 209.097 1295.51 211.904C1295.12 212.915 1295.7 216.085 1296.79 218.95C1298.34 223.005 1298.49 224.709 1297.45 226.639C1295.94 229.474 1291.72 231.368 1286.92 231.368C1284.23 231.368 1283.42 232.058 1282.54 235.124L1281.47 238.879L1279.39 235.714ZM800.929 231.683C799.519 230.273 800.269 229.006 802.513 229.006C803.774 229.006 805.134 228.475 805.535 227.825C806.633 226.049 808.505 226.405 807.795 228.256C807.067 230.154 801.953 232.707 800.929 231.683ZM760.655 229.639L757.111 228.017L761.836 227.937C767.72 227.838 772.054 228.941 771.201 230.321C770.251 231.859 764.721 231.501 760.655 229.639ZM712.943 217.858C708.217 215.438 707.994 215.136 710.462 214.49C713.417 213.718 719.958 214.679 719.825 215.867C719.779 216.273 719.38 217.485 718.939 218.56C718.213 220.328 717.638 220.261 712.943 217.858ZM689.27 205.08C688.248 202.147 688.329 201.025 689.657 199.697C692.058 197.296 693.924 198.983 693.924 203.556C693.924 208.958 690.961 209.928 689.27 205.08ZM661.575 206.061C662.413 203.878 666.007 203.508 665.284 205.68C665.013 206.492 663.908 207.328 662.827 207.537C661.457 207.803 661.078 207.356 661.575 206.061ZM1278.69 192.579C1276.53 189.543 1276.47 188.983 1278.06 186.704C1279.63 184.465 1279.63 183.794 1278.01 180.67C1275.35 175.532 1275.73 175.221 1280.33 178.735C1282.61 180.473 1287.11 182.675 1290.32 183.63C1296.97 185.604 1298.57 187.153 1295.11 188.253C1293.8 188.668 1292.73 189.779 1292.73 190.722C1292.73 192.008 1291.91 192.229 1289.48 191.607C1283.25 190.011 1281.48 190.401 1281.88 193.279C1282.37 196.804 1281.57 196.63 1278.69 192.579ZM691.168 193.968C689.798 192.597 690.315 190.308 692.152 189.603C693.432 189.112 693.924 189.732 693.924 191.838C693.924 194.674 692.768 195.567 691.168 193.968ZM1271.19 169.066C1270.19 167.929 1267.78 163.809 1265.83 159.91C1263.88 156.011 1258.72 148.852 1254.37 144C1249.51 138.579 1247.04 134.985 1247.96 134.677C1248.79 134.401 1250.56 135.636 1251.91 137.421C1255.15 141.749 1259.16 145.506 1265.47 150.159C1270.7 154.016 1273.29 157.585 1269.91 156.29C1266.02 154.795 1266.99 158.342 1272.03 164.016C1274.97 167.324 1277.37 170.278 1277.37 170.582C1277.37 172.018 1272.81 170.898 1271.19 169.066ZM406.924 166.999C406.924 166.024 407.438 165.227 408.068 165.227C408.697 165.227 408.906 166.024 408.532 166.999C408.158 167.973 407.643 168.77 407.388 168.77C407.133 168.77 406.924 167.973 406.924 166.999ZM400.752 163.188L396.352 162.726L404.632 154.528C409.186 150.019 413.507 146.33 414.234 146.33C415.002 146.33 414.772 147.198 413.686 148.398C411.227 151.115 412.904 154.167 417.397 155.154C419.359 155.585 421.314 157.088 422.069 158.746C423.282 161.408 423.077 161.679 418.985 162.815C414.692 164.008 409.567 164.112 400.752 163.188ZM112.962 154.714C108.871 150.893 108.414 149.282 111.127 148.241C113.557 147.309 118.041 150.348 119.741 154.079C121.525 157.994 121.493 158.141 118.867 158.141C117.637 158.141 114.979 156.599 112.962 154.714ZM633.099 148.714C634.398 148.073 636.955 147.01 638.78 146.351C642.802 144.9 642.135 143.354 637.048 142.337C633.559 141.639 633.436 141.461 635.432 140.001C636.621 139.132 637.247 137.861 636.824 137.176C636.392 136.476 637.606 135.39 639.596 134.696C641.544 134.017 643.138 132.937 643.138 132.296C643.138 129.568 640.676 124.979 639.308 125.157C636.155 125.568 634.695 125.012 635.203 123.594C635.494 122.782 635.254 121.188 634.669 120.051C633.149 117.095 636.643 110.982 639.89 110.916C640.377 110.907 640.643 111.55 640.481 112.346C640.318 113.143 641.433 113.984 642.957 114.215L645.729 114.635L643.081 117.455L640.432 120.274L643.418 121.409C646.623 122.628 649.711 126.597 652.857 133.54C654.364 136.866 655.355 137.735 657.114 137.275C660.723 136.331 661.151 138.777 657.765 140.996C655.471 142.499 655.036 143.346 656.04 144.351C657.045 145.356 655.064 146.03 648.194 147.021C643.14 147.751 637.144 148.692 634.87 149.113C631.708 149.699 631.292 149.605 633.099 148.714ZM613.181 142.189C612.777 141.137 613.238 138.744 614.206 136.874C615.316 134.727 615.531 133.204 614.788 132.745C612.741 131.48 613.509 129.866 616.515 129.111C618.113 128.71 620.038 127.637 620.794 126.727C622.367 124.831 629.643 124.482 630.735 126.25C631.136 126.898 630.636 128.611 629.624 130.056C628.612 131.501 627.784 134.096 627.784 135.823C627.784 138.457 626.974 139.245 622.765 140.706C620.004 141.664 616.883 142.821 615.831 143.276C614.596 143.81 613.655 143.424 613.181 142.189ZM634.87 130.455C634.87 130.169 635.402 129.606 636.052 129.205C636.701 128.803 637.233 129.037 637.233 129.725C637.233 130.413 636.701 130.976 636.052 130.976C635.402 130.976 634.87 130.742 634.87 130.455ZM110.711 124.765C109.554 123.371 109.627 122.721 111.079 121.516C113.479 119.524 114.67 120.875 113.273 124.006C112.31 126.165 111.959 126.269 110.711 124.765ZM108.864 115.882C108.465 115.237 108.93 114.052 109.897 113.249C111.817 111.656 112.218 112.905 110.604 115.453C109.987 116.426 109.304 116.595 108.864 115.882ZM32.524 115.129C32.524 114.298 36.1052 112.845 41.1857 111.614C43.1116 111.148 44.2503 111.26 43.8677 111.879C43.502 112.471 41.7301 113.252 39.9302 113.615C38.1304 113.979 35.7276 114.636 34.5908 115.075C33.4541 115.515 32.524 115.539 32.524 115.129ZM734.376 101.848C732.197 100.969 732.582 99.6141 735.065 99.4271C736.256 99.3374 737.23 100.021 737.23 100.947C737.23 102.706 736.821 102.835 734.376 101.848ZM474.835 95.8119C467.361 91.7361 463.789 85.4742 465.954 80.2459C466.979 77.7715 467.01 76.2155 466.071 74.4596C464.115 70.8052 466.667 66.5226 473.192 62.5073C476.292 60.6002 479.386 57.9958 480.069 56.7199C481.961 53.1848 480.276 47.127 476.984 45.6269C475.317 44.8677 474.411 43.6671 474.779 42.7077C475.617 40.5228 471.685 33.0604 467.769 29.4041C464.886 26.7131 463.646 26.4451 453.776 26.3805C440.336 26.2925 437.832 25.5453 438.054 21.6888C438.147 20.0868 438.502 18.7757 438.844 18.7752C439.185 18.7748 443.969 18.2204 449.473 17.5433C456.501 16.6788 462.803 14.8959 470.637 11.5552C482.766 6.38293 483.69 6.28186 512.63 6.96209C521.768 7.17689 530.175 6.50056 540.975 4.68177C551.033 2.98799 558.434 2.3495 562.43 2.83075C565.825 3.23966 570.741 2.96996 573.517 2.22256C579.958 0.488164 596.693 2.57448 603.275 5.93244C607.166 7.91764 609.225 8.17978 615.791 7.52608C622.884 6.81997 623.42 6.91286 621.288 8.47857C619.989 9.43275 616.003 10.5983 612.43 11.0687C604.677 12.0895 597.554 17.6151 599.442 21.1433C600.256 22.6652 599.672 23.9642 597.039 26.487C595.126 28.3202 593.28 30.7024 592.938 31.7809C592.115 34.3717 581.674 39.1936 576.497 39.3734C570.747 39.5731 570.145 40.7955 574.592 43.2448C576.693 44.4019 579.759 46.3734 581.407 47.626L584.402 49.9034L581.694 50.905C579.618 51.6728 577.935 51.1778 574.481 48.7843C569.794 45.5362 564.751 45.5199 567.441 48.7615C568.49 50.0257 568.238 50.5167 566.274 51.0302C561.885 52.178 564.99 54.4476 569.83 53.6298C572.911 53.1093 574.644 53.3836 575.607 54.5444C576.753 55.9256 575.258 56.5651 566.656 58.3732C560.976 59.5671 553.406 60.5875 549.833 60.6409C543.196 60.7401 538.413 62.6455 531.377 67.9931C529.083 69.7369 524.207 71.4651 518.502 72.5567C506.577 74.8383 502.547 77.477 495.362 87.7083C489.591 95.9261 486.111 98.9891 482.512 99.0181C481.538 99.0261 478.083 97.5832 474.835 95.8119ZM391.092 87.9127C388.555 86.3543 385.447 83.4477 384.185 81.4537C381.72 77.5608 379.447 77.0662 372.793 78.9746C370.541 79.6206 368.013 79.6829 367.002 79.1172C363.505 77.16 369.822 75.235 376.858 76.1141C382.209 76.7826 383.397 76.5921 384.021 74.9661C385.275 71.699 391.013 69.3576 394.203 70.8113C396.167 71.7062 397.953 71.6812 400.461 70.7238C403.836 69.4357 403.883 69.3194 401.678 67.7008C400.417 66.7749 398.978 66.0174 398.48 66.0174C397.982 66.0174 396.184 63.6448 394.485 60.7449C392.785 57.845 389.6 54.3631 387.407 53.0074C383.679 50.7035 383.186 50.663 379.851 52.3873C376.936 53.8947 375.252 54.0002 370.64 52.9646C367.536 52.2675 363.201 52.0328 361.008 52.4429C357.203 53.1543 350.232 51.2924 350.232 49.5648C350.232 46.391 360.235 39.2682 366.177 38.211L370.901 37.3703L367.524 40.9682C362.866 45.9313 364.617 48.2154 369.676 43.774C371.822 41.8899 375.53 39.9821 377.917 39.5343C381.564 38.8501 383.127 39.2963 387.706 42.3296C393.8 46.3656 394.269 46.4738 397.705 44.6348C399.775 43.5274 400.542 43.8315 402.789 46.6496C404.343 48.5989 407.814 50.7214 411.199 51.7924C416.594 53.4993 416.963 53.8706 416.963 57.5912C416.963 60.3814 417.767 62.1419 419.662 63.4967C427.588 69.1652 427.415 68.931 425.7 71.6773C423.348 75.4427 421.492 75.7156 416.287 73.0604C412.666 71.2133 411.085 70.96 409.262 71.9355C407.032 73.1291 407.008 73.3841 408.803 76.856C410.277 79.7054 410.411 81.1442 409.41 83.3418C408.176 86.0498 407.98 86.0916 404.629 84.3592C398.043 80.9533 393.608 83.1945 399.752 86.8238C401.677 87.9609 402.984 89.3252 402.656 89.8556C401.512 91.7065 395.668 90.7247 391.092 87.9127ZM633.689 89.442C633.689 88.9007 634.487 88.4578 635.461 88.4578C636.435 88.4578 637.233 88.9007 637.233 89.442C637.233 89.9834 636.435 90.4263 635.461 90.4263C634.487 90.4263 633.689 89.9834 633.689 89.442ZM346.56 83.0903C344.231 81.8661 342.423 81.7613 339.162 82.6617C333.618 84.1924 331.68 83.0722 334.493 79.9636C338.094 75.9841 340.537 75.2014 344.881 76.635C349.77 78.2485 351.94 80.6468 350.621 82.9791C349.78 84.466 349.206 84.4817 346.56 83.0903ZM581.132 82.5524C579.183 81.2711 576.702 80.503 575.62 80.8456C574.128 81.3174 573.797 80.9079 574.255 79.1572C574.958 76.4701 585.335 72.5919 588.843 73.7052C590.066 74.0934 593.192 73.7742 595.789 72.996C599.867 71.7742 600.948 71.8667 603.705 73.673L606.898 75.7649L604.054 77.9813C601.653 79.852 597.201 81.4751 586.447 84.4003C585.472 84.6653 583.08 83.8338 581.132 82.5524ZM260.471 60.5048C258.847 60.2481 254.891 58.859 251.68 57.4176L245.841 54.7972L254.042 54.2066C258.552 53.8818 262.242 53.0846 262.242 52.435C262.242 51.7854 259.053 50.9691 255.156 50.6209C250.01 50.1612 249.04 49.8378 251.613 49.4399C255.921 48.7735 256.231 46.9077 252.203 45.8905C249.303 45.1579 249.324 45.1132 253.404 43.3552C260.475 40.3086 268.007 39.725 274.68 41.7066C280.158 43.3336 281.014 43.3267 283.597 41.6342C285.424 40.4373 286.508 40.237 286.602 41.079C286.683 41.8033 286.816 43.016 286.897 43.7738C287.171 46.3325 289.527 46.0014 292.338 43.0091C294.941 40.239 299.452 38.912 299.442 40.9196C299.439 41.4068 298.389 43.5254 297.107 45.6276L294.776 49.4498L298.588 51.4382L302.399 53.4266L296.141 56.2828C290.494 58.8603 289.336 59.0078 284.274 57.7934C279.366 56.6161 277.958 56.7507 273.013 58.8705C267.428 61.2647 266.25 61.4182 260.471 60.5048ZM307.839 59.6727C306.772 58.3873 307.213 57.7547 309.97 56.6127C311.889 55.8179 314.641 55.5529 316.116 56.0211C318.674 56.833 318.615 56.9606 314.727 59.0316C309.766 61.6736 309.519 61.6966 307.839 59.6727ZM633.689 54.2066C635.979 52.7268 637.233 52.7268 637.233 54.2066C637.233 54.8562 636.037 55.3795 634.575 55.3696C632.426 55.355 632.257 55.1324 633.689 54.2066ZM850.416 50.9299C844.378 48.5448 844.502 48.6752 846.259 46.5582C847.08 45.5681 847.289 44.7411 846.722 44.7205C846.155 44.6998 846.755 43.8797 848.054 42.898C849.353 41.9164 850.425 40.7374 850.436 40.2782C850.477 38.5313 855.286 33.9245 858.684 32.3764C860.632 31.4885 865.681 30.4878 869.904 30.1526C874.126 29.8174 879.782 29.2032 882.472 28.7878C885.335 28.3457 887.668 28.5265 888.099 29.2238C888.936 30.5788 887.338 31.1547 878.171 32.8016C869.075 34.4358 863.607 36.9824 860.006 41.2622C856.212 45.7708 856.085 48.6175 859.569 51.0479L862.227 52.9017L858.684 52.8489C856.735 52.8199 853.014 51.9562 850.416 50.9299ZM231.835 47.5055C229.931 45.6007 230.365 45.1861 239.503 40.1833C250.211 34.3217 255.591 33.5436 265.195 36.4677L270.51 38.0858L263.423 39.4909C257.628 40.6401 245.346 44.7472 235.647 48.7793C234.658 49.1907 232.95 48.6199 231.835 47.5055ZM317.162 45.9768C317.162 45.348 315.701 43.9946 313.914 42.9693L310.666 41.105L315.015 41.7889C318.105 42.2749 319.644 41.9854 320.33 40.7889C321.146 39.366 328.663 36.5187 331.661 36.4971C332.165 36.4931 331.753 38.0832 330.747 40.0297C328.376 44.6144 317.162 49.5236 317.162 45.9768ZM335.551 42.5283C333.859 39.7904 345.415 35.5523 350.325 37.1104C353.902 38.246 351.511 40.1973 345.27 41.2347C342.478 41.6989 339.317 42.4521 338.246 42.9084C337.175 43.3647 335.962 43.1937 335.551 42.5283ZM373.263 33.8312C365.468 33.2112 358.945 32.569 358.767 32.4041C357.711 31.4242 360.345 28.2345 363.18 27.0603C365.967 25.9058 367.251 26.059 371.067 28.001C374.786 29.8939 377.184 30.2086 384.093 29.7106C388.75 29.375 394.065 29.4811 395.904 29.9465L399.247 30.7927L395.113 33.0016C392.839 34.2165 390.182 35.1538 389.208 35.0845C388.233 35.0152 381.058 34.4513 373.263 33.8312ZM713.149 29.0043C707.347 26.0341 706.788 24.6871 711.345 24.6618C713.131 24.6518 715.39 24.0702 716.364 23.3693C717.896 22.2676 717.875 22.1775 716.213 22.7045C715.155 23.0398 713.672 22.6955 712.916 21.94C711.871 20.8951 711.327 20.9136 710.645 22.0172C710.013 23.0389 708.717 23.1598 706.265 22.4256C700.037 20.5605 698.648 19.7324 698.648 17.8831C698.648 16.3168 700.21 16.1733 709.869 16.8523C717.225 17.3693 721.089 17.226 721.089 16.4361C721.089 14.1111 724.366 15.2591 725.235 17.8885L726.113 20.5461L726.636 17.8885C726.923 16.427 727.919 15.2311 728.848 15.2311C729.777 15.2311 730.537 14.5934 730.537 13.8138C730.537 12.7115 730.852 12.7115 731.955 13.8138C732.779 14.6383 736.731 15.2311 741.403 15.2311C749.847 15.2311 751.83 16.7408 746.199 18.882C743.272 19.9946 738.182 19.6799 732.604 18.0413C731.467 17.7073 730.541 17.8685 730.545 18.3995C730.553 19.4895 737.189 23.4988 738.985 23.4988C739.628 23.4988 740.9 24.2444 741.811 25.1556C743.233 26.5775 743.221 26.9073 741.727 27.4807C740.769 27.8482 739.986 27.5749 739.986 26.8735C739.986 26.0488 738.484 25.8798 735.736 26.3953C732.76 26.9536 731.728 26.8004 732.294 25.8845C732.739 25.165 732.461 23.8024 731.675 22.8565C730.161 21.0316 725.813 20.4729 725.813 22.1031C725.813 22.6347 724.086 24.9794 721.975 27.3134L718.136 31.5572L713.149 29.0043ZM399.837 26.4061C397.79 25.2041 394.893 24.856 390.389 25.2704C386.178 25.6577 382.941 25.3238 381.188 24.3213C378.771 22.9392 379.362 22.7816 386.738 22.8414C395.962 22.9161 400.013 20.9415 395.018 18.8057C392.645 17.7911 392.991 17.6989 397.059 18.2625C402.369 18.9981 404.433 17.5753 401.54 15.174C398.455 12.6134 401.847 11.8185 412.825 12.5297C419.618 12.9698 423.887 12.723 425.632 11.7891C428.975 10.0001 427.663 7.72276 423.842 8.68175C421.201 9.34453 402.875 8.25695 403.648 7.48336C404.201 6.93052 430.165 4.52582 447.214 3.4485C456.057 2.88969 465.89 2.11018 469.064 1.71625L474.835 1L465.308 5.57643C456.375 9.86714 441.849 14.0501 435.881 14.0501C434.428 14.0501 430.252 15.6445 426.6 17.5933C422.948 19.5421 419.228 21.1366 418.333 21.1366C417.437 21.1366 413.574 22.7243 409.747 24.6649C405.921 26.6054 402.79 28.181 402.79 28.1662C402.79 28.1514 401.461 27.3594 399.837 26.4061ZM376.806 15.6155C371.082 14.349 370.872 13.8725 375.079 11.6924C381.21 8.51465 387.012 7.70017 389.65 9.64696C391.738 11.1883 391.617 11.4265 387.516 13.8466C383.241 16.3689 381.506 16.6554 376.806 15.6155Z" stroke="url(#paint0_diamond_16_1134)" stroke-width="2" stroke-dasharray="2 2"/>
<path d="M677 372.001C687.493 372.001 696 363.494 696 353.001C696 342.508 687.493 334.001 677 334.001C666.507 334.001 658 342.508 658 353.001C658 363.494 666.507 372.001 677 372.001Z" fill="#011B33"/>
<path d="M672.578 348.001H681.843C682.162 348.001 682.422 348.241 682.422 348.537V349.49C682.422 349.654 682.342 349.801 682.217 349.899C682.165 349.94 682.104 349.973 682.039 349.995C682.014 350.003 681.989 350.01 681.963 350.015C681.924 350.023 681.884 350.027 681.843 350.027H672.578C672.259 350.027 672 349.785 672 349.49V348.537C672 348.241 672.259 348.001 672.578 348.001Z" fill="#0BA4DB"/>
<path d="M672.578 353.318H681.843C682.162 353.318 682.422 353.558 682.422 353.854V354.807C682.422 355.103 682.162 355.343 681.843 355.343H672.578C672.378 355.343 672.203 355.249 672.099 355.107C672.076 355.075 672.056 355.041 672.04 355.004C672.031 354.982 672.023 354.96 672.017 354.936C672.006 354.895 672 354.852 672 354.807V353.854C672 353.558 672.259 353.318 672.578 353.318Z" fill="#0BA4DB"/>
<path d="M677.79 355.976H672.578C672.259 355.976 672 356.216 672 356.512V357.465C672 357.761 672.259 358.001 672.578 358.001H677.79C678.11 358.001 678.368 357.761 678.368 357.465V356.512C678.368 356.216 678.11 355.976 677.79 355.976Z" fill="#0BA4DB"/>
<path d="M672.578 350.659H682.422C682.742 350.659 683 350.899 683 351.195V352.148C683 352.444 682.742 352.685 682.422 352.685H672.578C672.259 352.685 672 352.444 672 352.148V351.195C672 350.899 672.259 350.659 672.578 350.659Z" fill="#0BA4DB"/>
<path d="M792 298.001C802.493 298.001 811 289.494 811 279.001C811 268.507 802.493 260.001 792 260.001C781.507 260.001 773 268.507 773 279.001C773 289.494 781.507 298.001 792 298.001Z" fill="white"/>
<path d="M792 297.001C801.941 297.001 810 288.942 810 279.001C810 269.06 801.941 261.001 792 261.001C782.059 261.001 774 269.06 774 279.001C774 288.942 782.059 297.001 792 297.001Z" stroke="#CBF1D1" stroke-width="2"/>
<path d="M784.492 282.694C784.189 282.314 784.203 281.771 784.525 281.408L794.16 270.529C794.58 270.055 795.328 270.085 795.708 270.591L799.386 275.488C799.672 275.868 799.65 276.396 799.336 276.752L789.817 287.499C789.405 287.964 788.673 287.945 788.286 287.459L784.492 282.694Z" fill="#9FFFB3"/>
<path d="M394 470.001C404.493 470.001 413 461.495 413 451.001C413 440.508 404.493 432.001 394 432.001C383.507 432.001 375 440.508 375 451.001C375 461.495 383.507 470.001 394 470.001Z" fill="white"/>
<path d="M394 469.001C403.941 469.001 412 460.942 412 451.001C412 441.06 403.941 433.001 394 433.001C384.059 433.001 376 441.06 376 451.001C376 460.942 384.059 469.001 394 469.001Z" stroke="#CBF1D1" stroke-width="2"/>
<path d="M386.492 454.694C386.189 454.314 386.203 453.771 386.525 453.408L396.16 442.529C396.58 442.055 397.328 442.085 397.708 442.591L401.386 447.488C401.672 447.868 401.65 448.396 401.336 448.752L391.817 459.499C391.405 459.964 390.673 459.945 390.286 459.459L386.492 454.694Z" fill="#9FFFB3"/>
<path d="M763 569.001C773.493 569.001 782 560.495 782 550.001C782 539.508 773.493 531.001 763 531.001C752.507 531.001 744 539.508 744 550.001C744 560.495 752.507 569.001 763 569.001Z" fill="white"/>
<path d="M763 568.001C772.941 568.001 781 559.943 781 550.001C781 540.06 772.941 532.001 763 532.001C753.059 532.001 745 540.06 745 550.001C745 559.943 753.059 568.001 763 568.001Z" stroke="#CBF1D1" stroke-width="2"/>
<path d="M755.492 553.694C755.189 553.314 755.203 552.771 755.525 552.408L765.16 541.529C765.58 541.055 766.328 541.085 766.708 541.591L770.386 546.488C770.672 546.868 770.65 547.396 770.336 547.752L760.817 558.499C760.405 558.964 759.673 558.945 759.286 558.459L755.492 553.694Z" fill="#9FFFB3"/>
<path d="M773 79C783.493 79 792 70.4934 792 60C792 49.5066 783.493 41 773 41C762.507 41 754 49.5066 754 60C754 70.4934 762.507 79 773 79Z" fill="white"/>
<path d="M773 78C782.941 78 791 69.9411 791 60C791 50.0589 782.941 42 773 42C763.059 42 755 50.0589 755 60C755 69.9411 763.059 78 773 78Z" stroke="#CBF1D1" stroke-width="2"/>
<path d="M765.492 63.6926C765.189 63.3126 765.203 62.7703 765.525 62.4067L775.16 51.5276C775.58 51.0539 776.328 51.0841 776.708 51.5901L780.386 56.4868C780.672 56.8667 780.65 57.3948 780.336 57.7504L770.817 68.4982C770.405 68.9634 769.673 68.9442 769.286 68.4581L765.492 63.6926Z" fill="#9FFFB3"/>
<defs>
<radialGradient id="paint0_diamond_16_1134" cx="0" cy="0" r="1" gradientUnits="userSpaceOnUse" gradientTransform="translate(383.59 67.246) rotate(42.8463) scale(874.956 1928.24)">
<stop stop-color="#B2F2C4"/>
<stop offset="1" stop-color="#16A83F" stop-opacity="0"/>
</radialGradient>
</defs>
</svg>
